<?xml version="1.0" standalone="no"?>
<!DOCTYPE svg PUBLIC "-//W3C//DTD SVG 1.1//EN" "http://www.w3.org/Graphics/SVG/1.1/DTD/svg11.dtd" >
<svg>
<metadata>
Created by FontForge 20090914 at Fri Feb  5 23:38:40 2016
 By www-data
(c) 2010 Klim Type Foundry. All rights reserved.
</metadata>
<defs>
<font id="FoundersGrotesqueRegular" horiz-adv-x="500" >
  <font-face 
    font-family="Copyright Klim Type Foundry"
    font-weight="400"
    font-stretch="normal"
    units-per-em="1000"
    panose-1="2 0 5 3 0 0 0 2 0 4"
    ascent="800"
    descent="-200"
    x-height="437"
    cap-height="630"
    bbox="-74.001 -193 1105 931"
    underline-thickness="40"
    underline-position="-90"
    unicode-range="U+000D-U+FB04"
  />
<missing-glyph horiz-adv-x="608" 
 />
    <glyph glyph-name="ff" unicode="ff" horiz-adv-x="549" 
d="M338 377l-182.001 -0.000976562v-377h-82v377h-67v60h67v47c0 45.333 12.833 81.333 38.5 108s59.5 40 101.5 40c25.333 0 46.333 -3.33301 63 -10s31 -14 43 -22l-22 -55c-10.667 7.33301 -22 13.333 -34 18s-25 7 -39 7c-23.333 0 -40.666 -7.5 -51.999 -22.5
s-17 -35.833 -17 -62.5v-48h182v49c0 46 12.667 83.5 38 112.5s61 43.5 107 43.5c38 0 67.833 -8.5 89.5 -25.5s37.5 -41.833 47.5 -74.5l-57 -20c-5.33301 16.667 -14.333 30.834 -27 42.501s-29 17.5 -49 17.5c-22.667 0 -39.5 -7.66699 -50.5 -23s-16.5 -36 -16.5 -62
v-60h123v-60h-123v-377h-82v377z" />
    <glyph glyph-name="fi" unicode="fi" horiz-adv-x="477" 
d="M74 377l-67.001 -0.00292969v60h67v31c0 52.667 14.833 94.834 44.5 126.501s71.167 47.5 124.5 47.5c43.333 0 77.5 -9 102.5 -27s43.833 -44.667 56.5 -80l-67 -23c-6 18.667 -16.333 34.334 -31 47.001s-34 19 -58 19c-27.333 0 -49.166 -8.66699 -65.499 -26
s-24.5 -42.666 -24.5 -75.999v-39h265v-437h-83v377h-182v-377h-82v377z" />
    <glyph glyph-name="fl" unicode="fl" horiz-adv-x="477" 
d="M338 630h83v-630h-83v630zM301 617l-19 -57c-8.66699 6 -17.667 10.667 -27 14s-19.666 5 -30.999 5c-23.333 0 -40.5 -7.66699 -51.5 -23s-16.5 -36 -16.5 -62v-57h117v-60h-117v-377h-82v377h-67v60h67v55c0 46 12.167 82.5 36.5 109.5s58.166 40.5 101.499 40.5
c18 0 34.5 -2.33301 49.5 -7s28.167 -10.667 39.5 -18z" />
    <glyph glyph-name="ffi" unicode="ffi" horiz-adv-x="741" 
d="M338 377l-182.001 -0.00292969v-377h-82v377h-67v60h67v47c0 45.333 12.833 81.333 38.5 108s59.5 40 101.5 40c25.333 0 46.333 -3.33301 63 -10s31 -14 43 -22l-22 -55c-10.667 7.33301 -22 13.333 -34 18s-25 7 -39 7c-23.333 0 -40.666 -7.5 -51.999 -22.5
s-17 -35.833 -17 -62.5v-48h182v31c0 52.667 14.833 94.834 44.5 126.501s71.167 47.5 124.5 47.5c43.333 0 77.5 -9 102.5 -27s43.833 -44.667 56.5 -80l-66 -23c-6.66699 18.667 -17.334 34.334 -32.001 47.001s-34 19 -58 19c-27.333 0 -49.166 -8.66699 -65.499 -26
s-24.5 -42.666 -24.5 -75.999v-39h265v-437h-83v377h-182v-377h-82v377z" />
    <glyph glyph-name="ffl" unicode="ffl" horiz-adv-x="741" 
d="M602 630h83v-630h-83v630zM338 377h-182.003v-377h-82v377h-67v60h67v47c0 45.333 12.833 81.333 38.5 108s59.5 40 101.5 40c25.333 0 46.333 -3.33301 63 -10s31 -14 43 -22l-22 -55c-10.667 7.33301 -22 13.333 -34 18s-25 7 -39 7
c-23.333 0 -40.666 -7.5 -51.999 -22.5s-17 -35.833 -17 -62.5v-48h182v55c0 46 12.333 82.5 37 109.5s58.334 40.5 101.001 40.5c18 0 34.5 -2.33301 49.5 -7s28.167 -10.667 39.5 -18l-19 -57c-8.66699 6 -17.667 10.667 -27 14s-19.666 5 -30.999 5
c-23.333 0 -40.5 -7.66699 -51.5 -23s-16.5 -36 -16.5 -62v-57h117v-60h-117v-377h-82v377z" />
    <glyph glyph-name="f_b" unicode="fb" horiz-adv-x="807" 
d="M419 91l-17.998 -91h-63v630h83v-285c9.33301 26.667 27.666 50.667 54.999 72s61.333 32 102 32c64 0 113.333 -22.5 148 -67.5s52 -99.5 52 -163.5s-17.333 -118.333 -52 -163s-84.334 -67 -149.001 -67c-40 0 -73.833 10.333 -101.5 31s-46.5 44.667 -56.5 72z
M301.002 617l-19 -57c-8.66699 6 -17.667 10.667 -27 14s-19.666 5 -30.999 5c-23.333 0 -40.5 -7.66699 -51.5 -23s-16.5 -36 -16.5 -62v-57h117v-60h-117v-377h-82v377h-67v60h67v55c0 46 12.167 82.5 36.5 109.5s58.166 40.5 101.499 40.5c18 0 34.5 -2.33301 49.5 -7
s28.167 -10.667 39.5 -18zM419.002 231v-25c0 -48 13.5 -85.333 40.5 -112s60.167 -40 99.5 -40c42.667 0 75.667 14.833 99 44.5s35 69.5 35 119.5s-11.667 89.833 -35 119.5s-56.333 44.5 -99 44.5c-39.333 0 -72.5 -13.333 -99.5 -40s-40.5 -63.667 -40.5 -111z" />
    <glyph glyph-name="f_f_b" unicode="ffb" horiz-adv-x="1071" 
d="M683 91l-17.999 -91h-63v630h83v-285c10 26.667 28.5 50.667 55.5 72s60.833 32 101.5 32c64 0 113.333 -22.5 148 -67.5s52 -99.5 52 -163.5s-17.333 -118.333 -52 -163s-84.334 -67 -149.001 -67c-40 0 -73.833 10.333 -101.5 31s-46.5 44.667 -56.5 72zM683.001 231
v-25c0 -48 13.5 -85.333 40.5 -112s60.167 -40 99.5 -40c42.667 0 75.667 14.833 99 44.5s35 69.5 35 119.5s-11.667 89.833 -35 119.5s-56.333 44.5 -99 44.5c-39.333 0 -72.5 -13.333 -99.5 -40s-40.5 -63.667 -40.5 -111zM338.001 377h-182.003v-377h-82v377h-67v60h67
v47c0 45.333 12.833 81.333 38.5 108s59.5 40 101.5 40c25.333 0 46.333 -3.33301 63 -10s31 -14 43 -22l-22 -55c-10.667 7.33301 -22 13.333 -34 18s-25 7 -39 7c-23.333 0 -40.666 -7.5 -51.999 -22.5s-17 -35.833 -17 -62.5v-48h182v55c0 46 12.333 82.5 37 109.5
s58.334 40.5 101.001 40.5c18 0 34.5 -2.33301 49.5 -7s28.167 -10.667 39.5 -18l-19 -57c-8.66699 6 -17.667 10.667 -27 14s-19.666 5 -30.999 5c-23.333 0 -40.5 -7.66699 -51.5 -23s-16.5 -36 -16.5 -62v-57h117v-60h-117v-377h-82v377z" />
    <glyph glyph-name="f_f_h" unicode="ffh" horiz-adv-x="1041" 
d="M685 251l-0.00195312 -251.001h-83v630h83v-271c10.667 26.667 29.334 48.334 56.001 65.001s56.334 25 89.001 25c57.333 0 98.333 -17 123 -51s37 -76.333 37 -127v-271h-83v264c0 36 -8.83301 64.833 -26.5 86.5s-43.5 32.5 -77.5 32.5c-32.667 0 -60.5 -12 -83.5 -36
s-34.5 -56 -34.5 -96zM337.998 376.999h-182.003v-377h-82v377h-67v60h67v47c0 45.333 12.833 81.333 38.5 108s59.5 40 101.5 40c25.333 0 46.333 -3.33301 63 -10s31 -14 43 -22l-22 -55c-10.667 7.33301 -22 13.333 -34 18s-25 7 -39 7
c-23.333 0 -40.666 -7.5 -51.999 -22.5s-17 -35.833 -17 -62.5v-48h182v55c0 46 12.333 82.5 37 109.5s58.334 40.5 101.001 40.5c18 0 34.5 -2.33301 49.5 -7s28.167 -10.667 39.5 -18l-19 -57c-8.66699 6 -17.667 10.667 -27 14s-19.666 5 -30.999 5
c-23.333 0 -40.5 -7.66699 -51.5 -23s-16.5 -36 -16.5 -62v-57h117v-60h-117v-377h-82v377z" />
    <glyph glyph-name="f_f_idieresis" unicode="ff&#xef;" horiz-adv-x="741" 
d="M671 528v94h82v-94h-82zM338 377h-182v-377h-82v377h-67v60h67v47c0 45.333 12.833 81.333 38.5 108s59.5 40 101.5 40c25.333 0 46.333 -3.33301 63 -10s31 -14 43 -22l-22 -55c-10.667 7.33301 -22 13.333 -34 18s-25 7 -39 7c-23.333 0 -40.666 -7.5 -51.999 -22.5
s-17 -35.833 -17 -62.5v-48h182v50c0 46 13.167 83.333 39.5 112s62.5 43 108.5 43c38 0 68.167 -8.83301 90.5 -26.5s38.166 -42.167 47.499 -73.5l-65 -23c-4.66699 17.333 -13 31.833 -25 43.5s-27.333 17.5 -46 17.5c-22.667 0 -39.667 -7.33301 -51 -22
s-17 -35 -17 -61v-60h265v-437h-83v377h-182v-377h-82v377z" />
    <glyph glyph-name="f_f_j" unicode="ffj" horiz-adv-x="741" 
d="M602 -66l0.00292969 442.998h-182v-377h-82v377h-182v-377h-82v377h-67v60h67v47c0 45.333 12.833 81.333 38.5 108s59.5 40 101.5 40c25.333 0 46.333 -3.33301 63 -10s31 -14 43 -22l-22 -55c-10.667 7.33301 -22 13.333 -34 18s-25 7 -39 7
c-23.333 0 -40.666 -7.5 -51.999 -22.5s-17 -35.833 -17 -62.5v-48h182v31c0 52.667 14.833 94.834 44.5 126.501s71.167 47.5 124.5 47.5c43.333 0 77.5 -9 102.5 -27s43.833 -44.667 56.5 -80l-66 -23c-6.66699 18.667 -17.334 34.334 -32.001 47.001s-34 19 -58 19
c-27.333 0 -49.166 -8.66699 -65.499 -26s-24.5 -42.666 -24.5 -75.999v-39h265v-497c0 -38 -9.83301 -67.5 -29.5 -88.5s-48.5 -31.5 -86.5 -31.5c-18.667 0 -36.834 3.16699 -54.501 9.5s-32.167 13.833 -43.5 22.5l21 53c11.333 -7.33301 22.166 -12.833 32.499 -16.5
s22.166 -5.5 35.499 -5.5s23.666 4.16699 30.999 12.5s11 21.166 11 38.499z" />
    <glyph glyph-name="f_f_k" unicode="ffk" horiz-adv-x="1024" 
d="M338 377h-182.003v-377h-82v377h-67v60h67v47c0 45.333 12.833 81.333 38.5 108s59.5 40 101.5 40c25.333 0 46.333 -3.33301 63 -10s31 -14 43 -22l-22 -55c-10.667 7.33301 -22 13.333 -34 18s-25 7 -39 7c-23.333 0 -40.666 -7.5 -51.999 -22.5s-17 -35.833 -17 -62.5
v-48h182v55c0 46 12.333 82.5 37 109.5s58.334 40.5 101.001 40.5c18 0 34.5 -2.33301 49.5 -7s28.167 -10.667 39.5 -18l-19 -57c-8.66699 6 -17.667 10.667 -27 14s-19.666 5 -30.999 5c-23.333 0 -40.5 -7.66699 -51.5 -23s-16.5 -36 -16.5 -62v-57h117v-60h-117v-377
h-82v377zM684.997 158v-158h-83v630h83v-391l220 198h104l-201 -179l210 -258h-97l-174 212z" />
    <glyph glyph-name="f_h" unicode="fh" horiz-adv-x="777" 
d="M301 617l-19 -57c-8.66699 6 -17.667 10.667 -27 14s-19.666 5 -30.999 5c-23.333 0 -40.5 -7.66699 -51.5 -23s-16.5 -36 -16.5 -62v-57h117v-60h-117v-377h-82v377h-67v60h67v55c0 46 12.167 82.5 36.5 109.5s58.166 40.5 101.499 40.5c18 0 34.5 -2.33301 49.5 -7
s28.167 -10.667 39.5 -18zM421 251l-0.00195312 -251.001h-83v630h83v-271c10.667 26.667 29.334 48.334 56.001 65.001s56.334 25 89.001 25c57.333 0 98.333 -17 123 -51s37 -76.333 37 -127v-271h-83v264c0 36 -8.83301 64.833 -26.5 86.5s-43.5 32.5 -77.5 32.5
c-32.667 0 -60.5 -12 -83.5 -36s-34.5 -56 -34.5 -96z" />
    <glyph glyph-name="f_idieresis" unicode="f&#xef;" horiz-adv-x="477" 
d="M407 528v94h82v-94h-82zM74 377h-66.998v60h67v50c0 46 13.167 83.333 39.5 112s62.5 43 108.5 43c38 0 68.167 -8.83301 90.5 -26.5s38.166 -42.167 47.499 -73.5l-65 -23c-5.33301 17.333 -13.833 31.833 -25.5 43.5s-26.834 17.5 -45.501 17.5
c-22.667 0 -39.667 -7.33301 -51 -22s-17 -35 -17 -61v-60h265v-437h-83v377h-182v-377h-82v377z" />
    <glyph glyph-name="f_j" unicode="fj" horiz-adv-x="477" 
d="M338 -66l0.000976562 442.998h-182v-377h-82v377h-67v60h67v31c0 52.667 14.833 94.834 44.5 126.501s71.167 47.5 124.5 47.5c43.333 0 77.5 -9 102.5 -27s43.833 -44.667 56.5 -80l-67 -23c-6 18.667 -16.333 34.334 -31 47.001s-34 19 -58 19
c-27.333 0 -49.166 -8.66699 -65.499 -26s-24.5 -42.666 -24.5 -75.999v-39h265v-497c0 -38 -9.83301 -67.5 -29.5 -88.5s-48.5 -31.5 -86.5 -31.5c-18.667 0 -36.834 3.16699 -54.501 9.5s-32.167 13.833 -43.5 22.5l20 53c11.333 -7.33301 22.333 -12.833 33 -16.5
s22.667 -5.5 36 -5.5s23.666 4.16699 30.999 12.5s11 21.166 11 38.499z" />
    <glyph glyph-name="f_k" unicode="fk" horiz-adv-x="760" 
d="M301 617l-19 -57c-8.66699 6 -17.667 10.667 -27 14s-19.666 5 -30.999 5c-23.333 0 -40.5 -7.66699 -51.5 -23s-16.5 -36 -16.5 -62v-57h117v-60h-117v-377h-82v377h-67v60h67v55c0 46 12.167 82.5 36.5 109.5s58.166 40.5 101.499 40.5c18 0 34.5 -2.33301 49.5 -7
s28.167 -10.667 39.5 -18zM421 158v-158h-83v630h83v-391l220 198h104l-201 -179l210 -258h-97l-175 212z" />
    <glyph glyph-name=".notdef" horiz-adv-x="608" 
 />
    <glyph glyph-name="NULL" horiz-adv-x="0" 
 />
    <glyph glyph-name="NULL" horiz-adv-x="0" 
 />
    <glyph glyph-name="nonmarkingreturn" unicode="&#xd;" horiz-adv-x="221" 
 />
    <glyph glyph-name="space" unicode=" " horiz-adv-x="180" 
 />
    <glyph glyph-name="exclam" unicode="!" horiz-adv-x="191" 
d="M51 630h89v-176l-24 -289h-40l-25 289v176zM46 0v100h100v-100h-100z" />
    <glyph glyph-name="quotedbl" unicode="&#x22;" horiz-adv-x="289" 
d="M172 407v223h71v-223h-71zM46 407v223h71v-223h-71z" />
    <glyph glyph-name="numbersign" unicode="#" horiz-adv-x="608" 
d="M357 225l42 180h-148l-42 -180h148zM303 0l40 167h-148l-40 -167h-70l40 167h-105l11 58h108l42 180h-119l11 59h122l40 166h70l-40 -166h148l40 166h71l-40 -166h104l-11 -59h-107l-42 -180h118l-11 -58h-121l-40 -167h-71z" />
    <glyph glyph-name="dollar" unicode="$" horiz-adv-x="554" 
d="M236 364l13 -3v215c-41.333 -1.33301 -73 -11.666 -95 -30.999s-33 -46 -33 -80c0 -31.333 10.167 -54.333 30.5 -69s48.5 -25.334 84.5 -32.001zM320 268l-15 3v-216c40 2.66699 72.167 13.5 96.5 32.5s36.5 44.833 36.5 77.5c0 28.667 -9.66699 51 -29 67
s-49 28 -89 36zM305 -102l-55.999 0.00195312v92c-66 6.66699 -120.333 30.167 -163 70.5s-64 95.166 -64 164.499l77 5c2 -50 17 -89.667 45 -119s63 -47.333 105 -54v225l-53 10c-46 8.66699 -83.5 26.667 -112.5 54s-43.5 65.333 -43.5 114
c0 53.333 18.667 96.5 56 129.5s88.333 50.5 153 52.5v87h56v-90c63.333 -7.33301 112.666 -30.333 147.999 -69s53.333 -90 54 -154l-77 -4c-1.33301 44 -13 79.667 -35 107s-52 45 -90 53v-222l43 -8c56.667 -10.667 99.5 -29.334 128.5 -56.001s43.5 -65 43.5 -115
c0 -55.333 -20.333 -99 -61 -131s-92 -49.333 -154 -52v-90z" />
    <glyph glyph-name="percent" unicode="%" horiz-adv-x="732" 
d="M28 476c0 52 14.333 92.667 43 122s63.334 44 104.001 44c41.333 0 76.333 -14.667 105 -44s43 -70 43 -122s-14.333 -92.667 -43 -122s-63.667 -44 -105 -44c-40.667 0 -75.334 14.667 -104.001 44s-43 70 -43 122zM561 630l-322 -630h-68l323 630h67zM99 476
c0 -39.333 7 -67.666 21 -84.999s32.333 -26 55 -26c23.333 0 42 8.66699 56 26s21 45.666 21 84.999s-7 67.666 -21 84.999s-32.667 26 -56 26c-22.667 0 -41 -8.66699 -55 -26s-21 -45.666 -21 -84.999zM705 154c0 -52 -14.5 -92.667 -43.5 -122s-63.833 -44 -104.5 -44
s-75.5 14.667 -104.5 44s-43.5 70 -43.5 122s14.5 92.667 43.5 122s63.833 44 104.5 44s75.5 -14.667 104.5 -44s43.5 -70 43.5 -122zM633 154c0 39.333 -7 67.666 -21 84.999s-32.333 26 -55 26s-41 -8.66699 -55 -26s-21 -45.666 -21 -84.999s7 -67.666 21 -84.999
s32.333 -26 55 -26s41 8.66699 55 26s21 45.666 21 84.999z" />
    <glyph glyph-name="ampersand" unicode="&#x26;" horiz-adv-x="622" 
d="M176 488c0 -21.333 6.00098 -40.666 18.001 -57.999s26 -35 42 -53c41.333 19.333 70.166 37.666 86.499 54.999s24.5 40 24.5 68c0 20.667 -6.66699 39.167 -20 55.5s-34 24.5 -62 24.5c-24.667 0 -45.667 -7.66699 -63 -23s-26 -38.333 -26 -69zM234.001 55
c26.667 0 52.166 4.50098 76.499 13.501s46.5 21.167 66.5 36.5l-2 3l-170 187c-29.333 -15.333 -52.333 -32.833 -69 -52.5s-25 -46.167 -25 -79.5c0 -32.667 11.833 -58.834 35.5 -78.501s52.834 -29.5 87.501 -29.5zM552 -7.99902c-22 0 -42.833 4.83008 -62.5 14.4971
s-42.167 26.834 -67.5 51.501c-26.667 -21.333 -56 -38.333 -88 -51s-66 -19 -102 -19c-57.333 0 -105.833 15.333 -145.5 46s-59.5 73 -59.5 127c0 42 12.333 77 37 105s57.667 53.333 99 76c-18.667 22.667 -34.334 45.334 -47.001 68.001s-19 48.334 -19 77.001
c0 46 15.833 83.333 47.5 112s71.834 43 120.501 43c50 0 88.5 -13.333 115.5 -40s40.5 -60 40.5 -100s-12.5 -72.5 -37.5 -97.5s-60.5 -49.5 -106.5 -73.5l154 -171c16.667 22 31.167 46.5 43.5 73.5s21.833 55.5 28.5 85.5l72 -4
c-9.33301 -37.333 -22.5 -73.5 -39.5 -108.5s-37.167 -66.833 -60.5 -95.5c14.667 -16.667 29.5 -29.834 44.5 -39.501s32.167 -14.5 51.5 -14.5c7.33301 0 15 0.333008 23 1s16.667 2.33398 26 5.00098v-54c-8.66699 -5.33301 -19 -9.5 -31 -12.5s-24.333 -4.5 -37 -4.5z
" />
    <glyph glyph-name="quotesingle" unicode="'" horiz-adv-x="165" 
d="M46 407v223h73v-223h-73z" />
    <glyph glyph-name="parenleft" unicode="(" horiz-adv-x="289" 
d="M41 288c0 67.333 12.167 134.168 36.5 200.501s58.5 123.5 102.5 171.5h83c-52 -59.333 -87.5 -120.333 -106.5 -183s-28.5 -125.667 -28.5 -189s9.5 -126.333 28.5 -189s54.5 -123.667 106.5 -183h-83c-44 48 -78.167 105.167 -102.5 171.5s-36.5 133.166 -36.5 200.499
z" />
    <glyph glyph-name="parenright" unicode=")" horiz-adv-x="289" 
d="M109 660c44 -48 78.167 -105.169 102.5 -171.502s36.5 -133.166 36.5 -200.499s-12.167 -134.166 -36.5 -200.499s-58.5 -123.5 -102.5 -171.5h-83c52 59.333 87.5 120.333 106.5 183s28.5 125.667 28.5 189s-9.5 126.333 -28.5 189s-54.5 123.667 -106.5 183h83z" />
    <glyph glyph-name="asterisk" unicode="*" horiz-adv-x="358" 
d="M14 498l19 55l117 -41v127h58v-126l119 41l18 -55l-120 -38l75 -101l-47 -34l-73 100l-73 -102l-46 36l73 99z" />
    <glyph glyph-name="plus" unicode="+" horiz-adv-x="618" 
d="M565 277h-221v-221h-70v221h-220v70h220v221h70v-221h221v-70z" />
    <glyph glyph-name="comma" unicode="," horiz-adv-x="176" 
d="M38 0v100.002h100v-98c0 -34.667 -6.66699 -61.834 -20 -81.501s-40 -29.834 -80 -30.501v49c18.667 1.33301 31.167 6.33301 37.5 15s9.5 24 9.5 46h-47z" />
    <glyph glyph-name="hyphen" unicode="-" horiz-adv-x="344" 
d="M57 218v74h230v-74h-230z" />
    <glyph glyph-name="period" unicode="." horiz-adv-x="176" 
d="M38 0v100h100v-100h-100z" />
    <glyph glyph-name="slash" unicode="/" horiz-adv-x="317" 
d="M-20 -83l256 742h78l-255 -742h-79z" />
    <glyph glyph-name="zero" unicode="0" horiz-adv-x="588" 
d="M556 315c0 -104 -23.167 -184.5 -69.5 -241.5s-110.5 -85.5 -192.5 -85.5s-146 28.5 -192 85.5s-69 137.5 -69 241.5s23 184.5 69 241.5s110 85.5 192 85.5s146.167 -28.5 192.5 -85.5s69.5 -137.5 69.5 -241.5zM465 315c0 85.333 -14 149.5 -42 192.5
s-71 64.5 -129 64.5s-101 -21.5 -129 -64.5s-42 -107.167 -42 -192.5s14 -149.5 42 -192.5s71 -64.5 129 -64.5s101 21.5 129 64.5s42 107.167 42 192.5z" />
    <glyph glyph-name="one" unicode="1" horiz-adv-x="289" 
d="M10 482v55.999c44 0 76.833 7.83301 98.5 23.5s38.167 39.834 49.5 72.501h57v-634h-87v482h-118z" />
    <glyph glyph-name="two" unicode="2" horiz-adv-x="505" 
d="M160 75l329 -0.000976562v-75h-463v50l178 153c49.333 42.667 90.5 82.167 123.5 118.5s49.5 77.5 49.5 123.5c0 36.667 -10.5 66.834 -31.5 90.501s-52.167 35.5 -93.5 35.5c-42.667 0 -75.667 -13 -99 -39s-35 -62 -35 -108c0 -9.33301 0.5 -18.833 1.5 -28.5
s2.83301 -19.167 5.5 -28.5l-86 4c-2 10 -3.66699 20 -5 30s-2 19.667 -2 29c0 64 20.167 115.333 60.5 154s93.833 58 160.5 58c73.333 0 127.333 -18.833 162 -56.5s52 -83.167 52 -136.5c0 -56.667 -20 -107.5 -60 -152.5s-82.667 -86.167 -128 -123.5z" />
    <glyph glyph-name="three" unicode="3" horiz-adv-x="516" 
d="M404 173c0 36 -13.334 63.501 -40.001 82.501s-59.667 28.5 -99 28.5c-12.667 0 -24 -0.333008 -34 -1s-18.667 -1.33398 -26 -2.00098v71c6.66699 -0.666992 14.834 -1.33398 24.501 -2.00098s21.5 -1 35.5 -1c32.667 0 62 8 88 24s39 44 39 84c0 34 -11 61.667 -33 83
s-54.667 32 -98 32c-44 0 -79 -13.833 -105 -41.5s-39 -66.5 -39 -116.5l-84 3c0 64.667 20.5 118.334 61.5 161.001s96.833 64 167.5 64c69.333 0 122.666 -16.5 159.999 -49.5s56 -75.833 56 -128.5c0 -40 -12.667 -73.167 -38 -99.5s-53.333 -41.833 -84 -46.5
c38 -5.33301 70 -21.666 96 -48.999s39 -61.333 39 -102c0 -52 -20.5 -94.833 -61.5 -128.5s-96.167 -50.5 -165.5 -50.5c-74.667 0 -133.667 20.167 -177 60.5s-65 95.166 -65 164.499l85 -4c0.666992 -50 15.334 -87.667 44.001 -113s66.667 -38 114 -38
c40.667 0 74 9.83301 100 29.5s39 48.167 39 85.5z" />
    <glyph glyph-name="four" unicode="4" horiz-adv-x="547" 
d="M432 630v-391h108v-71h-108v-168h-85v168h-331v82l311 380h105zM347 552l-256 -313h256v313z" />
    <glyph glyph-name="five" unicode="5" horiz-adv-x="525" 
d="M461 630l0.000976562 -77.999h-302c-0.666992 -16.667 -3.83398 -49.334 -9.50098 -98.001s-10.167 -81 -13.5 -97c14.667 17.333 34.667 32.333 60 45s55.333 19 90 19c71.333 0 125.333 -20.833 162 -62.5s55 -91.5 55 -149.5c0 -65.333 -21.167 -118.5 -63.5 -159.5
s-97.5 -61.5 -165.5 -61.5c-75.333 0 -133.666 21.833 -174.999 65.5s-60.333 100.167 -57 169.5l84 -7c0 -47.333 12.667 -85.666 38 -114.999s62.666 -44 111.999 -44c44 0 78.833 13.667 104.5 41s38.5 64 38.5 110c0 41.333 -12.833 75.666 -38.5 102.999
s-60.5 41 -104.5 41c-34.667 0 -63.5 -8 -86.5 -24s-40.167 -34.667 -51.5 -56l-86 6c8 43.333 16.333 99.833 25 169.5s13.667 130.5 15 182.5h369z" />
    <glyph glyph-name="six" unicode="6" horiz-adv-x="548" 
d="M292 573c-64 0 -110.501 -26.499 -139.501 -79.499s-43.167 -120.5 -42.5 -202.5c10.667 36 32 66.5 64 91.5s73.333 37.5 124 37.5c67.333 0 121 -20 161 -60s60 -91 60 -153c0 -64.667 -20.833 -117.334 -62.5 -158.001s-97.5 -61 -167.5 -61
c-83.333 0 -146.833 28.5 -190.5 85.5s-65.5 133.5 -65.5 229.5c0 98 21.333 179 64 243s108 96 196 96c62 0 112.833 -17 152.5 -51s62.167 -80.333 67.5 -139l-83 -3c-5.33301 36.667 -19.166 66.5 -41.499 89.5s-54.5 34.5 -96.5 34.5zM134.999 204.001
c0 -43.333 13.8311 -78.5 41.498 -105.5s64.834 -40.5 111.501 -40.5c46 0 82.167 13.333 108.5 40s39.5 62 39.5 106s-13.167 79.5 -39.5 106.5s-63.5 40.5 -111.5 40.5c-47.333 0 -84.166 -13.5 -110.499 -40.5s-39.5 -62.5 -39.5 -106.5z" />
    <glyph glyph-name="seven" unicode="7" horiz-adv-x="482" 
d="M365 552l-346 -0.00195312v78h444v-53c-78 -81.333 -132.333 -171.166 -163 -269.499s-46.334 -200.833 -47.001 -307.5h-94c1.33301 110.667 20.333 213.834 57 309.501s86.334 176.5 149.001 242.5z" />
    <glyph glyph-name="eight" unicode="8" horiz-adv-x="527" 
d="M264 -12c-74 0 -132.334 16.167 -175.001 48.5s-64 75.833 -64 130.5c0 40.667 13.167 74.334 39.5 101.001s56.5 43.334 90.5 50.001c-32.667 12 -58.667 30.667 -78 56s-29 56.333 -29 93c0 54 20.5 96.667 61.5 128s92.5 47 154.5 47
c61.333 0 112.5 -15.667 153.5 -47s61.5 -74 61.5 -128c0 -36.667 -9.66699 -67.667 -29 -93s-45.333 -44 -78 -56c34 -6.66699 64 -23.334 90 -50.001s39 -60.334 39 -101.001c0 -54.667 -21.167 -98.167 -63.5 -130.5s-100.166 -48.5 -173.499 -48.5zM263.999 578
c-38.667 0 -70.167 -9.83301 -94.5 -29.5s-36.5 -48.834 -36.5 -87.501c0 -36 12.167 -63.667 36.5 -83s55.833 -29 94.5 -29c38 0 69.333 9.66699 94 29s37 47 37 83c0 38.667 -12.333 67.834 -37 87.501s-56 29.5 -94 29.5zM263.999 284
c-48 0 -84.833 -9.66699 -110.5 -29s-38.5 -47.333 -38.5 -84s12.833 -65.5 38.5 -86.5s62.5 -31.5 110.5 -31.5c47.333 0 83.833 10.5 109.5 31.5s38.5 49.833 38.5 86.5s-12.833 64.667 -38.5 84s-62.167 29 -109.5 29z" />
    <glyph glyph-name="nine" unicode="9" horiz-adv-x="548" 
d="M413 426c0 43.333 -13.8311 78.5 -41.498 105.5s-64.834 40.5 -111.501 40.5c-46 0 -82.167 -13.333 -108.5 -40s-39.5 -62 -39.5 -106s13.167 -79.5 39.5 -106.5s63.5 -40.5 111.5 -40.5c47.333 0 84.166 13.5 110.499 40.5s39.5 62.5 39.5 106.5zM256.002 57
c64 0 110.501 26.499 139.501 79.499s43.167 120.5 42.5 202.5c-10.667 -36 -32 -66.5 -64 -91.5s-73.333 -37.5 -124 -37.5c-67.333 0 -121 20 -161 60s-60 91 -60 153c0 64.667 20.833 117.334 62.5 158.001s97.5 61 167.5 61c83.333 0 146.833 -28.5 190.5 -85.5
s65.5 -133.5 65.5 -229.5c0 -98 -21.333 -179 -64 -243s-108 -96 -196 -96c-62 0 -112.833 17 -152.5 51s-62.167 80.333 -67.5 139l83 3c5.33301 -36.667 19.166 -66.5 41.499 -89.5s54.5 -34.5 96.5 -34.5z" />
    <glyph glyph-name="colon" unicode=":" horiz-adv-x="176" 
d="M38 0v100h100v-100h-100zM38 317v100h100v-100h-100z" />
    <glyph glyph-name="semicolon" unicode=";" horiz-adv-x="176" 
d="M38 0v100.002h100v-98c0 -34.667 -6.66699 -61.834 -20 -81.501s-40 -29.834 -80 -30.501v49c18.667 1.33301 31.167 6.33301 37.5 15s9.5 24 9.5 46h-47zM38 317.002v100h100v-100h-100z" />
    <glyph glyph-name="less" unicode="&#x3c;" horiz-adv-x="463" 
d="M40 265v90l390 208v-81l-326 -172l326 -172v-82z" />
    <glyph glyph-name="equal" unicode="=" horiz-adv-x="632" 
d="M60 357v68h512v-68h-512zM60 196v68h512v-68h-512z" />
    <glyph glyph-name="greater" unicode="&#x3e;" horiz-adv-x="463" 
d="M422 355v-90l-389 -209v82l325 172l-325 172v81z" />
    <glyph glyph-name="question" unicode="?" horiz-adv-x="488" 
d="M276 168l-77.999 0.000976562c0 28.667 5.5 53.5 16.5 74.5s29.833 42.167 56.5 63.5c23.333 18.667 45.666 38.667 66.999 60s32 50.333 32 87c0 32.667 -10.167 60.5 -30.5 83.5s-50.833 34.5 -91.5 34.5c-43.333 0 -76.666 -13 -99.999 -39s-35 -62 -35 -108
c0 -9.33301 0.5 -18.833 1.5 -28.5s2.83301 -19.167 5.5 -28.5l-86 4c-2 10 -3.5 20 -4.5 30s-1.5 19.667 -1.5 29c0 64 20 115.333 60 154s93.333 58 160 58c73.333 0 127 -18.667 161 -56s51 -81 51 -131c0 -43.333 -13.167 -79.833 -39.5 -109.5
s-57.166 -58.834 -92.499 -87.501c-18.667 -14.667 -31.834 -28.5 -39.501 -41.5s-11.834 -29.167 -12.501 -48.5zM184.001 0.000976562v100h100v-100h-100z" />
    <glyph glyph-name="at" unicode="@" horiz-adv-x="760" 
d="M555 89c32 0 59 14.8301 81 44.4971s33 76.5 33 140.5c0 69.333 -22.333 126.333 -67 171s-107.334 67 -188.001 67c-95.333 0 -172.166 -30.333 -230.499 -91s-87.5 -138.667 -87.5 -234c0 -85.333 27.833 -152.166 83.5 -200.499s123.5 -72.5 203.5 -72.5
c38 0 73.333 3.33301 106 10s66 18.334 100 35.001l22 -43c-33.333 -20 -69.166 -34.5 -107.499 -43.5s-78.833 -13.5 -121.5 -13.5c-97.333 0 -179.833 28.667 -247.5 86s-101.5 138.666 -101.5 243.999c0 106.667 34.833 196.334 104.5 269.001s161.834 109 276.501 109
c99.333 0 177.166 -27.833 233.499 -83.5s84.5 -125.5 84.5 -209.5c0 -81.333 -19.333 -141.666 -58 -180.999s-82 -59 -130 -59c-28 0 -50.167 6.83301 -66.5 20.5s-26.833 30.5 -31.5 50.5c-12 -21.333 -28.5 -38.5 -49.5 -51.5s-45.5 -19.5 -73.5 -19.5
c-38 0 -68.833 12.333 -92.5 37s-35.5 59 -35.5 103c0 53.333 16.5 103 49.5 149s78.5 69 136.5 69c27.333 0 50.666 -6 69.999 -18s32.333 -27 39 -45l15 55h74l-60 -237c-5.33301 -22 -4.5 -37.167 2.5 -45.5s18.167 -12.5 33.5 -12.5zM457 201.997l6 24.001
c7.33301 32.667 4.33301 59.334 -9 80.001s-34.333 31 -63 31c-36 0 -64.5 -17.333 -85.5 -52s-31.5 -71.334 -31.5 -110.001c0 -26.667 5.5 -46.834 16.5 -60.501s27.833 -20.5 50.5 -20.5c24 0 47 9 69 27s37.667 45 47 81z" />
    <glyph glyph-name="A" unicode="A" horiz-adv-x="638" 
d="M311 534l-112 -280h231l-115 280h-4zM534 0l-76 185h-287l-74 -185h-85l257 630h95l262 -630h-92z" />
    <glyph glyph-name="B" unicode="B" horiz-adv-x="591" 
d="M419 327c38 -6.66699 70.333 -22.832 97 -48.499s40 -60.834 40 -105.501c0 -54 -19.5 -96.333 -58.5 -127s-95.167 -46 -168.5 -46h-268v630h257c77.333 0 133.333 -15.5 168 -46.5s52 -71.5 52 -121.5c0 -36 -11.5 -66 -34.5 -90s-51.167 -39 -84.5 -45zM145 559.002
v-201h176c45.333 0 78.333 9 99 27s31 42.333 31 73c0 30 -10.333 54.333 -31 73s-53.667 28 -99 28h-176zM327 291.002h-182v-220h182c46.667 0 82.167 9.66699 106.5 29s36.5 46 36.5 80s-12.167 61 -36.5 81s-59.833 30 -106.5 30z" />
    <glyph glyph-name="C" unicode="C" horiz-adv-x="666" 
d="M32 315c0 96.667 29.833 175.334 89.5 236.001s132.834 91 219.501 91c89.333 0 159.166 -25.333 209.499 -76s78.5 -116.334 84.5 -197.001l-84 -4c-3.33301 58 -23 106.333 -59 145s-86.333 58 -151 58c-64 0 -116.667 -22.833 -158 -68.5s-62 -107.167 -62 -184.5
s20.667 -138.833 62 -184.5s94 -68.5 158 -68.5c64.667 0 115 19.333 151 58s55.667 87 59 145l84 -4c-6 -80.667 -34.167 -146.334 -84.5 -197.001s-120.166 -76 -209.499 -76c-86.667 0 -159.834 30.333 -219.501 91s-89.5 139.334 -89.5 236.001z" />
    <glyph glyph-name="D" unicode="D" horiz-adv-x="643" 
d="M61 0v630h228c98.667 0 177.167 -28 235.5 -84s87.5 -133 87.5 -231s-29.167 -175 -87.5 -231s-136.833 -84 -235.5 -84h-228zM148 71h136c76.667 0 135.5 21.667 176.5 65s61.5 103 61.5 179s-20.5 135.667 -61.5 179s-99.833 65 -176.5 65h-136v-488z" />
    <glyph glyph-name="E" unicode="E" horiz-adv-x="548" 
d="M510 72v-72h-449v630h440v-72h-356v-198h283v-71h-283v-217h365z" />
    <glyph glyph-name="F" unicode="F" horiz-adv-x="516" 
d="M147 0h-86v630h430v-72h-344v-209h270v-72h-270v-277z" />
    <glyph glyph-name="G" unicode="G" horiz-adv-x="688" 
d="M339 -12c-88.667 0 -161.997 30.167 -219.997 90.5s-87 139.166 -87 236.499c0 96.667 29.667 175.334 89 236.001s132.333 91 219 91c88.667 0 158.167 -23.333 208.5 -70s78.166 -110 83.499 -190l-83 -5c-3.33301 57.333 -23 103.5 -59 138.5s-85.667 52.5 -149 52.5
c-64 0 -116.667 -23 -158 -69s-62 -107.667 -62 -185s21.167 -138.833 63.5 -184.5s97.166 -68.5 164.499 -68.5c58.667 0 106.167 16.833 142.5 50.5s57.166 77.5 62.499 131.5h-192v68h271v-311h-79v112c-14 -40 -41.167 -70.667 -81.5 -92s-84.833 -32 -133.5 -32z" />
    <glyph glyph-name="H" unicode="H" horiz-adv-x="658" 
d="M148 0h-87v630h87v-270h362v270h87v-630h-87v289h-362v-289z" />
    <glyph glyph-name="I" unicode="I" horiz-adv-x="209" 
d="M61 630h87v-630h-87v630z" />
    <glyph glyph-name="J" unicode="J" horiz-adv-x="510" 
d="M372 630h86.002v-415c0 -75.333 -20 -132 -60 -170s-93.333 -57 -160 -57c-66 0 -119.5 19.5 -160.5 58.5s-62.833 95.833 -65.5 170.5l82 5c3.33301 -50.667 17.166 -90.5 41.499 -119.5s59.166 -43.5 104.499 -43.5c44 0 77 13.167 99 39.5s33 65.833 33 118.5v413z
" />
    <glyph glyph-name="K" unicode="K" horiz-adv-x="584" 
d="M586 0h-105l-260 299l-73 -74v-225h-87v630h87v-311l305 311h103l-271 -277z" />
    <glyph glyph-name="L" unicode="L" horiz-adv-x="524" 
d="M61 630h87v-558h351v-72h-438v630z" />
    <glyph glyph-name="M" unicode="M" horiz-adv-x="746" 
d="M410 0h-73l-191 542h-4v-542h-81v630h139l177 -513h3l168 513h137v-630h-87v542h-4z" />
    <glyph glyph-name="N" unicode="N" horiz-adv-x="638" 
d="M151 630l345 -482v482h81v-630h-69l-366 506v-506h-81v630h90z" />
    <glyph glyph-name="O" unicode="O" horiz-adv-x="689" 
d="M658 315c0 -96.667 -29.333 -175.334 -88 -236.001s-133.667 -91 -225 -91s-166.333 30.333 -225 91s-88 139.334 -88 236.001s29.333 175.334 88 236.001s133.667 91 225 91s166.333 -30.333 225 -91s88 -139.334 88 -236.001zM568 315c0 76.667 -20.333 138 -61 184
s-94.667 69 -162 69s-121.5 -23 -162.5 -69s-61.5 -107.333 -61.5 -184s20.5 -138 61.5 -184s95.167 -69 162.5 -69s121.333 23 162 69s61 107.333 61 184z" />
    <glyph glyph-name="P" unicode="P" horiz-adv-x="556" 
d="M147 235v-235h-86v630h229c77.333 0 137.5 -17.5 180.5 -52.5s64.5 -83.167 64.5 -144.5c0 -62 -21.5 -110.5 -64.5 -145.5s-103.167 -52.5 -180.5 -52.5h-143zM147 306h141c54.667 0 95.5 11 122.5 33s40.5 53.333 40.5 94c0 40 -13.5 71 -40.5 93s-67.833 33 -122.5 33
h-141v-253z" />
    <glyph glyph-name="Q" unicode="Q" horiz-adv-x="689" 
d="M589 -23l-60 65.999c-25.333 -17.333 -53.5 -30.833 -84.5 -40.5s-64.167 -14.5 -99.5 -14.5c-91.333 0 -166.333 30.333 -225 91s-88 139.334 -88 236.001s29.333 175.334 88 236.001s133.667 91 225 91s166.333 -30.333 225 -91s88 -139.334 88 -236.001
c0 -46 -7 -88.167 -21 -126.5s-33.667 -71.833 -59 -100.5l61 -68zM345 60.999c26.667 0 51.168 3.16602 73.501 9.49902s42.166 15.833 59.499 28.5l-73 80l51 44l68 -76c14.667 20.667 25.667 45.334 33 74.001s11 60 11 94c0 76.667 -20.333 138 -61 184
s-94.667 69 -162 69s-121.5 -23 -162.5 -69s-61.5 -107.333 -61.5 -184s20.5 -138.167 61.5 -184.5s95.167 -69.5 162.5 -69.5z" />
    <glyph glyph-name="R" unicode="R" horiz-adv-x="599" 
d="M146 323h166c53.333 0 92.5 10 117.5 30s37.5 49.333 37.5 88c0 36 -12.5 64.667 -37.5 86s-64.167 32 -117.5 32h-166v-236zM563 0l-89.999 -0.00195312c-6 8.66699 -11.167 24.5 -15.5 47.5s-7.83301 52.833 -10.5 89.5c-2 34.667 -12.333 62.834 -31 84.501
s-49.334 32.5 -92.001 32.5h-178v-254h-85v630h256c79.333 0 138.666 -17 177.999 -51s59 -79 59 -135c0 -48 -14.333 -85 -43 -111s-62 -41.333 -100 -46c38 -7.33301 66.833 -22.666 86.5 -45.999s30.834 -53.333 33.501 -90c4 -46 7.66699 -79.833 11 -101.5
s10.333 -38.167 21 -49.5z" />
    <glyph glyph-name="S" unicode="S" horiz-adv-x="561" 
d="M22 225l77.9951 4.99707c2.66699 -57.333 21.834 -100.666 57.501 -129.999s79.834 -44 132.501 -44c46.667 0 83.834 9.66699 111.501 29s41.5 46 41.5 80c0 28.667 -9.83301 50.834 -29.5 66.501s-49.834 27.5 -90.501 35.5l-125 24
c-46 8.66699 -83.667 26.334 -113 53.001s-44 64.334 -44 113.001c0 54.667 20.333 99.167 61 133.5s95.334 51.5 164.001 51.5c78.667 0 139.834 -20 183.501 -60s65.834 -95.333 66.501 -166l-79 -4c-1.33301 52 -17 92.167 -47 120.5s-71 42.5 -123 42.5
c-45.333 0 -80.333 -10.167 -105 -30.5s-37 -47.833 -37 -82.5c0 -30.667 10 -52.667 30 -66s48 -23.333 84 -30l114 -22c57.333 -10.667 100.5 -29.667 129.5 -57s43.5 -66 43.5 -116c0 -58 -22.5 -103 -67.5 -135s-101.167 -48 -168.5 -48
c-77.333 0 -141.333 20.667 -192 62s-76 99.666 -76 174.999z" />
    <glyph glyph-name="T" unicode="T" horiz-adv-x="590" 
d="M336 0h-86v558h-229v72h548v-72h-233v-558z" />
    <glyph glyph-name="U" unicode="U" horiz-adv-x="616" 
d="M308 -12c-70.667 0 -130.834 19.333 -180.501 58s-74.5 103.667 -74.5 195v389h86v-390c0 -60 14.5 -104.833 43.5 -134.5s70.833 -44.5 125.5 -44.5s96.834 14.833 126.501 44.5s44.5 74.167 44.5 133.5v391h85v-389c0 -91.333 -25 -156.333 -75 -195
s-110.333 -58 -181 -58z" />
    <glyph glyph-name="V" unicode="V" horiz-adv-x="625" 
d="M359 0h-94l-253 630h89l213 -530h4l207 530h88z" />
    <glyph glyph-name="W" unicode="W" horiz-adv-x="816" 
d="M450 630l140 -524h4l129 524h81l-161 -630h-101l-131 503h-4l-134 -503h-100l-161 630h84l132 -522h4l137 522h81z" />
    <glyph glyph-name="X" unicode="X" horiz-adv-x="608" 
d="M574 630l-222 -300l244 -330h-102l-194 261l-191 -261h-97l243 324l-222 306h102l171 -239l171 239h97z" />
    <glyph glyph-name="Y" unicode="Y" horiz-adv-x="598" 
d="M304 328l190 302h92l-245 -383v-247h-83v247l-246 383h95z" />
    <glyph glyph-name="Z" unicode="Z" horiz-adv-x="560" 
d="M140 72h390v-72h-500v61l380 497h-375v72h485v-64z" />
    <glyph glyph-name="bracketleft" unicode="[" horiz-adv-x="278" 
d="M144 597v-618h90v-63h-168v744h168v-63h-90z" />
    <glyph glyph-name="backslash" unicode="\" horiz-adv-x="317" 
d="M82 659l255 -742h-78l-256 742h79z" />
    <glyph glyph-name="bracketright" unicode="]" horiz-adv-x="278" 
d="M133 -21v618h-90v63h169v-744h-169v63h90z" />
    <glyph glyph-name="asciicircum" unicode="^" horiz-adv-x="377" 
d="M149 630h78l140 -202h-83l-96 140l-96 -140h-82z" />
    <glyph glyph-name="underscore" unicode="_" horiz-adv-x="381" 
d="M20 -120v65h341v-65h-341z" />
    <glyph glyph-name="grave" unicode="`" 
d="M327 504h-58l-97 126h101z" />
    <glyph glyph-name="a" unicode="a" horiz-adv-x="489" 
d="M329 195l-0.000976562 21l-98 -21c-34 -7.33301 -61.333 -16 -82 -26s-31 -28.333 -31 -55c0 -18.667 6.33301 -34.167 19 -46.5s31.334 -18.5 56.001 -18.5c38 0 70.167 13.333 96.5 40s39.5 62 39.5 106zM408.999 282l0.00195312 -196c0 -11.333 3 -19.833 9 -25.5
s14.333 -8.5 25 -8.5c4.66699 0 10.667 0.833008 18 2.5s14 4.16699 20 7.5v-45c-7.33301 -7.33301 -16.166 -13.5 -26.499 -18.5s-23.833 -7.5 -40.5 -7.5c-22.667 0 -41.334 7.83301 -56.001 23.5s-23.334 36.5 -26.001 62.5c-12 -25.333 -32.333 -46.5 -61 -63.5
s-60.667 -25.5 -96 -25.5c-42 0 -75.833 10.833 -101.5 32.5s-38.5 51.167 -38.5 88.5c0 41.333 16.333 72 49 92s75 35.333 127 46l118 24v17c0 30 -8.33301 53.667 -25 71s-40.334 26 -71.001 26c-31.333 0 -55.833 -8.33301 -73.5 -25s-29.834 -37.667 -36.501 -63
l-74 10c8.66699 40.667 28.834 74.5 60.501 101.5s73.167 40.5 124.5 40.5c54.667 0 97.5 -14 128.5 -42s46.5 -69.667 46.5 -125z" />
    <glyph glyph-name="b" unicode="b" horiz-adv-x="526" 
d="M138 91l-17.998 -91h-63v630h83v-285c9.33301 26.667 27.666 50.667 54.999 72s61.333 32 102 32c64 0 113.333 -22.5 148 -67.5s52 -99.5 52 -163.5s-17.333 -118.333 -52 -163s-84.334 -67 -149.001 -67c-40 0 -73.833 10.333 -101.5 31s-46.5 44.667 -56.5 72z
M138.002 231v-25c0 -48 13.5 -85.333 40.5 -112s60.167 -40 99.5 -40c42.667 0 75.5 14.833 98.5 44.5s34.5 69.5 34.5 119.5s-11.5 89.833 -34.5 119.5s-55.833 44.5 -98.5 44.5c-39.333 0 -72.5 -13.333 -99.5 -40s-40.5 -63.667 -40.5 -111z" />
    <glyph glyph-name="c" unicode="c" horiz-adv-x="487" 
d="M29 218c0 69.333 20.833 125.167 62.5 167.5s95.5 63.5 161.5 63.5c64 0 113.167 -18.833 147.5 -56.5s53.833 -82.5 58.5 -134.5l-73 -5c-3.33301 38 -16.5 69 -39.5 93s-54.5 36 -94.5 36c-40.667 0 -73.834 -14.833 -99.501 -44.5s-38.5 -69.5 -38.5 -119.5
s12.833 -89.833 38.5 -119.5s58.834 -44.5 99.501 -44.5c40 0 71.5 12.5 94.5 37.5s36.167 56.5 39.5 94.5l73 -7c-4.66699 -52.667 -24.167 -97.667 -58.5 -135s-83.5 -56 -147.5 -56c-66 0 -119.833 21 -161.5 63s-62.5 97.667 -62.5 167z" />
    <glyph glyph-name="d" unicode="d" horiz-adv-x="525" 
d="M387 206v25c0 47.333 -13.333 84.333 -40 111s-59.667 40 -99 40c-42.667 0 -75.667 -14.833 -99 -44.5s-35 -69.5 -35 -119.5s11.667 -89.833 35 -119.5s56.333 -44.5 99 -44.5c39.333 0 72.333 13.333 99 40s40 64 40 112zM386 0v91
c-10 -26.667 -28.5 -50.5 -55.5 -71.5s-60.833 -31.5 -101.5 -31.5c-64.667 0 -114.167 22.333 -148.5 67s-51.5 99 -51.5 163s17.167 118.5 51.5 163.5s83.833 67.5 148.5 67.5c40.667 0 74.5 -10.667 101.5 -32s45.5 -45.333 55.5 -72v285h83v-630h-83z" />
    <glyph glyph-name="e" unicode="e" horiz-adv-x="489" 
d="M389 155l69.0029 -8.00098c-10.667 -49.333 -33.834 -88.166 -69.501 -116.499s-80.5 -42.5 -134.5 -42.5c-64.667 0 -118.334 20.5 -161.001 61.5s-64 95.167 -64 162.5c0 68.667 21.167 125.334 63.5 170.001s94.833 67 157.5 67c69.333 0 121.666 -21.5 156.999 -64.5
s53 -94.167 53 -153.5v-33h-348c2 -42 16.667 -76.667 44 -104s60.333 -41 99 -41c36 0 65.167 8.66699 87.5 26s37.833 42.666 46.5 75.999zM114.003 251.999h260.997c-1.33301 34.667 -12.166 65.667 -32.499 93s-51.166 41 -92.499 41
c-39.333 0 -70.666 -13.333 -93.999 -40s-37.333 -58 -42 -94z" />
    <glyph glyph-name="f" unicode="f" horiz-adv-x="285" 
d="M74 377l-67 -0.000976562v60h67v51c0 46 12.667 83.167 38 111.5s61 42.5 107 42.5c37.333 0 67 -8.5 89 -25.5s38 -41.833 48 -74.5l-57 -20c-5.33301 16.667 -14.333 30.834 -27 42.501s-29 17.5 -49 17.5c-22.667 0 -39.5 -7.66699 -50.5 -23s-16.5 -36 -16.5 -62v-60
h123v-60h-123v-377h-82v377z" />
    <glyph glyph-name="g" unicode="g" horiz-adv-x="480" 
d="M333 299c0 30.667 -9 54.334 -27 71.001s-42.333 25 -73 25s-54.834 -8.33301 -72.501 -25s-26.5 -40.334 -26.5 -71.001c0 -30 8.83301 -53.167 26.5 -69.5s41.834 -24.5 72.501 -24.5s55 8.16699 73 24.5s27 39.5 27 69.5zM476 -29
c0 -54 -25.833 -92.665 -77.5 -115.998s-109.834 -35 -174.501 -35c-58.667 0 -109.334 9.66699 -152.001 29s-64 49 -64 89c0 24.667 8.33301 45 25 61s38.334 26.333 65.001 31c-20 6.66699 -34.667 16.667 -44 30s-14 28.333 -14 45c0 18.667 6.16699 35 18.5 49
s28.166 25.333 47.499 34c-18 12.667 -32 28.5 -42 47.5s-15 40.5 -15 64.5c0 46 17.167 82.333 51.5 109s78.166 40 131.499 40c28 0 53.833 -3.83301 77.5 -11.5s43.834 -18.834 60.501 -33.501c11.333 18 26.833 32.5 46.5 43.5s40.834 16.5 63.501 16.5v-72
c-14.667 0 -29.667 -1.66699 -45 -5s-28.333 -7.33301 -39 -12c6.66699 -10.667 11.834 -22.334 15.501 -35.001s5.5 -26 5.5 -40c0 -45.333 -17.333 -81.333 -52 -108s-79 -40 -133 -40c-18 0 -35 1.5 -51 4.5s-30.667 7.5 -44 13.5c-8 -4.66699 -15 -10.5 -21 -17.5
s-9 -15.5 -9 -25.5c0 -12 4.16699 -21.333 12.5 -28s21.833 -10 40.5 -10h171c47.333 0 83.333 -11.167 108 -33.5s37 -50.5 37 -84.5zM87 -45.998c0 -27.333 12.833 -47.332 38.5 -59.999s58.5 -19 98.5 -19c50 0 91.167 6.66699 123.5 20s48.5 35.666 48.5 66.999
c0 20 -7.66699 34 -23 42s-35.666 12 -60.999 12h-141c-22.667 0 -42.334 -4.5 -59.001 -13.5s-25 -25.167 -25 -48.5z" />
    <glyph glyph-name="h" unicode="h" horiz-adv-x="496" 
d="M140 251l-0.00195312 -251.001h-83v630h83v-271c10.667 26.667 29.334 48.334 56.001 65.001s56.334 25 89.001 25c56.667 0 97.5 -17 122.5 -51s37.5 -76.333 37.5 -127v-271h-83v264c0 36 -8.83301 64.833 -26.5 86.5s-43.5 32.5 -77.5 32.5
c-32.667 0 -60.5 -12 -83.5 -36s-34.5 -56 -34.5 -96z" />
    <glyph glyph-name="i" unicode="i" horiz-adv-x="196" 
d="M55 536v94h86v-94h-86zM57 437h83v-437h-83v437z" />
    <glyph glyph-name="j" unicode="j" horiz-adv-x="196" 
d="M55 536v94h86v-94h-86zM140 437l-0.000976562 -496.999c0 -38 -9.83301 -67.5 -29.5 -88.5s-48.834 -31.5 -87.501 -31.5c-18.667 0 -36.667 3.16699 -54 9.5s-31.666 13.833 -42.999 22.5l20 53c11.333 -7.33301 22.333 -12.833 33 -16.5s22.334 -5.5 35.001 -5.5
c14 0 24.667 4.16699 32 12.5s11 21.166 11 38.499v503h83z" />
    <glyph glyph-name="k" unicode="k" horiz-adv-x="479" 
d="M140 158v-158h-83v630h83v-391l220 198h104l-201 -179l210 -258h-98l-174 212z" />
    <glyph glyph-name="l" unicode="l" horiz-adv-x="196" 
d="M57 630h83v-630h-83v630z" />
    <glyph glyph-name="m" unicode="m" horiz-adv-x="775" 
d="M422 354c11.333 26.667 30.001 49.166 56.001 67.499s56.333 27.5 91 27.5c56.667 0 96.5 -17.333 119.5 -52s34.5 -76.667 34.5 -126v-271h-83v264c0 36 -7.83301 64.833 -23.5 86.5s-40.167 32.5 -73.5 32.5c-30.667 0 -57 -12 -79 -36s-33 -56 -33 -96v-251h-83v264
c0 36 -7.83301 64.833 -23.5 86.5s-40.167 32.5 -73.5 32.5c-30.667 0 -56.834 -12 -78.501 -36s-32.5 -56 -32.5 -96v-251h-83v437h83v-78c10.667 26.667 28.167 48.334 52.5 65.001s53.166 25 86.499 25c38.667 0 69.834 -8.66699 93.501 -26s40.167 -40.333 49.5 -69z
" />
    <glyph glyph-name="n" unicode="n" horiz-adv-x="496" 
d="M140 251l-0.00195312 -251.001h-83v437h83v-78c10.667 26.667 29.334 48.334 56.001 65.001s56.334 25 89.001 25c56.667 0 97.5 -17 122.5 -51s37.5 -76.333 37.5 -127v-271h-83v264c0 36 -8.83301 64.833 -26.5 86.5s-43.5 32.5 -77.5 32.5
c-32.667 0 -60.5 -12 -83.5 -36s-34.5 -56 -34.5 -96z" />
    <glyph glyph-name="o" unicode="o" horiz-adv-x="504" 
d="M475 218c0 -67.333 -21.333 -122.5 -64 -165.5s-96 -64.5 -160 -64.5s-117 21.5 -159 64.5s-63 98.167 -63 165.5s21 122.666 63 165.999s95 65 159 65s117.333 -21.667 160 -65s64 -98.666 64 -165.999zM114 218c0 -48 11.833 -87.667 35.5 -119s57.5 -47 101.5 -47
s78.167 15.667 102.5 47s36.5 71 36.5 119c0 48.667 -12.167 88.5 -36.5 119.5s-58.5 46.5 -102.5 46.5s-77.833 -15.5 -101.5 -46.5s-35.5 -70.833 -35.5 -119.5z" />
    <glyph glyph-name="p" unicode="p" horiz-adv-x="526" 
d="M138 231v-25c0 -48 13.5 -85.333 40.5 -112s60.167 -40 99.5 -40c42.667 0 75.5 14.833 98.5 44.5s34.5 69.5 34.5 119.5s-11.5 89.833 -34.5 119.5s-55.833 44.5 -98.5 44.5c-39.333 0 -72.5 -13.333 -99.5 -40s-40.5 -63.667 -40.5 -111zM140 91v-259h-83v605h83v-92
c9.33301 26.667 27.666 50.667 54.999 72s61.333 32 102 32c64 0 113.333 -22.5 148 -67.5s52 -99.5 52 -163.5s-17.333 -118.333 -52 -163s-84 -67 -148 -67c-40.667 0 -74.667 10.5 -102 31.5s-45.666 44.833 -54.999 71.5z" />
    <glyph glyph-name="q" unicode="q" horiz-adv-x="525" 
d="M386 -168v259c-10 -26.667 -28.5 -50.5 -55.5 -71.5s-60.833 -31.5 -101.5 -31.5c-64.667 0 -114.167 22.333 -148.5 67s-51.5 99 -51.5 163s17.167 118.5 51.5 163.5s83.833 67.5 148.5 67.5c40.667 0 74.5 -10.667 101.5 -32s45.5 -45.333 55.5 -72v92h83v-605h-83z
M387 206v25c0 47.333 -13.333 84.333 -40 111s-59.667 40 -99 40c-42.667 0 -75.667 -14.833 -99 -44.5s-35 -69.5 -35 -119.5s11.667 -89.833 35 -119.5s56.333 -44.5 99 -44.5c39.333 0 72.333 13.333 99 40s40 64 40 112z" />
    <glyph glyph-name="r" unicode="r" horiz-adv-x="331" 
d="M326 429l-7.99805 -75.001c-12 6.66699 -23 11.334 -33 14.001s-21.667 4 -35 4c-31.333 0 -57.5 -13 -78.5 -39s-31.5 -60 -31.5 -102v-231h-83v437h83v-89c8 24.667 22.833 47.667 44.5 69s48.167 32 79.5 32c13.333 0 25.166 -1.66699 35.499 -5
s19.166 -8.33301 26.499 -15z" />
    <glyph glyph-name="s" unicode="s" horiz-adv-x="433" 
d="M25 147l70 5c4 -33.333 17.333 -58.833 40 -76.5s52.667 -26.5 90 -26.5c28.667 0 52.667 5.33301 72 16s29 27 29 49c0 20.667 -7.16699 35.5 -21.5 44.5s-34.833 15.833 -61.5 20.5l-74 13c-40.667 6.66699 -72.667 19.5 -96 38.5s-35 47.167 -35 84.5
c0 40 15.5 72.333 46.5 97s71.5 37 121.5 37c58 0 103.5 -13.333 136.5 -40s51.5 -65 55.5 -115l-67 -4c-4.66699 33.333 -17.5 58 -38.5 74s-49.833 24 -86.5 24c-27.333 0 -49.333 -5.83301 -66 -17.5s-25 -27.5 -25 -47.5c0 -17.333 5.5 -30.833 16.5 -40.5
s27.833 -16.5 50.5 -20.5l82 -13c44 -7.33301 78.333 -20.5 103 -39.5s37 -48.167 37 -87.5c0 -43.333 -17.167 -76.5 -51.5 -99.5s-76.833 -34.5 -127.5 -34.5c-54 0 -99.833 13 -137.5 39s-58.5 66 -62.5 120z" />
    <glyph glyph-name="t" unicode="t" horiz-adv-x="306" 
d="M72 102l-0.000976562 274.999h-66v45l28 5c20.667 4 34.667 11.5 42 22.5s13.333 26.833 18 47.5l13 61h47v-121h123v-60h-123v-265c0 -19.333 4.33301 -33.666 13 -42.999s22.334 -14 41.001 -14c14 0 28 2.66699 42 8s27.333 11.333 40 18v-56
c-16 -12 -32.667 -21.167 -50 -27.5s-38 -9.5 -62 -9.5c-30.667 0 -56 8.5 -76 25.5s-30 46.5 -30 88.5z" />
    <glyph glyph-name="u" unicode="u" horiz-adv-x="491" 
d="M351 186l0.000976562 250.999h83v-437h-83v77c-10.667 -26 -29 -47.333 -55 -64s-55.333 -25 -88 -25c-56.667 0 -96.834 16.833 -120.501 50.5s-35.5 75.834 -35.5 126.501v272h83v-264c0 -36 8.33301 -65 25 -87s42 -33 76 -33c32.667 0 60 12.167 82 36.5
s33 56.5 33 96.5z" />
    <glyph glyph-name="v" unicode="v" horiz-adv-x="455" 
d="M268 0h-81l-180 437h87l136 -336h4l133 336h81z" />
    <glyph glyph-name="w" unicode="w" horiz-adv-x="642" 
d="M359 437l94 -331h4l101 331h77l-139 -437h-80l-93 326h-4l-92 -326h-80l-140 437h83l103 -331h4l92 331h70z" />
    <glyph glyph-name="x" unicode="x" horiz-adv-x="467" 
d="M438 437l-161 -208l182 -229h-96l-134 170l-132 -170h-90l179 225l-165 212h96l117 -151l115 151h89z" />
    <glyph glyph-name="y" unicode="y" horiz-adv-x="460" 
d="M201 -168h-81l71 169l-184 436h87l139 -336h4l134 336h82z" />
    <glyph glyph-name="z" unicode="z" horiz-adv-x="428" 
d="M287 373h-249v64h355v-57l-262 -316h268v-64h-369v57z" />
    <glyph glyph-name="braceleft" unicode="{" horiz-adv-x="293" 
d="M27 256v64.0029h25c20.667 0 33.667 5.33301 39 16s8 29.667 8 57v166c0 32.667 7.16699 57.667 21.5 75s37.5 26 69.5 26h59v-63h-40c-11.333 0 -19.333 -3.33301 -24 -10s-7 -15.667 -7 -27v-170c0 -28 -5 -50.833 -15 -68.5s-28.333 -28.834 -55 -33.501
c26.667 -4.66699 45 -15.834 55 -33.501s15 -40.834 15 -69.501v-169c0 -11.333 2.33301 -20.333 7 -27s12.667 -10 24 -10h40v-63h-59c-32 0 -55.167 8.66699 -69.5 26s-21.5 42.333 -21.5 75v166c0 27.333 -2.66699 46.333 -8 57s-18.333 16 -39 16h-25z" />
    <glyph glyph-name="bar" unicode="|" horiz-adv-x="197" 
d="M61 -83v742h75v-742h-75z" />
    <glyph glyph-name="braceright" unicode="}" horiz-adv-x="293" 
d="M266 320v-64.0029h-25c-20.667 0 -33.667 -5.33301 -39 -16s-8 -29.667 -8 -57v-166c0 -32.667 -7.16699 -57.667 -21.5 -75s-37.5 -26 -69.5 -26h-60v63h40c12 0 20.167 3.33301 24.5 10s6.5 15.667 6.5 27v169c0 28.667 5.16699 51.834 15.5 69.501
s28.833 28.834 55.5 33.501c-26.667 4.66699 -45.167 15.834 -55.5 33.501s-15.5 40.5 -15.5 68.5v170c0 11.333 -2.16699 20.333 -6.5 27s-12.5 10 -24.5 10h-40v63h60c32 0 55.167 -8.66699 69.5 -26s21.5 -42.333 21.5 -75v-166c0 -27.333 2.66699 -46.333 8 -57
s18.333 -16 39 -16h25z" />
    <glyph glyph-name="asciitilde" unicode="~" horiz-adv-x="392" 
d="M98 207h-51.001c0 36.667 7 66.334 21 89.001s35.333 34 64 34c26.667 0 49.167 -9.83301 67.5 -29.5s37.166 -29.5 56.499 -29.5c14 0 23.667 4.83301 29 14.5s8.33301 23.5 9 41.5h52c0 -36.667 -7 -66.334 -21 -89.001s-35.333 -34 -64 -34
c-27.333 0 -50.166 9.83301 -68.499 29.5s-37.166 29.5 -56.499 29.5c-14 0 -23.667 -4.83301 -29 -14.5s-8.33301 -23.5 -9 -41.5z" />
    <glyph glyph-name="exclamdown" unicode="&#xa1;" horiz-adv-x="191" 
d="M46 418v100h100v-100h-100zM140 -112h-89v176l25 289h40l24 -289v-176z" />
    <glyph glyph-name="cent" unicode="&#xa2;" 
d="M471 179c-3.33301 -48.667 -20.667 -91.001 -52 -127.001s-75.333 -57 -132 -63v-87h-56v87c-58 6 -106.167 29.667 -144.5 71s-57.5 94 -57.5 158s19.167 116.833 57.5 158.5s86.5 65.5 144.5 71.5v94h56v-94c56.667 -6 100.667 -27.167 132 -63.5
s48.666 -78.5 51.999 -126.5l-71 -5c-3.33301 34 -14.833 62.667 -34.5 86s-45.834 37.666 -78.501 42.999v-327c32.667 4.66699 58.834 18.334 78.501 41.001s31.834 52.334 36.501 89.001zM110.999 217.999c0 -45.333 11 -82.333 33 -111s51 -46 87 -52v327
c-36 -6 -65 -23.333 -87 -52s-33 -66 -33 -112z" />
    <glyph glyph-name="sterling" unicode="&#xa3;" horiz-adv-x="565" 
d="M407 -12c-36 0 -67.666 7.83496 -94.999 23.502s-51.666 32.834 -72.999 51.501c-11.333 -22.667 -27 -40.834 -47 -54.501s-44.333 -20.5 -73 -20.5c-29.333 0 -54.5 8.5 -75.5 25.5s-31.5 41.5 -31.5 73.5c0 28.667 10.167 52.5 30.5 71.5s46.833 28.5 79.5 28.5
c12.667 0 24.5 -1.66699 35.5 -5s21.833 -7.33301 32.5 -12c-0.666992 22.667 -3.83398 43.5 -9.50098 62.5s-12.5 37.167 -20.5 54.5h-102v57h76c-6.66699 15.333 -12.167 31.666 -16.5 48.999s-6.5 36.333 -6.5 57c0 56.667 17.333 102.834 52 138.501
s82.667 53.5 144 53.5c64 0 114.333 -18.5 151 -55.5s55 -88.167 55 -153.5l-76 -4c-0.666992 47.333 -12 83.166 -34 107.499s-53 36.5 -93 36.5s-69 -12 -87 -36s-27 -53.333 -27 -88c0 -18.667 2.16699 -36.667 6.5 -54s9.5 -34.333 15.5 -51h155v-57h-134
c6.66699 -17.333 12.167 -35.333 16.5 -54s6.5 -38.334 6.5 -59.001c0 -8.66699 -0.333008 -17 -1 -25s-1.66699 -15.667 -3 -23c21.333 -16 43.166 -30.833 65.499 -44.5s47.833 -20.5 76.5 -20.5c29.333 0 50 10.333 62 31s18 48.667 18 84l68 -3
c1.33301 -58 -10.5 -103.333 -35.5 -136s-60.167 -49 -105.5 -49zM120.001 42.002c18 0 32.168 5.83301 42.501 17.5s17.833 27.5 22.5 47.5c-10.667 8 -21.167 14.333 -31.5 19s-20.833 7 -31.5 7c-15.333 0 -27.5 -4 -36.5 -12s-13.5 -19.333 -13.5 -34
c0 -14 4.66699 -25 14 -33s20.666 -12 33.999 -12z" />
    <glyph glyph-name="yen" unicode="&#xa5;" horiz-adv-x="575" 
d="M500 137h-171v-137h-83v137h-171v59h171v71h-171v59h132l-199 304h95l189 -292l183 292h92l-199 -304h132v-59h-171v-71h171v-59z" />
    <glyph glyph-name="section" unicode="&#xa7;" horiz-adv-x="446" 
d="M291 168l0.5 -0.500977c0.333008 -0.333008 1.5 -0.833008 3.5 -1.5c16.667 6 30.334 14.5 41.001 25.5s16 25.833 16 44.5c0 20.667 -6.66699 37.167 -20 49.5s-31.666 23.833 -54.999 34.5l-123 59l-0.5 0.5c-0.333008 0.333008 -1.5 0.833008 -3.5 1.5
c-16.667 -6 -30.334 -14.5 -41.001 -25.5s-16 -25.833 -16 -44.5c0 -21.333 6.66699 -38.166 20 -50.499s31.666 -23.833 54.999 -34.5zM223 -96.001c-50.667 0 -93.5 13.3359 -128.5 40.0029s-54.5 65 -58.5 115l66 4c4.66699 -34 19 -59 43 -75s50.333 -24 79 -24
c25.333 0 47 5.66699 65 17s27 29 27 53c0 14.667 -3.33301 27.167 -10 37.5s-20.334 20.166 -41.001 29.499l-128 57c-36 16 -64.667 35.333 -86 58s-32 53 -32 91c0 23.333 6.83301 45 20.5 65s30.834 35.333 51.501 46c-11.333 10.667 -20.5 23.5 -27.5 38.5
s-10.5 32.833 -10.5 53.5c0 36.667 15.5 67.834 46.5 93.501s71.833 38.5 122.5 38.5s93.5 -13.333 128.5 -40s54.5 -65 58.5 -115l-66 -4c-4.66699 34 -19 59 -43 75s-50.333 24 -79 24c-26 0 -47.833 -5.66699 -65.5 -17s-26.5 -28.666 -26.5 -51.999
c0 -14.667 3.33301 -27.334 10 -38.001s20.334 -20.334 41.001 -29.001l128 -58c36 -16 64.667 -35.333 86 -58s32 -53 32 -91c0 -23.333 -6.83301 -44.833 -20.5 -64.5s-30.834 -35.167 -51.501 -46.5c11.333 -10.667 20.5 -23.334 27.5 -38.001s10.5 -32.334 10.5 -53.001
c0 -37.333 -15.5 -68.833 -46.5 -94.5s-71.833 -38.5 -122.5 -38.5z" />
    <glyph glyph-name="dieresis" unicode="&#xa8;" 
d="M278 528v94h81v-94h-81zM140 528v94h82v-94h-82z" />
    <glyph glyph-name="copyright" unicode="&#xa9;" horiz-adv-x="724" 
d="M35 315c0 94.667 32.167 172.834 96.5 234.501s141.166 92.5 230.499 92.5s166.166 -30.833 230.499 -92.5s96.5 -139.834 96.5 -234.501s-32.167 -172.834 -96.5 -234.501s-141.166 -92.5 -230.499 -92.5s-166.166 30.833 -230.499 92.5s-96.5 139.834 -96.5 234.501z
M82 315c0 -81.333 27.5 -148.5 82.5 -201.5s120.833 -79.5 197.5 -79.5s142.5 26.5 197.5 79.5s82.5 120.167 82.5 201.5s-27.5 148.5 -82.5 201.5s-120.833 79.5 -197.5 79.5s-142.5 -26.5 -197.5 -79.5s-82.5 -120.167 -82.5 -201.5zM173 314
c0 58.667 18.167 106.5 54.5 143.5s81.166 55.5 134.499 55.5c56 0 99.333 -15.667 130 -47s47.667 -71.333 51 -120l-64 -3c-2 31.333 -12.667 57.5 -32 78.5s-46.666 31.5 -81.999 31.5c-36 0 -64.833 -12.5 -86.5 -37.5s-32.5 -58.833 -32.5 -101.5
c0 -42 10.833 -75.333 32.5 -100s50.5 -37 86.5 -37c35.333 0 62.666 10.5 81.999 31.5s30 46.833 32 77.5l64 -4c-3.33301 -48.667 -20.333 -88.667 -51 -120s-74 -47 -130 -47c-53.333 0 -98.166 18.667 -134.499 56s-54.5 85 -54.5 143z" />
    <glyph glyph-name="ordfeminine" unicode="&#xaa;" horiz-adv-x="389" 
d="M253 444v16l-71 -15c-24.667 -5.33301 -44.167 -11.833 -58.5 -19.5s-21.5 -20.5 -21.5 -38.5c0 -13.333 4.5 -24.666 13.5 -33.999s22.5 -14 40.5 -14c27.333 0 50.333 9.66699 69 29s28 44.666 28 75.999zM326 513v-144.998c0 -8.66699 2.33301 -15.167 7 -19.5
s10.667 -6.5 18 -6.5c4.66699 0 9.66699 0.666992 15 2s10.333 3 15 5v-40c-6.66699 -6 -14.334 -11 -23.001 -15s-20 -6 -34 -6c-18.667 0 -34.167 6.16699 -46.5 18.5s-19.833 28.833 -22.5 49.5c-9.33301 -20 -24.666 -36.667 -45.999 -50s-46 -20 -74 -20
c-32.667 0 -58.667 8.33301 -78 25s-29 39.667 -29 69c0 32 12.167 55.667 36.5 71s56.5 26.666 96.5 33.999l92 18v14c0 20.667 -5.83301 37.167 -17.5 49.5s-28.5 18.5 -50.5 18.5c-22.667 0 -40.167 -5.83301 -52.5 -17.5s-20.833 -26.834 -25.5 -45.501l-68 8
c6 32.667 21.667 59.667 47 81s59 32 101 32c42.667 0 76.5 -10.667 101.5 -32s37.5 -54 37.5 -98z" />
    <glyph glyph-name="guillemotleft" unicode="&#xab;" horiz-adv-x="406" 
d="M46 185v66l150 129v-81l-93 -81l93 -80v-82zM210 185v66l150 129v-81l-93 -81l93 -80v-82z" />
    <glyph glyph-name="registered" unicode="&#xae;" horiz-adv-x="403" 
d="M379 463c0 -51.333 -17.5 -93.833 -52.5 -127.5s-76.833 -50.5 -125.5 -50.5c-48 0 -89.5 16.833 -124.5 50.5s-52.5 76.167 -52.5 127.5c0 52 17.5 94.833 52.5 128.5s76.5 50.5 124.5 50.5c48.667 0 90.5 -16.833 125.5 -50.5s52.5 -76.5 52.5 -128.5zM346 463
c0 43.333 -14.167 79 -42.5 107s-62.5 42 -102.5 42s-74.167 -14 -102.5 -42s-42.5 -63.667 -42.5 -107c0 -42.667 14.167 -78 42.5 -106s62.5 -42 102.5 -42s74.167 14 102.5 42s42.5 63.333 42.5 106zM168 470h38c12.667 0 22 2.33301 28 7s9 11.667 9 21
c0 8.66699 -3 15.5 -9 20.5s-15.333 7.5 -28 7.5h-38v-56zM288 372h-42.9971c-2 2.66699 -3.66699 7 -5 13s-2.33301 14 -3 24c-0.666992 10.667 -3.33398 18.167 -8.00098 22.5s-12.334 6.5 -23.001 6.5h-38v-66h-41v186h87c23.333 0 41 -5.16699 53 -15.5
s18 -24.166 18 -41.499c0 -13.333 -4 -24.333 -12 -33s-18 -13.334 -30 -14.001c10.667 -2 19 -6.16699 25 -12.5s9.33301 -14.833 10 -25.5c0.666992 -14 1.66699 -24 3 -30s3.66602 -10.667 6.99902 -14z" />
    <glyph glyph-name="macron" unicode="&#xaf;" 
d="M121 515v64h257v-64h-257z" />
    <glyph glyph-name="degree" unicode="&#xb0;" horiz-adv-x="339" 
d="M30 506c0 38 13.5 70.167 40.5 96.5s59.833 39.5 98.5 39.5c39.333 0 72.5 -13.167 99.5 -39.5s40.5 -58.5 40.5 -96.5s-13.5 -70.333 -40.5 -97s-60.167 -40 -99.5 -40c-38.667 0 -71.5 13.333 -98.5 40s-40.5 59 -40.5 97zM91 506
c0 -22.667 7.16699 -41.834 21.5 -57.501s33.166 -23.5 56.499 -23.5c24 0 43.167 7.83301 57.5 23.5s21.5 34.834 21.5 57.501c0 22 -7.16699 40.833 -21.5 56.5s-33.5 23.5 -57.5 23.5c-23.333 0 -42.166 -7.83301 -56.499 -23.5s-21.5 -34.5 -21.5 -56.5z" />
    <glyph glyph-name="plusminus" unicode="&#xb1;" horiz-adv-x="618" 
d="M565 350h-222v-187h-69v187h-221v69h221v187h69v-187h222v-69zM53 39v70h512v-70h-512z" />
    <glyph glyph-name="twosuperior" unicode="&#xb2;" horiz-adv-x="332" 
d="M130 300l184 -0.000976562v-60h-290v46l108 91c30.667 25.333 54.667 47.833 72 67.5s26 41.834 26 66.501c0 19.333 -5.33301 35.166 -16 47.499s-27 18.5 -49 18.5c-22.667 0 -40 -7 -52 -21s-18 -33.333 -18 -58c0 -6.66699 0.5 -12.667 1.5 -18
s1.83301 -10.666 2.5 -15.999l-70 3c-0.666992 6 -1.5 12 -2.5 18s-1.5 12 -1.5 18c0 40 13 72.167 39 96.5s60 36.5 102 36.5c46 0 80.333 -11.667 103 -35s34 -52 34 -86s-11 -63.833 -33 -89.5s-47.333 -50.167 -76 -73.5z" />
    <glyph glyph-name="threesuperior" unicode="&#xb3;" horiz-adv-x="339" 
d="M248 349c0 19.333 -7.16699 34.168 -21.5 44.501s-31.833 15.5 -52.5 15.5c-6.66699 0 -12.834 -0.166992 -18.501 -0.5s-10.834 -0.833008 -15.501 -1.5v54c4 -0.666992 8.83301 -1 14.5 -1h19.5c17.333 0 32.833 4.33301 46.5 13s20.5 23.667 20.5 45
c0 18.667 -5.83301 33.5 -17.5 44.5s-28.834 16.5 -51.501 16.5c-23.333 0 -41.666 -7.66699 -54.999 -23s-20 -36.333 -20 -63l-68 2c0 40 12.833 73.5 38.5 100.5s61.167 40.5 106.5 40.5c44 0 77.833 -10.333 101.5 -31s35.5 -47.667 35.5 -81c0 -24 -7.5 -44 -22.5 -60
s-31.833 -25.333 -50.5 -28c24.667 -3.33301 44.5 -13.333 59.5 -30s22.5 -37.334 22.5 -62.001c0 -34 -13.167 -61 -39.5 -81s-61.166 -30 -104.499 -30c-48 0 -85.667 12.5 -113 37.5s-41 58.833 -41 101.5l70 -2c0.666992 -26.667 8.66699 -46.667 24 -60
s35.333 -20 60 -20c20.667 0 37.834 5.16699 51.501 15.5s20.5 24.833 20.5 43.5z" />
    <glyph glyph-name="acute" unicode="&#xb4;" 
d="M230 504h-58l54 126h101z" />
    <glyph glyph-name="paragraph" unicode="&#xb6;" horiz-adv-x="502" 
d="M243 0v274c-71.333 0 -126.333 16 -165 48s-58 75.333 -58 130s19.333 98 58 130s93.667 48 165 48h197v-630h-65v566h-67v-566h-65z" />
    <glyph glyph-name="periodcentered" unicode="&#xb7;" horiz-adv-x="183" 
d="M41 205v100h100v-100h-100z" />
    <glyph glyph-name="cedilla" unicode="&#xb8;" horiz-adv-x="573" 
d="M397 -102c0 -26.667 -11.501 -45.501 -34.501 -56.501s-48.833 -16.5 -77.5 -16.5c-24 0 -45.667 4.16699 -65 12.5s-34.333 16.833 -45 25.5l17 32c10.667 -8 23.834 -15.333 39.501 -22s32.5 -10 50.5 -10c14.667 0 26.667 2.33301 36 7s14 12.334 14 23.001
c0 19.333 -10 29.5 -30 30.5s-38.333 -2.16699 -55 -9.5l-20 11l59 86h39l-42 -56c28 7.33301 54 6.5 78 -2.5s36 -27.167 36 -54.5z" />
    <glyph glyph-name="onesuperior" unicode="&#xb9;" horiz-adv-x="200" 
d="M8 525v45.999c27.333 0 47.833 4.83301 61.5 14.5s24.167 24.834 31.5 45.501h51v-391h-71v285h-73z" />
    <glyph glyph-name="ordmasculine" unicode="&#xba;" horiz-adv-x="398" 
d="M375 464c0 -52 -16.833 -94.667 -50.5 -128s-75.5 -50 -125.5 -50s-91.667 16.667 -125 50s-50 76 -50 128c0 52.667 16.667 95.667 50 129s75 50 125 50s91.833 -16.667 125.5 -50s50.5 -76.333 50.5 -129zM101 464c0 -35.333 8.33301 -64.166 25 -86.499
s41 -33.5 73 -33.5s56.5 11.167 73.5 33.5s25.5 51.166 25.5 86.499s-8.5 64.333 -25.5 87s-41.5 34 -73.5 34s-56.333 -11.333 -73 -34s-25 -51.667 -25 -87z" />
    <glyph glyph-name="guillemotright" unicode="&#xbb;" horiz-adv-x="406" 
d="M360 251v-66l-150 -129v82l93 80l-93 81v81zM196 251v-66l-150 -129v82l93 80l-93 81v81z" />
    <glyph glyph-name="onequarter" unicode="&#xbc;" horiz-adv-x="709" 
d="M27 527v46c26.667 0 47 4.66699 61 14s24.333 24.333 31 45h51v-390h-70v285h-73zM558 630l-406 -630h-68l406 630h68zM621 388v-235h60v-57h-60v-96h-70v96h-199v64l183 228h86zM551 326l-138 -173h138v173z" />
    <glyph glyph-name="onehalf" unicode="&#xbd;" horiz-adv-x="741" 
d="M27 527v46c26.667 0 47 4.66699 61 14s24.333 24.333 31 45h51v-390h-70v285h-73zM558 630l-406 -630h-68l406 630h68zM526 60h185v-60h-291v46l109 91c30.667 25.333 54.5 47.833 71.5 67.5s25.5 41.834 25.5 66.501c0 19.333 -5.16699 35.166 -15.5 47.499
s-26.833 18.5 -49.5 18.5s-40 -7.16699 -52 -21.5s-18 -33.5 -18 -57.5c0 -6.66699 0.5 -12.667 1.5 -18s2.16699 -11 3.5 -17l-70 4c-0.666992 6 -1.66699 12 -3 18s-2 12 -2 18c0 40 13.167 72.167 39.5 96.5s60.5 36.5 102.5 36.5c46 0 80.333 -11.667 103 -35
s34 -52 34 -86s-11 -63.833 -33 -89.5s-47.333 -50.167 -76 -73.5z" />
    <glyph glyph-name="threequarters" unicode="&#xbe;" horiz-adv-x="816" 
d="M665 630l-406 -630h-69l407 630h68zM728 388v-235h60v-57h-60v-96h-70v96h-199v64l183 228h86zM252 350c0 19.333 -7.16797 34.002 -21.501 44.002s-31.833 15 -52.5 15h-18.5c-5.66699 0 -10.834 -0.333008 -15.501 -1v54c3.33301 -0.666992 8 -1 14 -1h20
c17.333 0 32.833 4.33301 46.5 13s20.5 23.334 20.5 44.001c0 18.667 -5.83301 33.667 -17.5 45s-28.834 17 -51.501 17c-23.333 0 -41.666 -7.66699 -54.999 -23s-20 -36.333 -20 -63l-69 2c0 40 13 73.5 39 100.5s61.667 40.5 107 40.5c43.333 0 77 -10.333 101 -31
s36 -47.667 36 -81c0 -24.667 -7.5 -44.834 -22.5 -60.501s-31.833 -24.834 -50.5 -27.501c24.667 -3.33301 44.5 -13.333 59.5 -30s22.5 -37.334 22.5 -62.001c0 -34 -13.167 -61 -39.5 -81s-61.166 -30 -104.499 -30c-48 0 -85.667 12.5 -113 37.5s-41 58.833 -41 101.5
l70 -2c0.666992 -26.667 8.66699 -46.667 24 -60s35.333 -20 60 -20c20.667 0 37.834 5.16699 51.501 15.5s20.5 24.833 20.5 43.5zM657.999 326.002l-138 -173h138v173z" />
    <glyph glyph-name="questiondown" unicode="&#xbf;" horiz-adv-x="488" 
d="M304 518v-100h-100v100h100zM212 350l77.999 -0.000976562c0 -28.667 -5.5 -53.5 -16.5 -74.5s-29.833 -42.167 -56.5 -63.5c-23.333 -18.667 -45.666 -38.667 -66.999 -60s-32 -50.333 -32 -87c0 -32.667 10.167 -60.5 30.5 -83.5s50.833 -34.5 91.5 -34.5
c43.333 0 76.666 13 99.999 39s35 62 35 108c0 9.33301 -0.5 18.833 -1.5 28.5s-2.83301 19.167 -5.5 28.5l86 -4c2 -10 3.5 -20 4.5 -30s1.5 -19.667 1.5 -29c0 -64 -20 -115.333 -60 -154s-93.333 -58 -160 -58c-73.333 0 -127 18.667 -161 56s-51 81 -51 131
c0 43.333 13.167 79.833 39.5 109.5s57.166 58.834 92.499 87.501c18.667 14.667 31.834 28.5 39.501 41.5s11.834 29.167 12.501 48.5z" />
    <glyph glyph-name="Agrave" unicode="&#xc0;" horiz-adv-x="638" 
d="M311 534l-112 -280h231l-115 280h-4zM534 0l-76 185h-287l-74 -185h-85l257 630h95l262 -630h-92zM349 676h-58l-97 126h101z" />
    <glyph glyph-name="Aacute" unicode="&#xc1;" horiz-adv-x="638" 
d="M311 534l-112 -280h231l-115 280h-4zM534 0l-76 185h-287l-74 -185h-85l257 630h95l262 -630h-92zM340 676h-58l54 126h101z" />
    <glyph glyph-name="Acircumflex" unicode="&#xc2;" horiz-adv-x="638" 
d="M311 534l-112 -280h231l-115 280h-4zM534 0l-76 185h-287l-74 -185h-85l257 630h95l262 -630h-92zM263 802h96l80 -126h-60l-68 74l-68 -74h-60z" />
    <glyph glyph-name="Atilde" unicode="&#xc3;" horiz-adv-x="638" 
d="M311 534l-112 -280h231l-115 280h-4zM534 0l-76 185h-287l-74 -185h-85l257 630h95l262 -630h-92zM222 675h-50.001c0 36 7 65 21 87s34.667 33 62 33c26.667 0 49 -9.66699 67 -29s36.667 -29 56 -29c14 0 23.5 4.83301 28.5 14.5s7.83301 23.167 8.5 40.5h50
c0 -36 -6.83301 -65 -20.5 -87s-34.5 -33 -62.5 -33c-26.667 0 -49 9.66699 -67 29s-36.667 29 -56 29c-13.333 0 -22.666 -4.83301 -27.999 -14.5s-8.33301 -23.167 -9 -40.5z" />
    <glyph glyph-name="Adieresis" unicode="&#xc4;" horiz-adv-x="638" 
d="M311 534l-112 -280h231l-115 280h-4zM534 0l-76 185h-287l-74 -185h-85l257 630h95l262 -630h-92zM340 681v94h81v-94h-81zM202 681v94h82v-94h-82z" />
    <glyph glyph-name="Aring" unicode="&#xc5;" horiz-adv-x="638" 
d="M311 534l-112 -280h231l-115 280h-4zM534 0l-76 185h-287l-74 -185h-85l257 630h95l262 -630h-92zM223 744c0 23.333 8 43.166 24 59.499s37.333 24.5 64 24.5s48 -8.16699 64 -24.5s24 -36.166 24 -59.499c0 -24 -8 -44.167 -24 -60.5s-37.333 -24.5 -64 -24.5
s-48 8.16699 -64 24.5s-24 36.5 -24 60.5zM268 744c0 -12.667 3.66699 -23.167 11 -31.5s18 -12.5 32 -12.5s24.667 4.16699 32 12.5s11 18.833 11 31.5s-3.66699 23 -11 31s-18 12 -32 12s-24.667 -4 -32 -12s-11 -18.333 -11 -31z" />
    <glyph glyph-name="AE" unicode="&#xc6;" horiz-adv-x="979" 
d="M488 564l-208 -305h212v305h-4zM492 0v190h-259l-129 -190h-92l430 630h490v-72h-356v-198h283v-71h-283v-217h365v-72h-449z" />
    <glyph glyph-name="Ccedilla" unicode="&#xc7;" horiz-adv-x="666" 
d="M461 -102c0 -26.667 -11.501 -45.501 -34.501 -56.501s-48.833 -16.5 -77.5 -16.5c-24 0 -45.667 4.16699 -65 12.5s-34.333 16.833 -45 25.5l17 32c10.667 -8 23.834 -15.333 39.501 -22s32.5 -10 50.5 -10c14.667 0 26.667 2.33301 36 7s14 12.334 14 23.001
c0 19.333 -10 29.5 -30 30.5s-38.333 -2.16699 -55 -9.5l-20 11l43 63c-84 2 -155 32.333 -213 91c-59.333 60.667 -89 139.334 -89 236.001v0c0 96.667 29.833 175.334 89.5 236.001s132.834 91 219.501 91c89.333 0 159.166 -25.333 209.499 -76
s78.5 -116.334 84.5 -197.001l-84 -4c-3.33301 58 -23 106.333 -59 145s-86.333 58 -151 58c-64 0 -116.667 -22.833 -158 -68.5s-62 -107.167 -62 -184.5s20.667 -138.833 62 -184.5s94 -68.5 158 -68.5c64.667 0 115 19.333 151 58s55.667 87 59 145l84 -4
c-6 -80.667 -34.333 -146.334 -85 -197.001c-44 -44.667 -103.333 -69.667 -178 -75l-25 -34c28 7.33301 54 6.5 78 -2.5s36 -27.167 36 -54.5z" />
    <glyph glyph-name="Egrave" unicode="&#xc8;" horiz-adv-x="548" 
d="M325 676h-58l-97 126h101zM510 72v-72h-449v630h440v-72h-356v-198h283v-71h-283v-217h365z" />
    <glyph glyph-name="Eacute" unicode="&#xc9;" horiz-adv-x="548" 
d="M316 676h-58l54 126h101zM510 72v-72h-449v630h440v-72h-356v-198h283v-71h-283v-217h365z" />
    <glyph glyph-name="Ecircumflex" unicode="&#xca;" horiz-adv-x="548" 
d="M510 72v-72h-449v630h440v-72h-356v-198h283v-71h-283v-217h365zM239 802h96l80 -126h-60l-68 74l-68 -74h-60z" />
    <glyph glyph-name="Edieresis" unicode="&#xcb;" horiz-adv-x="548" 
d="M316 681v94h81v-94h-81zM178 681v94h82v-94h-82zM510 72v-72h-449v630h440v-72h-356v-198h283v-71h-283v-217h365z" />
    <glyph glyph-name="Igrave" unicode="&#xcc;" horiz-adv-x="209" 
d="M61 630h87v-630h-87v630zM142 676h-58l-97 126h101z" />
    <glyph glyph-name="Iacute" unicode="&#xcd;" horiz-adv-x="209" 
d="M61 630h87v-630h-87v630zM133 676h-58l54 126h101z" />
    <glyph glyph-name="Icircumflex" unicode="&#xce;" horiz-adv-x="209" 
d="M61 630h87v-630h-87v630zM56 802h96l80 -126h-60l-68 74l-68 -74h-60z" />
    <glyph glyph-name="Idieresis" unicode="&#xcf;" horiz-adv-x="209" 
d="M61 630h87v-630h-87v630zM133 681v94h81v-94h-81zM-5 681v94h82v-94h-82z" />
    <glyph glyph-name="Eth" unicode="&#xd0;" horiz-adv-x="662" 
d="M307 0h-228v289h-71v71h71v270h228c98.667 0 177.167 -28 235.5 -84s87.5 -133 87.5 -231s-29.167 -175 -87.5 -231s-136.833 -84 -235.5 -84zM166 71h136c76.667 0 135.5 21.667 176.5 65s61.5 103 61.5 179s-20.5 135.667 -61.5 179s-99.833 65 -176.5 65h-136v-199
h171v-71h-171v-218z" />
    <glyph glyph-name="Ntilde" unicode="&#xd1;" horiz-adv-x="638" 
d="M231 675h-50.001c0 36 7 65 21 87s34.667 33 62 33c26.667 0 49 -9.66699 67 -29s36.667 -29 56 -29c14 0 23.5 4.83301 28.5 14.5s7.83301 23.167 8.5 40.5h50c0 -36 -6.83301 -65 -20.5 -87s-34.5 -33 -62.5 -33c-26.667 0 -49 9.66699 -67 29s-36.667 29 -56 29
c-13.333 0 -22.666 -4.83301 -27.999 -14.5s-8.33301 -23.167 -9 -40.5zM150.999 630l345 -482v482h81v-630h-69l-366 506v-506h-81v630h90z" />
    <glyph glyph-name="Ograve" unicode="&#xd2;" horiz-adv-x="689" 
d="M382 676h-58l-97 126h101zM658 315c0 -96.667 -29.333 -175.334 -88 -236.001s-133.667 -91 -225 -91s-166.333 30.333 -225 91s-88 139.334 -88 236.001s29.333 175.334 88 236.001s133.667 91 225 91s166.333 -30.333 225 -91s88 -139.334 88 -236.001zM568 315
c0 76.667 -20.333 138 -61 184s-94.667 69 -162 69s-121.5 -23 -162.5 -69s-61.5 -107.333 -61.5 -184s20.5 -138 61.5 -184s95.167 -69 162.5 -69s121.333 23 162 69s61 107.333 61 184z" />
    <glyph glyph-name="Oacute" unicode="&#xd3;" horiz-adv-x="689" 
d="M373 676h-58l54 126h101zM658 315c0 -96.667 -29.333 -175.334 -88 -236.001s-133.667 -91 -225 -91s-166.333 30.333 -225 91s-88 139.334 -88 236.001s29.333 175.334 88 236.001s133.667 91 225 91s166.333 -30.333 225 -91s88 -139.334 88 -236.001zM568 315
c0 76.667 -20.333 138 -61 184s-94.667 69 -162 69s-121.5 -23 -162.5 -69s-61.5 -107.333 -61.5 -184s20.5 -138 61.5 -184s95.167 -69 162.5 -69s121.333 23 162 69s61 107.333 61 184z" />
    <glyph glyph-name="Ocircumflex" unicode="&#xd4;" horiz-adv-x="689" 
d="M658 315c0 -96.667 -29.333 -175.334 -88 -236.001s-133.667 -91 -225 -91s-166.333 30.333 -225 91s-88 139.334 -88 236.001s29.333 175.334 88 236.001s133.667 91 225 91s166.333 -30.333 225 -91s88 -139.334 88 -236.001zM568 315c0 76.667 -20.333 138 -61 184
s-94.667 69 -162 69s-121.5 -23 -162.5 -69s-61.5 -107.333 -61.5 -184s20.5 -138 61.5 -184s95.167 -69 162.5 -69s121.333 23 162 69s61 107.333 61 184zM297 802h96l80 -126h-60l-68 74l-68 -74h-60z" />
    <glyph glyph-name="Otilde" unicode="&#xd5;" horiz-adv-x="689" 
d="M248 675h-50.001c0 36 7 65 21 87s34.667 33 62 33c26.667 0 49 -9.66699 67 -29s36.667 -29 56 -29c14 0 23.5 4.83301 28.5 14.5s7.83301 23.167 8.5 40.5h50c0 -36 -6.83301 -65 -20.5 -87s-34.5 -33 -62.5 -33c-26.667 0 -49 9.66699 -67 29s-36.667 29 -56 29
c-13.333 0 -22.666 -4.83301 -27.999 -14.5s-8.33301 -23.167 -9 -40.5zM657.999 315c0 -96.667 -29.333 -175.334 -88 -236.001s-133.667 -91 -225 -91s-166.333 30.333 -225 91s-88 139.334 -88 236.001s29.333 175.334 88 236.001s133.667 91 225 91
s166.333 -30.333 225 -91s88 -139.334 88 -236.001zM567.999 315c0 76.667 -20.333 138 -61 184s-94.667 69 -162 69s-121.5 -23 -162.5 -69s-61.5 -107.333 -61.5 -184s20.5 -138 61.5 -184s95.167 -69 162.5 -69s121.333 23 162 69s61 107.333 61 184z" />
    <glyph glyph-name="Odieresis" unicode="&#xd6;" horiz-adv-x="689" 
d="M373 681v94h81v-94h-81zM235 681v94h82v-94h-82zM658 315c0 -96.667 -29.333 -175.334 -88 -236.001s-133.667 -91 -225 -91s-166.333 30.333 -225 91s-88 139.334 -88 236.001s29.333 175.334 88 236.001s133.667 91 225 91s166.333 -30.333 225 -91
s88 -139.334 88 -236.001zM568 315c0 76.667 -20.333 138 -61 184s-94.667 69 -162 69s-121.5 -23 -162.5 -69s-61.5 -107.333 -61.5 -184s20.5 -138 61.5 -184s95.167 -69 162.5 -69s121.333 23 162 69s61 107.333 61 184z" />
    <glyph glyph-name="multiply" unicode="&#xd7;" horiz-adv-x="529" 
d="M216 308l-161 162l49 49l159 -164l160 164l49 -49l-161 -162l161 -161l-49 -49l-160 163l-159 -163l-49 49z" />
    <glyph glyph-name="Oslash" unicode="&#xd8;" horiz-adv-x="689" 
d="M121 315c0 -34.667 4.33105 -66.499 12.998 -95.499s21.334 -54.167 38.001 -75.5l306 382c-17.333 13.333 -37.166 23.666 -59.499 30.999s-46.833 11 -73.5 11c-67.333 0 -121.5 -23 -162.5 -69s-61.5 -107.333 -61.5 -184zM344.998 62.001
c67.333 0 121.334 23 162.001 69s61 107.333 61 184c0 34 -4.16699 65.5 -12.5 94.5s-20.5 54.167 -36.5 75.5l-306 -382c17.333 -13.333 37.166 -23.5 59.499 -30.5s46.5 -10.5 72.5 -10.5zM344.999 -11.999c-34.667 0 -67.3311 4.66699 -97.998 14
s-58.334 22.333 -83.001 39l-60 -74l-46 35l62 77c-28 28.667 -49.667 63.167 -65 103.5s-23 84.5 -23 132.5c0 96.667 29.333 175.334 88 236.001s133.667 91 225 91c34.667 0 67.5 -4.83301 98.5 -14.5s59.167 -23.167 84.5 -40.5l53 67l46 -35l-56 -69
c27.333 -28.667 48.666 -63 63.999 -103s23 -84 23 -132c0 -96.667 -29.333 -175.334 -88 -236.001s-133.667 -91 -225 -91z" />
    <glyph glyph-name="Ugrave" unicode="&#xd9;" horiz-adv-x="616" 
d="M346 676h-58l-97 126h101zM308 -12c-70.667 0 -130.834 19.333 -180.501 58s-74.5 103.667 -74.5 195v389h86v-390c0 -60 14.5 -104.833 43.5 -134.5s70.833 -44.5 125.5 -44.5s96.834 14.833 126.501 44.5s44.5 74.167 44.5 133.5v391h85v-389
c0 -91.333 -25 -156.333 -75 -195s-110.333 -58 -181 -58z" />
    <glyph glyph-name="Uacute" unicode="&#xda;" horiz-adv-x="616" 
d="M337 676h-58l54 126h101zM308 -12c-70.667 0 -130.834 19.333 -180.501 58s-74.5 103.667 -74.5 195v389h86v-390c0 -60 14.5 -104.833 43.5 -134.5s70.833 -44.5 125.5 -44.5s96.834 14.833 126.501 44.5s44.5 74.167 44.5 133.5v391h85v-389
c0 -91.333 -25 -156.333 -75 -195s-110.333 -58 -181 -58z" />
    <glyph glyph-name="Ucircumflex" unicode="&#xdb;" horiz-adv-x="616" 
d="M308 -12c-70.667 0 -130.834 19.333 -180.501 58s-74.5 103.667 -74.5 195v389h86v-390c0 -60 14.5 -104.833 43.5 -134.5s70.833 -44.5 125.5 -44.5s96.834 14.833 126.501 44.5s44.5 74.167 44.5 133.5v391h85v-389c0 -91.333 -25 -156.333 -75 -195
s-110.333 -58 -181 -58zM260 802h96l80 -126h-60l-68 74l-68 -74h-60z" />
    <glyph glyph-name="Udieresis" unicode="&#xdc;" horiz-adv-x="616" 
d="M337 681v94h81v-94h-81zM199 681v94h82v-94h-82zM308 -12c-70.667 0 -130.834 19.333 -180.501 58s-74.5 103.667 -74.5 195v389h86v-390c0 -60 14.5 -104.833 43.5 -134.5s70.833 -44.5 125.5 -44.5s96.834 14.833 126.501 44.5s44.5 74.167 44.5 133.5v391h85v-389
c0 -91.333 -25 -156.333 -75 -195s-110.333 -58 -181 -58z" />
    <glyph glyph-name="Yacute" unicode="&#xdd;" horiz-adv-x="598" 
d="M304 328l190 302h92l-245 -383v-247h-83v247l-246 383h95zM328 676h-58l54 126h101z" />
    <glyph glyph-name="Thorn" unicode="&#xde;" horiz-adv-x="548" 
d="M147 129v-129h-86v630h86v-107h135c77.333 0 137.5 -17.5 180.5 -52.5s64.5 -83.167 64.5 -144.5c0 -62 -21.5 -110.333 -64.5 -145s-103.167 -52 -180.5 -52h-135zM147 200h133c54.667 0 95.5 11 122.5 33s40.5 53 40.5 93s-13.5 71 -40.5 93s-67.833 33 -122.5 33h-133
v-252z" />
    <glyph glyph-name="germandbls" unicode="&#xdf;" horiz-adv-x="486" 
d="M422 486c0 -38 -9.83398 -68.166 -29.501 -90.499s-42.834 -36.5 -69.501 -42.5c41.333 -6.66699 74.166 -25.167 98.499 -55.5s36.5 -67.5 36.5 -111.5c0 -62 -18.667 -109.167 -56 -141.5s-80.666 -48.5 -129.999 -48.5c-15.333 0 -28 1.33301 -38 4l-29 8v64
c9.33301 -2.66699 18.833 -5.16699 28.5 -7.5s18.834 -3.5 27.501 -3.5c32.667 0 60.334 10.667 83.001 32s34 53.666 34 96.999c0 38.667 -12 69.5 -36 92.5s-56 34.167 -96 33.5h-21c-4.66699 0 -11 -0.333008 -19 -1v67c6 -0.666992 11.667 -1.16699 17 -1.5
s12.333 -0.5 21 -0.5c32.667 0 57.334 9 74.001 27s25 43.333 25 76c0 27.333 -8.16699 50.333 -24.5 69s-40.833 28 -73.5 28c-34.667 0 -60.834 -12.167 -78.501 -36.5s-26.5 -58.5 -26.5 -102.5v-441h-83v445c0 56.667 16.333 103.667 49 141s79 56 139 56
c54 0 97 -14 129 -42s48 -66 48 -114z" />
    <glyph glyph-name="agrave" unicode="&#xe0;" horiz-adv-x="489" 
d="M329 195l-0.000976562 21l-98 -21c-34 -7.33301 -61.333 -16 -82 -26s-31 -28.333 -31 -55c0 -18.667 6.33301 -34.167 19 -46.5s31.334 -18.5 56.001 -18.5c38 0 70.167 13.333 96.5 40s39.5 62 39.5 106zM408.999 282l0.00195312 -196c0 -11.333 3 -19.833 9 -25.5
s14.333 -8.5 25 -8.5c4.66699 0 10.667 0.833008 18 2.5s14 4.16699 20 7.5v-45c-7.33301 -7.33301 -16.166 -13.5 -26.499 -18.5s-23.833 -7.5 -40.5 -7.5c-22.667 0 -41.334 7.83301 -56.001 23.5s-23.334 36.5 -26.001 62.5c-12 -25.333 -32.333 -46.5 -61 -63.5
s-60.667 -25.5 -96 -25.5c-42 0 -75.833 10.833 -101.5 32.5s-38.5 51.167 -38.5 88.5c0 41.333 16.333 72 49 92s75 35.333 127 46l118 24v17c0 30 -8.33301 53.667 -25 71s-40.334 26 -71.001 26c-31.333 0 -55.833 -8.33301 -73.5 -25s-29.834 -37.667 -36.501 -63
l-74 10c8.66699 40.667 28.834 74.5 60.501 101.5s73.167 40.5 124.5 40.5c54.667 0 97.5 -14 128.5 -42s46.5 -69.667 46.5 -125zM276.001 504h-58l-97 126h101z" />
    <glyph glyph-name="aacute" unicode="&#xe1;" horiz-adv-x="489" 
d="M329 195l-0.000976562 21l-98 -21c-34 -7.33301 -61.333 -16 -82 -26s-31 -28.333 -31 -55c0 -18.667 6.33301 -34.167 19 -46.5s31.334 -18.5 56.001 -18.5c38 0 70.167 13.333 96.5 40s39.5 62 39.5 106zM408.999 282l0.00195312 -196c0 -11.333 3 -19.833 9 -25.5
s14.333 -8.5 25 -8.5c4.66699 0 10.667 0.833008 18 2.5s14 4.16699 20 7.5v-45c-7.33301 -7.33301 -16.166 -13.5 -26.499 -18.5s-23.833 -7.5 -40.5 -7.5c-22.667 0 -41.334 7.83301 -56.001 23.5s-23.334 36.5 -26.001 62.5c-12 -25.333 -32.333 -46.5 -61 -63.5
s-60.667 -25.5 -96 -25.5c-42 0 -75.833 10.833 -101.5 32.5s-38.5 51.167 -38.5 88.5c0 41.333 16.333 72 49 92s75 35.333 127 46l118 24v17c0 30 -8.33301 53.667 -25 71s-40.334 26 -71.001 26c-31.333 0 -55.833 -8.33301 -73.5 -25s-29.834 -37.667 -36.501 -63
l-74 10c8.66699 40.667 28.834 74.5 60.501 101.5s73.167 40.5 124.5 40.5c54.667 0 97.5 -14 128.5 -42s46.5 -69.667 46.5 -125zM270.001 504h-58l54 126h101z" />
    <glyph glyph-name="acircumflex" unicode="&#xe2;" horiz-adv-x="489" 
d="M329 195l-0.000976562 21l-98 -21c-34 -7.33301 -61.333 -16 -82 -26s-31 -28.333 -31 -55c0 -18.667 6.33301 -34.167 19 -46.5s31.334 -18.5 56.001 -18.5c38 0 70.167 13.333 96.5 40s39.5 62 39.5 106zM408.999 282l0.00195312 -196c0 -11.333 3 -19.833 9 -25.5
s14.333 -8.5 25 -8.5c4.66699 0 10.667 0.833008 18 2.5s14 4.16699 20 7.5v-45c-7.33301 -7.33301 -16.166 -13.5 -26.499 -18.5s-23.833 -7.5 -40.5 -7.5c-22.667 0 -41.334 7.83301 -56.001 23.5s-23.334 36.5 -26.001 62.5c-12 -25.333 -32.333 -46.5 -61 -63.5
s-60.667 -25.5 -96 -25.5c-42 0 -75.833 10.833 -101.5 32.5s-38.5 51.167 -38.5 88.5c0 41.333 16.333 72 49 92s75 35.333 127 46l118 24v17c0 30 -8.33301 53.667 -25 71s-40.334 26 -71.001 26c-31.333 0 -55.833 -8.33301 -73.5 -25s-29.834 -37.667 -36.501 -63
l-74 10c8.66699 40.667 28.834 74.5 60.501 101.5s73.167 40.5 124.5 40.5c54.667 0 97.5 -14 128.5 -42s46.5 -69.667 46.5 -125zM191.001 630h96l80 -126h-60l-68 74l-68 -74h-60z" />
    <glyph glyph-name="atilde" unicode="&#xe3;" horiz-adv-x="489" 
d="M329 195l-0.000976562 21l-98 -21c-34 -7.33301 -61.333 -16 -82 -26s-31 -28.333 -31 -55c0 -18.667 6.33301 -34.167 19 -46.5s31.334 -18.5 56.001 -18.5c38 0 70.167 13.333 96.5 40s39.5 62 39.5 106zM408.999 282l0.00195312 -196c0 -11.333 3 -19.833 9 -25.5
s14.333 -8.5 25 -8.5c4.66699 0 10.667 0.833008 18 2.5s14 4.16699 20 7.5v-45c-7.33301 -7.33301 -16.166 -13.5 -26.499 -18.5s-23.833 -7.5 -40.5 -7.5c-22.667 0 -41.334 7.83301 -56.001 23.5s-23.334 36.5 -26.001 62.5c-12 -25.333 -32.333 -46.5 -61 -63.5
s-60.667 -25.5 -96 -25.5c-42 0 -75.833 10.833 -101.5 32.5s-38.5 51.167 -38.5 88.5c0 41.333 16.333 72 49 92s75 35.333 127 46l118 24v17c0 30 -8.33301 53.667 -25 71s-40.334 26 -71.001 26c-31.333 0 -55.833 -8.33301 -73.5 -25s-29.834 -37.667 -36.501 -63
l-74 10c8.66699 40.667 28.834 74.5 60.501 101.5s73.167 40.5 124.5 40.5c54.667 0 97.5 -14 128.5 -42s46.5 -69.667 46.5 -125zM146.001 506h-50.001c0 36 7 65 21 87s34.667 33 62 33c26.667 0 49 -9.66699 67 -29s36.667 -29 56 -29c14 0 23.5 4.83301 28.5 14.5
s7.83301 23.167 8.5 40.5h50c0 -36 -6.83301 -65 -20.5 -87s-34.5 -33 -62.5 -33c-26.667 0 -49 9.66699 -67 29s-36.667 29 -56 29c-13.333 0 -22.666 -4.83301 -27.999 -14.5s-8.33301 -23.167 -9 -40.5z" />
    <glyph glyph-name="adieresis" unicode="&#xe4;" horiz-adv-x="489" 
d="M329 195l-0.000976562 21l-98 -21c-34 -7.33301 -61.333 -16 -82 -26s-31 -28.333 -31 -55c0 -18.667 6.33301 -34.167 19 -46.5s31.334 -18.5 56.001 -18.5c38 0 70.167 13.333 96.5 40s39.5 62 39.5 106zM408.999 282l0.00195312 -196c0 -11.333 3 -19.833 9 -25.5
s14.333 -8.5 25 -8.5c4.66699 0 10.667 0.833008 18 2.5s14 4.16699 20 7.5v-45c-7.33301 -7.33301 -16.166 -13.5 -26.499 -18.5s-23.833 -7.5 -40.5 -7.5c-22.667 0 -41.334 7.83301 -56.001 23.5s-23.334 36.5 -26.001 62.5c-12 -25.333 -32.333 -46.5 -61 -63.5
s-60.667 -25.5 -96 -25.5c-42 0 -75.833 10.833 -101.5 32.5s-38.5 51.167 -38.5 88.5c0 41.333 16.333 72 49 92s75 35.333 127 46l118 24v17c0 30 -8.33301 53.667 -25 71s-40.334 26 -71.001 26c-31.333 0 -55.833 -8.33301 -73.5 -25s-29.834 -37.667 -36.501 -63
l-74 10c8.66699 40.667 28.834 74.5 60.501 101.5s73.167 40.5 124.5 40.5c54.667 0 97.5 -14 128.5 -42s46.5 -69.667 46.5 -125zM268.001 528v94h81v-94h-81zM130.001 528v94h82v-94h-82z" />
    <glyph glyph-name="aring" unicode="&#xe5;" horiz-adv-x="489" 
d="M329 195l-0.000976562 21l-98 -21c-34 -7.33301 -61.333 -16 -82 -26s-31 -28.333 -31 -55c0 -18.667 6.33301 -34.167 19 -46.5s31.334 -18.5 56.001 -18.5c38 0 70.167 13.333 96.5 40s39.5 62 39.5 106zM408.999 282l0.00195312 -196c0 -11.333 3 -19.833 9 -25.5
s14.333 -8.5 25 -8.5c4.66699 0 10.667 0.833008 18 2.5s14 4.16699 20 7.5v-45c-7.33301 -7.33301 -16.166 -13.5 -26.499 -18.5s-23.833 -7.5 -40.5 -7.5c-22.667 0 -41.334 7.83301 -56.001 23.5s-23.334 36.5 -26.001 62.5c-12 -25.333 -32.333 -46.5 -61 -63.5
s-60.667 -25.5 -96 -25.5c-42 0 -75.833 10.833 -101.5 32.5s-38.5 51.167 -38.5 88.5c0 41.333 16.333 72 49 92s75 35.333 127 46l118 24v17c0 30 -8.33301 53.667 -25 71s-40.334 26 -71.001 26c-31.333 0 -55.833 -8.33301 -73.5 -25s-29.834 -37.667 -36.501 -63
l-74 10c8.66699 40.667 28.834 74.5 60.501 101.5s73.167 40.5 124.5 40.5c54.667 0 97.5 -14 128.5 -42s46.5 -69.667 46.5 -125zM151.001 572c0 23.333 8 43.166 24 59.499s37.333 24.5 64 24.5s48 -8.16699 64 -24.5s24 -36.166 24 -59.499c0 -24 -8 -44.167 -24 -60.5
s-37.333 -24.5 -64 -24.5s-48 8.16699 -64 24.5s-24 36.5 -24 60.5zM196.001 572c0 -12.667 3.66699 -23.167 11 -31.5s18 -12.5 32 -12.5s24.667 4.16699 32 12.5s11 18.833 11 31.5s-3.66699 23 -11 31s-18 12 -32 12s-24.667 -4 -32 -12s-11 -18.333 -11 -31z" />
    <glyph glyph-name="ae" unicode="&#xe6;" horiz-adv-x="775" 
d="M231 449c36 0 66.334 -6.66699 91.001 -20s43 -32.666 55 -57.999c18 23.333 41 42.166 69 56.499s58.333 21.5 91 21.5c69.333 0 121.5 -21.5 156.5 -64.5s52.5 -94.167 52.5 -153.5v-33h-348c2.66699 -46 18.167 -81.667 46.5 -107s60.833 -38 97.5 -38
c36 0 65.167 8.66699 87.5 26s37.833 43 46.5 77l69 -8c-10.667 -50 -33.834 -89.167 -69.501 -117.5s-80.5 -42.5 -134.5 -42.5c-42 0 -78.333 9 -109 27s-55 42.667 -73 74c-12.667 -26 -33.667 -49.333 -63 -70s-66 -31 -110 -31c-48 0 -85.167 11.167 -111.5 33.5
s-39.5 52.166 -39.5 89.499c0 42.667 17.5 76.834 52.5 102.501s92.5 38.5 172.5 38.5h72v29c0 33.333 -8.83301 59 -26.5 77s-41.834 27 -72.501 27c-31.333 0 -56.166 -8.33301 -74.499 -25s-30.833 -37.334 -37.5 -62.001l-71 10c8 40.667 28.167 74.334 60.5 101.001
s72.5 40 120.5 40zM537.001 386c-35.333 0 -65.5 -12.333 -90.5 -37s-40.5 -57 -46.5 -97h262c-2 34.667 -13.167 65.667 -33.5 93s-50.833 41 -91.5 41zM195.001 48c35.333 0 67 11.667 95 35s42 57 42 101v14h-69c-56 0 -94.167 -7 -114.5 -21s-30.5 -34.333 -30.5 -61
c0 -18.667 6.33301 -34.667 19 -48s32 -20 58 -20z" />
    <glyph glyph-name="ccedilla" unicode="&#xe7;" horiz-adv-x="487" 
d="M358 -102c0 -26.667 -11.5 -45.5 -34.5 -56.5s-48.833 -16.5 -77.5 -16.5c-24 0 -45.667 4.16699 -65 12.5s-34.333 16.833 -45 25.5l17 32c10.667 -8 23.834 -15.333 39.501 -22s32.5 -10 50.5 -10c14.667 0 26.667 2.33301 36 7s14 12.334 14 23.001
c0 19.333 -10 29.5 -30 30.5s-38.333 -2.16699 -55 -9.5l-20 11l43 64c-56 4 -102.667 24.667 -140 62c-41.333 42 -62 97.667 -62 167v0c0 69.333 20.833 125.166 62.5 167.499s95.5 63.5 161.5 63.5c64 0 113.167 -18.833 147.5 -56.5s53.833 -82.5 58.5 -134.5l-73 -5
c-3.33301 38 -16.5 69 -39.5 93s-54.5 36 -94.5 36c-40.667 0 -73.834 -14.833 -99.501 -44.5s-38.5 -69.5 -38.5 -119.5s12.833 -89.833 38.5 -119.5s58.834 -44.5 99.501 -44.5c40 0 71.5 12.5 94.5 37.5s36.167 56.5 39.5 94.5l73 -7
c-4.66699 -52.667 -24.334 -97.667 -59.001 -135c-31.333 -34 -75 -52.333 -131 -55l-25 -34c28 7.33301 54 6.5 78 -2.5s36 -27.167 36 -54.5z" />
    <glyph glyph-name="egrave" unicode="&#xe8;" horiz-adv-x="489" 
d="M389 155l69.0029 -8.00098c-10.667 -49.333 -33.834 -88.166 -69.501 -116.499s-80.5 -42.5 -134.5 -42.5c-64.667 0 -118.334 20.5 -161.001 61.5s-64 95.167 -64 162.5c0 68.667 21.167 125.334 63.5 170.001s94.833 67 157.5 67c69.333 0 121.666 -21.5 156.999 -64.5
s53 -94.167 53 -153.5v-33h-348c2 -42 16.667 -76.667 44 -104s60.333 -41 99 -41c36 0 65.167 8.66699 87.5 26s37.833 42.666 46.5 75.999zM114.003 251.999h260.997c-1.33301 34.667 -12.166 65.667 -32.499 93s-51.166 41 -92.499 41
c-39.333 0 -70.666 -13.333 -93.999 -40s-37.333 -58 -42 -94zM289 503.999h-58l-97 126h101z" />
    <glyph glyph-name="eacute" unicode="&#xe9;" horiz-adv-x="489" 
d="M276 504h-58l54 126h101zM389 155l69.0029 -8.00098c-10.667 -49.333 -33.834 -88.166 -69.501 -116.499s-80.5 -42.5 -134.5 -42.5c-64.667 0 -118.334 20.5 -161.001 61.5s-64 95.167 -64 162.5c0 68.667 21.167 125.334 63.5 170.001s94.833 67 157.5 67
c69.333 0 121.666 -21.5 156.999 -64.5s53 -94.167 53 -153.5v-33h-348c2 -42 16.667 -76.667 44 -104s60.333 -41 99 -41c36 0 65.167 8.66699 87.5 26s37.833 42.666 46.5 75.999zM114.003 251.999h260.997c-1.33301 34.667 -12.166 65.667 -32.499 93
s-51.166 41 -92.499 41c-39.333 0 -70.666 -13.333 -93.999 -40s-37.333 -58 -42 -94z" />
    <glyph glyph-name="ecircumflex" unicode="&#xea;" horiz-adv-x="489" 
d="M203 630h96l80 -126h-60l-68 74l-68 -74h-60zM389 155l69.0029 -8.00098c-10.667 -49.333 -33.834 -88.166 -69.501 -116.499s-80.5 -42.5 -134.5 -42.5c-64.667 0 -118.334 20.5 -161.001 61.5s-64 95.167 -64 162.5c0 68.667 21.167 125.334 63.5 170.001
s94.833 67 157.5 67c69.333 0 121.666 -21.5 156.999 -64.5s53 -94.167 53 -153.5v-33h-348c2 -42 16.667 -76.667 44 -104s60.333 -41 99 -41c36 0 65.167 8.66699 87.5 26s37.833 42.666 46.5 75.999zM114.003 251.999h260.997c-1.33301 34.667 -12.166 65.667 -32.499 93
s-51.166 41 -92.499 41c-39.333 0 -70.666 -13.333 -93.999 -40s-37.333 -58 -42 -94z" />
    <glyph glyph-name="edieresis" unicode="&#xeb;" horiz-adv-x="489" 
d="M280 528v94h81v-94h-81zM142 528v94h82v-94h-82zM389 155l69.0029 -8.00098c-10.667 -49.333 -33.834 -88.166 -69.501 -116.499s-80.5 -42.5 -134.5 -42.5c-64.667 0 -118.334 20.5 -161.001 61.5s-64 95.167 -64 162.5c0 68.667 21.167 125.334 63.5 170.001
s94.833 67 157.5 67c69.333 0 121.666 -21.5 156.999 -64.5s53 -94.167 53 -153.5v-33h-348c2 -42 16.667 -76.667 44 -104s60.333 -41 99 -41c36 0 65.167 8.66699 87.5 26s37.833 42.666 46.5 75.999zM114.003 251.999h260.997c-1.33301 34.667 -12.166 65.667 -32.499 93
s-51.166 41 -92.499 41c-39.333 0 -70.666 -13.333 -93.999 -40s-37.333 -58 -42 -94z" />
    <glyph glyph-name="igrave" unicode="&#xec;" horiz-adv-x="196" 
d="M57 437h83v-437h-83v437zM134 504h-58l-97 126h101z" />
    <glyph glyph-name="iacute" unicode="&#xed;" horiz-adv-x="196" 
d="M128 504h-58l54 126h101zM57 437h83v-437h-83v437z" />
    <glyph glyph-name="icircumflex" unicode="&#xee;" horiz-adv-x="196" 
d="M50 630h96l80 -126h-60l-68 74l-68 -74h-60zM57 437h83v-437h-83v437z" />
    <glyph glyph-name="idieresis" unicode="&#xef;" horiz-adv-x="196" 
d="M126 528v94h81v-94h-81zM-12 528v94h82v-94h-82zM57 437h83v-437h-83v437z" />
    <glyph glyph-name="eth" unicode="&#xf0;" 
d="M251 -12c-64 0 -117.169 20.501 -159.502 61.501s-63.5 95.167 -63.5 162.5s21.167 121.166 63.5 161.499s93.5 60.5 153.5 60.5c28 0 54 -6.66699 78 -20s44.333 -32 61 -56c-8.66699 25.333 -23 51 -43 77s-43.667 51.333 -71 76l-127 -47l-20 44l104 39
c-13.333 10 -27.166 19.667 -41.499 29s-29.166 18.333 -44.499 27l55 40c19.333 -10.667 37.833 -21.667 55.5 -33s34.167 -23.333 49.5 -36l80 30l22 -44l-61 -22c42 -41.333 74.167 -87.5 96.5 -138.5s33.5 -107.5 33.5 -169.5c0 -78 -20.833 -137.833 -62.5 -179.5
s-94.5 -62.5 -158.5 -62.5zM250.998 53.001c44 0 78.167 14.833 102.5 44.5s36.5 67.834 36.5 114.501c0 47.333 -12.167 85.833 -36.5 115.5s-58.5 44.5 -102.5 44.5c-43.333 0 -77.166 -14.833 -101.499 -44.5s-36.5 -68.167 -36.5 -115.5
c0 -46.667 12.167 -84.834 36.5 -114.501s58.166 -44.5 101.499 -44.5z" />
    <glyph glyph-name="ntilde" unicode="&#xf1;" horiz-adv-x="496" 
d="M140 251l-0.00195312 -251.001h-83v437h83v-78c10.667 26.667 29.334 48.334 56.001 65.001s56.334 25 89.001 25c56.667 0 97.5 -17 122.5 -51s37.5 -76.333 37.5 -127v-271h-83v264c0 36 -8.83301 64.833 -26.5 86.5s-43.5 32.5 -77.5 32.5
c-32.667 0 -60.5 -12 -83.5 -36s-34.5 -56 -34.5 -96zM159.998 505.999h-50.001c0 36 7 65 21 87s34.667 33 62 33c26.667 0 49 -9.66699 67 -29s36.667 -29 56 -29c14 0 23.5 4.83301 28.5 14.5s7.83301 23.167 8.5 40.5h50c0 -36 -6.83301 -65 -20.5 -87
s-34.5 -33 -62.5 -33c-26.667 0 -49 9.66699 -67 29s-36.667 29 -56 29c-13.333 0 -22.666 -4.83301 -27.999 -14.5s-8.33301 -23.167 -9 -40.5z" />
    <glyph glyph-name="ograve" unicode="&#xf2;" horiz-adv-x="504" 
d="M475 218c0 -67.333 -21.333 -122.5 -64 -165.5s-96 -64.5 -160 -64.5s-117 21.5 -159 64.5s-63 98.167 -63 165.5s21 122.666 63 165.999s95 65 159 65s117.333 -21.667 160 -65s64 -98.666 64 -165.999zM114 218c0 -48 11.833 -87.667 35.5 -119s57.5 -47 101.5 -47
s78.167 15.667 102.5 47s36.5 71 36.5 119c0 48.667 -12.167 88.5 -36.5 119.5s-58.5 46.5 -102.5 46.5s-77.833 -15.5 -101.5 -46.5s-35.5 -70.833 -35.5 -119.5zM288 504h-58l-97 126h101z" />
    <glyph glyph-name="oacute" unicode="&#xf3;" horiz-adv-x="504" 
d="M282 504h-58l54 126h101zM475 218c0 -67.333 -21.333 -122.5 -64 -165.5s-96 -64.5 -160 -64.5s-117 21.5 -159 64.5s-63 98.167 -63 165.5s21 122.666 63 165.999s95 65 159 65s117.333 -21.667 160 -65s64 -98.666 64 -165.999zM114 218
c0 -48 11.833 -87.667 35.5 -119s57.5 -47 101.5 -47s78.167 15.667 102.5 47s36.5 71 36.5 119c0 48.667 -12.167 88.5 -36.5 119.5s-58.5 46.5 -102.5 46.5s-77.833 -15.5 -101.5 -46.5s-35.5 -70.833 -35.5 -119.5z" />
    <glyph glyph-name="ocircumflex" unicode="&#xf4;" horiz-adv-x="504" 
d="M203 630h96l80 -126h-60l-68 74l-68 -74h-60zM475 218c0 -67.333 -21.333 -122.5 -64 -165.5s-96 -64.5 -160 -64.5s-117 21.5 -159 64.5s-63 98.167 -63 165.5s21 122.666 63 165.999s95 65 159 65s117.333 -21.667 160 -65s64 -98.666 64 -165.999zM114 218
c0 -48 11.833 -87.667 35.5 -119s57.5 -47 101.5 -47s78.167 15.667 102.5 47s36.5 71 36.5 119c0 48.667 -12.167 88.5 -36.5 119.5s-58.5 46.5 -102.5 46.5s-77.833 -15.5 -101.5 -46.5s-35.5 -70.833 -35.5 -119.5z" />
    <glyph glyph-name="otilde" unicode="&#xf5;" horiz-adv-x="504" 
d="M475 218c0 -67.333 -21.333 -122.5 -64 -165.5s-96 -64.5 -160 -64.5s-117 21.5 -159 64.5s-63 98.167 -63 165.5s21 122.666 63 165.999s95 65 159 65s117.333 -21.667 160 -65s64 -98.666 64 -165.999zM114 218c0 -48 11.833 -87.667 35.5 -119s57.5 -47 101.5 -47
s78.167 15.667 102.5 47s36.5 71 36.5 119c0 48.667 -12.167 88.5 -36.5 119.5s-58.5 46.5 -102.5 46.5s-77.833 -15.5 -101.5 -46.5s-35.5 -70.833 -35.5 -119.5zM160 506h-50.001c0 36 7 65 21 87s34.667 33 62 33c26.667 0 49 -9.66699 67 -29s36.667 -29 56 -29
c14 0 23.5 4.83301 28.5 14.5s7.83301 23.167 8.5 40.5h50c0 -36 -6.83301 -65 -20.5 -87s-34.5 -33 -62.5 -33c-26.667 0 -49 9.66699 -67 29s-36.667 29 -56 29c-13.333 0 -22.666 -4.83301 -27.999 -14.5s-8.33301 -23.167 -9 -40.5z" />
    <glyph glyph-name="odieresis" unicode="&#xf6;" horiz-adv-x="504" 
d="M280 528v94h81v-94h-81zM142 528v94h82v-94h-82zM475 218c0 -67.333 -21.333 -122.5 -64 -165.5s-96 -64.5 -160 -64.5s-117 21.5 -159 64.5s-63 98.167 -63 165.5s21 122.666 63 165.999s95 65 159 65s117.333 -21.667 160 -65s64 -98.666 64 -165.999zM114 218
c0 -48 11.833 -87.667 35.5 -119s57.5 -47 101.5 -47s78.167 15.667 102.5 47s36.5 71 36.5 119c0 48.667 -12.167 88.5 -36.5 119.5s-58.5 46.5 -102.5 46.5s-77.833 -15.5 -101.5 -46.5s-35.5 -70.833 -35.5 -119.5z" />
    <glyph glyph-name="divide" unicode="&#xf7;" horiz-adv-x="618" 
d="M258 469v102h104v-102h-104zM54 277v70h511v-70h-511zM258 53v101h104v-101h-104z" />
    <glyph glyph-name="oslash" unicode="&#xf8;" horiz-adv-x="504" 
d="M112 218c0 -19.333 2.00098 -37.5 6.00098 -54.5s9.66699 -32.167 17 -45.5l202 238c-11.333 8.66699 -24.333 15.5 -39 20.5s-30.334 7.5 -47.001 7.5c-44 0 -78.167 -15.5 -102.5 -46.5s-36.5 -70.833 -36.5 -119.5zM251.001 52c44.667 0 79.333 15.668 104 47.001
s37 71 37 119c0 19.333 -2 37.333 -6 54s-9.66699 31.667 -17 45l-201 -238c10.667 -8.66699 23 -15.334 37 -20.001s29.333 -7 46 -7zM251 -11.999c-24.667 0 -47.833 3.33496 -69.5 10.002s-41.167 16 -58.5 28l-50 -59l-39 32l51 60c-17.333 20 -31 43.5 -41 70.5
s-15 56.5 -15 88.5c0 67.333 21 122.666 63 165.999s95 65 159 65c24.667 0 48.167 -3.33301 70.5 -10s42.5 -16.334 60.5 -29.001l50 59l39 -31l-52 -62c17.333 -20 31 -43.333 41 -70s15 -56 15 -88c0 -67.333 -21.333 -122.5 -64 -165.5s-96 -64.5 -160 -64.5z" />
    <glyph glyph-name="ugrave" unicode="&#xf9;" horiz-adv-x="491" 
d="M351 186l0.000976562 250.999h83v-437h-83v77c-10.667 -26 -29 -47.333 -55 -64s-55.333 -25 -88 -25c-56.667 0 -96.834 16.833 -120.501 50.5s-35.5 75.834 -35.5 126.501v272h83v-264c0 -36 8.33301 -65 25 -87s42 -33 76 -33c32.667 0 60 12.167 82 36.5
s33 56.5 33 96.5zM282.001 503.999h-58l-97 126h101z" />
    <glyph glyph-name="uacute" unicode="&#xfa;" horiz-adv-x="491" 
d="M276 504h-58l54 126h101zM351 186l0.000976562 250.999h83v-437h-83v77c-10.667 -26 -29 -47.333 -55 -64s-55.333 -25 -88 -25c-56.667 0 -96.834 16.833 -120.501 50.5s-35.5 75.834 -35.5 126.501v272h83v-264c0 -36 8.33301 -65 25 -87s42 -33 76 -33
c32.667 0 60 12.167 82 36.5s33 56.5 33 96.5z" />
    <glyph glyph-name="ucircumflex" unicode="&#xfb;" horiz-adv-x="491" 
d="M198 630h96l80 -126h-60l-68 74l-68 -74h-60zM351 186l0.000976562 250.999h83v-437h-83v77c-10.667 -26 -29 -47.333 -55 -64s-55.333 -25 -88 -25c-56.667 0 -96.834 16.833 -120.501 50.5s-35.5 75.834 -35.5 126.501v272h83v-264c0 -36 8.33301 -65 25 -87
s42 -33 76 -33c32.667 0 60 12.167 82 36.5s33 56.5 33 96.5z" />
    <glyph glyph-name="udieresis" unicode="&#xfc;" horiz-adv-x="491" 
d="M274 528v94h81v-94h-81zM136 528v94h82v-94h-82zM351 186l0.000976562 250.999h83v-437h-83v77c-10.667 -26 -29 -47.333 -55 -64s-55.333 -25 -88 -25c-56.667 0 -96.834 16.833 -120.501 50.5s-35.5 75.834 -35.5 126.501v272h83v-264c0 -36 8.33301 -65 25 -87
s42 -33 76 -33c32.667 0 60 12.167 82 36.5s33 56.5 33 96.5z" />
    <glyph glyph-name="yacute" unicode="&#xfd;" horiz-adv-x="460" 
d="M201 -168h-81l71 169l-184 436h87l139 -336h4l134 336h82zM260 504h-58l54 126h101z" />
    <glyph glyph-name="thorn" unicode="&#xfe;" horiz-adv-x="526" 
d="M138 231v-25c0 -48 13.5 -85.333 40.5 -112s60.167 -40 99.5 -40c42.667 0 75.5 14.833 98.5 44.5s34.5 69.5 34.5 119.5s-11.5 89.833 -34.5 119.5s-55.833 44.5 -98.5 44.5c-39.333 0 -72.5 -13.333 -99.5 -40s-40.5 -63.667 -40.5 -111zM140 91v-259h-83v798h83v-285
c9.33301 26.667 27.666 50.667 54.999 72s61.333 32 102 32c64 0 113.333 -22.5 148 -67.5s52 -99.5 52 -163.5s-17.333 -118.333 -52 -163s-84 -67 -148 -67c-40.667 0 -74.667 10.5 -102 31.5s-45.666 44.833 -54.999 71.5z" />
    <glyph glyph-name="ydieresis" unicode="&#xff;" horiz-adv-x="460" 
d="M201 -168h-81l71 169l-184 436h87l139 -336h4l134 336h82zM258 528v94h81v-94h-81zM120 528v94h82v-94h-82z" />
    <glyph glyph-name="Amacron" unicode="&#x100;" horiz-adv-x="638" 
d="M311 534l-112 -280h231l-115 280h-4zM534 0l-76 185h-287l-74 -185h-85l257 630h95l262 -630h-92zM182 683v63h259v-63h-259z" />
    <glyph glyph-name="amacron" unicode="&#x101;" horiz-adv-x="489" 
d="M329 195l-0.000976562 21l-98 -21c-34 -7.33301 -61.333 -16 -82 -26s-31 -28.333 -31 -55c0 -18.667 6.33301 -34.167 19 -46.5s31.334 -18.5 56.001 -18.5c38 0 70.167 13.333 96.5 40s39.5 62 39.5 106zM408.999 282l0.00195312 -196c0 -11.333 3 -19.833 9 -25.5
s14.333 -8.5 25 -8.5c4.66699 0 10.667 0.833008 18 2.5s14 4.16699 20 7.5v-45c-7.33301 -7.33301 -16.166 -13.5 -26.499 -18.5s-23.833 -7.5 -40.5 -7.5c-22.667 0 -41.334 7.83301 -56.001 23.5s-23.334 36.5 -26.001 62.5c-12 -25.333 -32.333 -46.5 -61 -63.5
s-60.667 -25.5 -96 -25.5c-42 0 -75.833 10.833 -101.5 32.5s-38.5 51.167 -38.5 88.5c0 41.333 16.333 72 49 92s75 35.333 127 46l118 24v17c0 30 -8.33301 53.667 -25 71s-40.334 26 -71.001 26c-31.333 0 -55.833 -8.33301 -73.5 -25s-29.834 -37.667 -36.501 -63
l-74 10c8.66699 40.667 28.834 74.5 60.501 101.5s73.167 40.5 124.5 40.5c54.667 0 97.5 -14 128.5 -42s46.5 -69.667 46.5 -125zM111.001 515v64h257v-64h-257z" />
    <glyph glyph-name="Abreve" unicode="&#x102;" horiz-adv-x="638" 
d="M311 534l-112 -280h231l-115 280h-4zM534 0l-76 185h-287l-74 -185h-85l257 630h95l262 -630h-92zM311 673c-36 0 -64.333 10.833 -85 32.5s-31 53.834 -31 96.501h58c0 -22 4.5 -39.167 13.5 -51.5s23.833 -18.5 44.5 -18.5s35.5 6.16699 44.5 18.5s13.5 29.5 13.5 51.5
h58c0 -42.667 -10.333 -74.834 -31 -96.501s-49 -32.5 -85 -32.5z" />
    <glyph glyph-name="abreve" unicode="&#x103;" horiz-adv-x="489" 
d="M329 195l-0.000976562 21l-98 -21c-34 -7.33301 -61.333 -16 -82 -26s-31 -28.333 -31 -55c0 -18.667 6.33301 -34.167 19 -46.5s31.334 -18.5 56.001 -18.5c38 0 70.167 13.333 96.5 40s39.5 62 39.5 106zM408.999 282l0.00195312 -196c0 -11.333 3 -19.833 9 -25.5
s14.333 -8.5 25 -8.5c4.66699 0 10.667 0.833008 18 2.5s14 4.16699 20 7.5v-45c-7.33301 -7.33301 -16.166 -13.5 -26.499 -18.5s-23.833 -7.5 -40.5 -7.5c-22.667 0 -41.334 7.83301 -56.001 23.5s-23.334 36.5 -26.001 62.5c-12 -25.333 -32.333 -46.5 -61 -63.5
s-60.667 -25.5 -96 -25.5c-42 0 -75.833 10.833 -101.5 32.5s-38.5 51.167 -38.5 88.5c0 41.333 16.333 72 49 92s75 35.333 127 46l118 24v17c0 30 -8.33301 53.667 -25 71s-40.334 26 -71.001 26c-31.333 0 -55.833 -8.33301 -73.5 -25s-29.834 -37.667 -36.501 -63
l-74 10c8.66699 40.667 28.834 74.5 60.501 101.5s73.167 40.5 124.5 40.5c54.667 0 97.5 -14 128.5 -42s46.5 -69.667 46.5 -125zM239.001 501c-36 0 -64.333 10.833 -85 32.5s-31 53.834 -31 96.501h58c0 -22 4.5 -39.167 13.5 -51.5s23.833 -18.5 44.5 -18.5
s35.5 6.16699 44.5 18.5s13.5 29.5 13.5 51.5h58c0 -42.667 -10.333 -74.834 -31 -96.501s-49 -32.5 -85 -32.5z" />
    <glyph glyph-name="Aogonek" unicode="&#x104;" horiz-adv-x="638" 
d="M269 630l94.999 0.00195312l262 -630c-31.333 -18.667 -54.333 -35.334 -69 -50.001s-22 -29 -22 -43c0 -8.66699 2.83301 -15.834 8.5 -21.501s14.834 -8.5 27.501 -8.5c9.33301 0 18.5 1.66699 27.5 5s17.5 7 25.5 11v-46
c-8.66699 -5.33301 -18.834 -10.333 -30.501 -15s-26.5 -7 -44.5 -7c-22 0 -40.167 5.66699 -54.5 17s-21.5 28 -21.5 50c0 21.333 7.33301 40.833 22 58.5s32.334 34.167 53.001 49.5l-14 2l-76 183h-287l-74 -185h-85zM310.999 534.002l-112 -280h231l-115 280h-4z" />
    <glyph glyph-name="aogonek" unicode="&#x105;" horiz-adv-x="489" 
d="M409 282l0.00195312 -195.999c0 -11.333 3 -19.833 9 -25.5s14.333 -8.5 25 -8.5c4.66699 0 10.667 0.833008 18 2.5s14 4.16699 20 7.5v-47l-58.5 -49c-20.333 -17.333 -30.5 -37 -30.5 -59c0 -8.66699 2.83301 -15.834 8.5 -21.501s14.834 -8.5 27.501 -8.5
c9.33301 0 18.5 1.66699 27.5 5s17.5 7 25.5 11v-46c-8.66699 -5.33301 -18.834 -10.333 -30.501 -15s-26.5 -7 -44.5 -7c-22 0 -40.167 5.66699 -54.5 17s-21.5 28 -21.5 50c0 19.333 6.16699 37.5 18.5 54.5s28.166 32.5 47.499 46.5c-18 3.33301 -32.667 12.5 -44 27.5
s-18 33.833 -20 56.5c-12 -25.333 -32.333 -46.5 -61 -63.5s-61 -25.5 -97 -25.5c-42 0 -75.667 10.667 -101 32s-38 51 -38 89c0 40.667 16.167 71.167 48.5 91.5s74.833 35.833 127.5 46.5l118 24v17c0 30 -8.33301 53.667 -25 71s-40.334 26 -71.001 26
c-31.333 0 -55.833 -8.33301 -73.5 -25s-29.834 -37.667 -36.501 -63l-74 10c8.66699 40.667 28.834 74.5 60.501 101.5s73.167 40.5 124.5 40.5c54.667 0 97.5 -14 128.5 -42s46.5 -69.667 46.5 -125zM329.002 195.001l-0.000976562 21l-98 -21
c-35.333 -7.33301 -63 -16.333 -83 -27s-30 -28.667 -30 -54c0 -18.667 6.33301 -34.167 19 -46.5s31.334 -18.5 56.001 -18.5c38 0 70.167 13.333 96.5 40s39.5 62 39.5 106z" />
    <glyph glyph-name="Cacute" unicode="&#x106;" horiz-adv-x="666" 
d="M32 315c0 96.667 29.833 175.334 89.5 236.001s132.834 91 219.501 91c89.333 0 159.166 -25.333 209.499 -76s78.5 -116.334 84.5 -197.001l-84 -4c-3.33301 58 -23 106.333 -59 145s-86.333 58 -151 58c-64 0 -116.667 -22.833 -158 -68.5s-62 -107.167 -62 -184.5
s20.667 -138.833 62 -184.5s94 -68.5 158 -68.5c64.667 0 115 19.333 151 58s55.667 87 59 145l84 -4c-6 -80.667 -34.167 -146.334 -84.5 -197.001s-120.166 -76 -209.499 -76c-86.667 0 -159.834 30.333 -219.501 91s-89.5 139.334 -89.5 236.001zM378 676h-58l54 126h101
z" />
    <glyph glyph-name="cacute" unicode="&#x107;" horiz-adv-x="487" 
d="M283 504h-58l54 126h101zM29 218c0 69.333 20.833 125.167 62.5 167.5s95.5 63.5 161.5 63.5c64 0 113.167 -18.833 147.5 -56.5s53.833 -82.5 58.5 -134.5l-73 -5c-3.33301 38 -16.5 69 -39.5 93s-54.5 36 -94.5 36c-40.667 0 -73.834 -14.833 -99.501 -44.5
s-38.5 -69.5 -38.5 -119.5s12.833 -89.833 38.5 -119.5s58.834 -44.5 99.501 -44.5c40 0 71.5 12.5 94.5 37.5s36.167 56.5 39.5 94.5l73 -7c-4.66699 -52.667 -24.167 -97.667 -58.5 -135s-83.5 -56 -147.5 -56c-66 0 -119.833 21 -161.5 63s-62.5 97.667 -62.5 167z" />
    <glyph glyph-name="Ccircumflex" unicode="&#x108;" horiz-adv-x="666" 
d="M32 315c0 96.667 29.833 175.334 89.5 236.001s132.834 91 219.501 91c89.333 0 159.166 -25.333 209.499 -76s78.5 -116.334 84.5 -197.001l-84 -4c-3.33301 58 -23 106.333 -59 145s-86.333 58 -151 58c-64 0 -116.667 -22.833 -158 -68.5s-62 -107.167 -62 -184.5
s20.667 -138.833 62 -184.5s94 -68.5 158 -68.5c64.667 0 115 19.333 151 58s55.667 87 59 145l84 -4c-6 -80.667 -34.167 -146.334 -84.5 -197.001s-120.166 -76 -209.499 -76c-86.667 0 -159.834 30.333 -219.501 91s-89.5 139.334 -89.5 236.001zM300 802h96l80 -126h-60
l-68 74l-68 -74h-60z" />
    <glyph glyph-name="ccircumflex" unicode="&#x109;" horiz-adv-x="487" 
d="M205 630h96l80 -126h-60l-68 74l-68 -74h-60zM29 218c0 69.333 20.833 125.167 62.5 167.5s95.5 63.5 161.5 63.5c64 0 113.167 -18.833 147.5 -56.5s53.833 -82.5 58.5 -134.5l-73 -5c-3.33301 38 -16.5 69 -39.5 93s-54.5 36 -94.5 36
c-40.667 0 -73.834 -14.833 -99.501 -44.5s-38.5 -69.5 -38.5 -119.5s12.833 -89.833 38.5 -119.5s58.834 -44.5 99.501 -44.5c40 0 71.5 12.5 94.5 37.5s36.167 56.5 39.5 94.5l73 -7c-4.66699 -52.667 -24.167 -97.667 -58.5 -135s-83.5 -56 -147.5 -56
c-66 0 -119.833 21 -161.5 63s-62.5 97.667 -62.5 167z" />
    <glyph glyph-name="Cdotaccent" unicode="&#x10a;" horiz-adv-x="666" 
d="M305 681v94h87v-94h-87zM32 315c0 96.667 29.833 175.334 89.5 236.001s132.834 91 219.501 91c89.333 0 159.166 -25.333 209.499 -76s78.5 -116.334 84.5 -197.001l-84 -4c-3.33301 58 -23 106.333 -59 145s-86.333 58 -151 58c-64 0 -116.667 -22.833 -158 -68.5
s-62 -107.167 -62 -184.5s20.667 -138.833 62 -184.5s94 -68.5 158 -68.5c64.667 0 115 19.333 151 58s55.667 87 59 145l84 -4c-6 -80.667 -34.167 -146.334 -84.5 -197.001s-120.166 -76 -209.499 -76c-86.667 0 -159.834 30.333 -219.501 91s-89.5 139.334 -89.5 236.001
z" />
    <glyph glyph-name="cdotaccent" unicode="&#x10b;" horiz-adv-x="487" 
d="M29 218c0 69.333 20.833 125.167 62.5 167.5s95.5 63.5 161.5 63.5c64 0 113.167 -18.833 147.5 -56.5s53.833 -82.5 58.5 -134.5l-73 -5c-3.33301 38 -16.5 69 -39.5 93s-54.5 36 -94.5 36c-40.667 0 -73.834 -14.833 -99.501 -44.5s-38.5 -69.5 -38.5 -119.5
s12.833 -89.833 38.5 -119.5s58.834 -44.5 99.501 -44.5c40 0 71.5 12.5 94.5 37.5s36.167 56.5 39.5 94.5l73 -7c-4.66699 -52.667 -24.167 -97.667 -58.5 -135s-83.5 -56 -147.5 -56c-66 0 -119.833 21 -161.5 63s-62.5 97.667 -62.5 167zM209 536.001v94h87v-94h-87z" />
    <glyph glyph-name="Ccaron" unicode="&#x10c;" horiz-adv-x="666" 
d="M32 315c0 96.667 29.833 175.334 89.5 236.001s132.834 91 219.501 91c89.333 0 159.166 -25.333 209.499 -76s78.5 -116.334 84.5 -197.001l-84 -4c-3.33301 58 -23 106.333 -59 145s-86.333 58 -151 58c-64 0 -116.667 -22.833 -158 -68.5s-62 -107.167 -62 -184.5
s20.667 -138.833 62 -184.5s94 -68.5 158 -68.5c64.667 0 115 19.333 151 58s55.667 87 59 145l84 -4c-6 -80.667 -34.167 -146.334 -84.5 -197.001s-120.166 -76 -209.499 -76c-86.667 0 -159.834 30.333 -219.501 91s-89.5 139.334 -89.5 236.001zM396 676h-96l-80 126h60
l68 -74l68 74h60z" />
    <glyph glyph-name="ccaron" unicode="&#x10d;" horiz-adv-x="487" 
d="M301 504h-96l-80 126h60l68 -75l68 75h60zM29 218c0 69.333 20.833 125.167 62.5 167.5s95.5 63.5 161.5 63.5c64 0 113.167 -18.833 147.5 -56.5s53.833 -82.5 58.5 -134.5l-73 -5c-3.33301 38 -16.5 69 -39.5 93s-54.5 36 -94.5 36
c-40.667 0 -73.834 -14.833 -99.501 -44.5s-38.5 -69.5 -38.5 -119.5s12.833 -89.833 38.5 -119.5s58.834 -44.5 99.501 -44.5c40 0 71.5 12.5 94.5 37.5s36.167 56.5 39.5 94.5l73 -7c-4.66699 -52.667 -24.167 -97.667 -58.5 -135s-83.5 -56 -147.5 -56
c-66 0 -119.833 21 -161.5 63s-62.5 97.667 -62.5 167z" />
    <glyph glyph-name="Dcaron" unicode="&#x10e;" horiz-adv-x="643" 
d="M346 676h-96l-80 126h60l68 -74l68 74h60zM61 0v630h228c98.667 0 177.167 -28 235.5 -84s87.5 -133 87.5 -231s-29.167 -175 -87.5 -231s-136.833 -84 -235.5 -84h-228zM148 71h136c76.667 0 135.5 21.667 176.5 65s61.5 103 61.5 179s-20.5 135.667 -61.5 179
s-99.833 65 -176.5 65h-136v-488z" />
    <glyph glyph-name="dcaron" unicode="&#x10f;" horiz-adv-x="525" 
d="M557 498h-47l15 132h92zM387 206v25c0 47.333 -13.333 84.333 -40 111s-59.667 40 -99 40c-42.667 0 -75.667 -14.833 -99 -44.5s-35 -69.5 -35 -119.5s11.667 -89.833 35 -119.5s56.333 -44.5 99 -44.5c39.333 0 72.333 13.333 99 40s40 64 40 112zM386 0v91
c-10 -26.667 -28.5 -50.5 -55.5 -71.5s-60.833 -31.5 -101.5 -31.5c-64.667 0 -114.167 22.333 -148.5 67s-51.5 99 -51.5 163s17.167 118.5 51.5 163.5s83.833 67.5 148.5 67.5c40.667 0 74.5 -10.667 101.5 -32s45.5 -45.333 55.5 -72v285h83v-630h-83z" />
    <glyph glyph-name="Dcroat" unicode="&#x110;" horiz-adv-x="662" 
d="M307 0h-228v289h-71v71h71v270h228c98.667 0 177.167 -28 235.5 -84s87.5 -133 87.5 -231s-29.167 -175 -87.5 -231s-136.833 -84 -235.5 -84zM166 71h136c76.667 0 135.5 21.667 176.5 65s61.5 103 61.5 179s-20.5 135.667 -61.5 179s-99.833 65 -176.5 65h-136v-199
h171v-71h-171v-218z" />
    <glyph glyph-name="dcroat" unicode="&#x111;" horiz-adv-x="525" 
d="M387 205v24.999c0 46.667 -13.333 83.334 -40 110.001s-59.667 40 -99 40c-42.667 0 -75.667 -14.667 -99 -44s-35 -69 -35 -119c0 -49.333 11.667 -88.666 35 -117.999s56.333 -44 99 -44c39.333 0 72.333 13.167 99 39.5s40 63.166 40 110.499zM386 89.999
c-10 -26.667 -28.5 -50.332 -55.5 -70.999s-60.833 -31 -101.5 -31c-64.667 0 -114.167 22.167 -148.5 66.5s-51.5 98.166 -51.5 161.499c0 64 17.167 118.167 51.5 162.5s83.833 66.5 148.5 66.5c40.667 0 74.5 -10.5 101.5 -31.5s45.5 -45.167 55.5 -72.5v152h-144v56h144
v81h83v-81h59v-56h-59v-493h-83v90z" />
    <glyph glyph-name="Emacron" unicode="&#x112;" horiz-adv-x="548" 
d="M158 683v63h259v-63h-259zM510 72v-72h-449v630h440v-72h-356v-198h283v-71h-283v-217h365z" />
    <glyph glyph-name="emacron" unicode="&#x113;" horiz-adv-x="489" 
d="M389 155l69.0029 -8.00098c-10.667 -49.333 -33.834 -88.166 -69.501 -116.499s-80.5 -42.5 -134.5 -42.5c-64.667 0 -118.334 20.5 -161.001 61.5s-64 95.167 -64 162.5c0 68.667 21.167 125.334 63.5 170.001s94.833 67 157.5 67c69.333 0 121.666 -21.5 156.999 -64.5
s53 -94.167 53 -153.5v-33h-348c2 -42 16.667 -76.667 44 -104s60.333 -41 99 -41c36 0 65.167 8.66699 87.5 26s37.833 42.666 46.5 75.999zM114.003 251.999h260.997c-1.33301 34.667 -12.166 65.667 -32.499 93s-51.166 41 -92.499 41
c-39.333 0 -70.666 -13.333 -93.999 -40s-37.333 -58 -42 -94zM123 514.999v64h257v-64h-257z" />
    <glyph glyph-name="Ebreve" unicode="&#x114;" horiz-adv-x="548" 
d="M287 673c-36 0 -64.333 10.833 -85 32.5s-31 53.834 -31 96.501h58c0 -22 4.5 -39.167 13.5 -51.5s23.833 -18.5 44.5 -18.5s35.5 6.16699 44.5 18.5s13.5 29.5 13.5 51.5h58c0 -42.667 -10.333 -74.834 -31 -96.501s-49 -32.5 -85 -32.5zM510 72v-72h-449v630h440v-72
h-356v-198h283v-71h-283v-217h365z" />
    <glyph glyph-name="ebreve" unicode="&#x115;" horiz-adv-x="489" 
d="M389 155l69.0029 -8.00098c-10.667 -49.333 -33.834 -88.166 -69.501 -116.499s-80.5 -42.5 -134.5 -42.5c-64.667 0 -118.334 20.5 -161.001 61.5s-64 95.167 -64 162.5c0 68.667 21.167 125.334 63.5 170.001s94.833 67 157.5 67c69.333 0 121.666 -21.5 156.999 -64.5
s53 -94.167 53 -153.5v-33h-348c2 -42 16.667 -76.667 44 -104s60.333 -41 99 -41c36 0 65.167 8.66699 87.5 26s37.833 42.666 46.5 75.999zM114.003 251.999h260.997c-1.33301 34.667 -12.166 65.667 -32.499 93s-51.166 41 -92.499 41
c-39.333 0 -70.666 -13.333 -93.999 -40s-37.333 -58 -42 -94zM250 500.999c-36 0 -64.333 10.833 -85 32.5s-31 53.834 -31 96.501h58c0 -22 4.5 -39.167 13.5 -51.5s23.833 -18.5 44.5 -18.5s35.5 6.16699 44.5 18.5s13.5 29.5 13.5 51.5h58
c0 -42.667 -10.333 -74.834 -31 -96.501s-49 -32.5 -85 -32.5z" />
    <glyph glyph-name="Edotaccent" unicode="&#x116;" horiz-adv-x="548" 
d="M244 681v94h87v-94h-87zM510 72v-72h-449v630h440v-72h-356v-198h283v-71h-283v-217h365z" />
    <glyph glyph-name="edotaccent" unicode="&#x117;" horiz-adv-x="489" 
d="M389 155l69.0029 -8.00098c-10.667 -49.333 -33.834 -88.166 -69.501 -116.499s-80.5 -42.5 -134.5 -42.5c-64.667 0 -118.334 20.5 -161.001 61.5s-64 95.167 -64 162.5c0 68.667 21.167 125.334 63.5 170.001s94.833 67 157.5 67c69.333 0 121.666 -21.5 156.999 -64.5
s53 -94.167 53 -153.5v-33h-348c2 -42 16.667 -76.667 44 -104s60.333 -41 99 -41c36 0 65.167 8.66699 87.5 26s37.833 42.666 46.5 75.999zM114.003 251.999h260.997c-1.33301 34.667 -12.166 65.667 -32.499 93s-51.166 41 -92.499 41
c-39.333 0 -70.666 -13.333 -93.999 -40s-37.333 -58 -42 -94zM208 535.999v94h87v-94h-87z" />
    <glyph glyph-name="Eogonek" unicode="&#x118;" horiz-adv-x="548" 
d="M510 72v-71.999h-56c-21.333 -19.333 -37.333 -35.333 -48 -48c-12.667 -15.333 -19 -30.333 -19 -45c0 -8.66699 2.83301 -15.834 8.5 -21.501s14.834 -8.5 27.501 -8.5c9.33301 0 18.5 1.66699 27.5 5s17.5 7 25.5 11v-46
c-8.66699 -5.33301 -18.834 -10.333 -30.501 -15s-26.5 -7 -44.5 -7c-22 0 -40.167 5.66699 -54.5 17s-21.5 28 -21.5 50c0 24 9.33301 45.667 28 65c14 14.667 29.667 29 47 43h-339v630h440v-72h-356v-198h283v-71h-283v-217h365z" />
    <glyph glyph-name="eogonek" unicode="&#x119;" horiz-adv-x="489" 
d="M389 155l69.0049 -8c-6.66699 -30.667 -18.5 -56.667 -35.5 -78s-36.833 -39.666 -59.5 -54.999c-31.333 -21.333 -53 -40.833 -65 -58.5s-18 -33.834 -18 -48.501c0 -8.66699 3 -15.834 9 -21.501s15.333 -8.5 28 -8.5c9.33301 0 18.5 1.66699 27.5 5s17.5 7 25.5 11
v-46c-8.66699 -5.33301 -18.834 -10.333 -30.501 -15s-26.5 -7 -44.5 -7c-22.667 0 -41.167 5.66699 -55.5 17s-21.5 28 -21.5 50c0 18.667 6.16699 36.167 18.5 52.5s27.5 31.5 45.5 45.5c-4.66699 -0.666992 -9.33398 -1.16699 -14.001 -1.5s-9.33398 -0.5 -14.001 -0.5
c-64.667 0 -118.334 20.5 -161.001 61.5s-64 95.167 -64 162.5c0 68.667 21.167 125.334 63.5 170.001s94.833 67 157.5 67c69.333 0 121.666 -21.5 156.999 -64.5s53 -94.167 53 -153.5v-33h-348c2 -42 16.667 -76.667 44 -104s60.333 -41 99 -41
c36 0 65.167 8.5 87.5 25.5s37.833 42.5 46.5 76.5zM114.005 252h260.997c-1.33301 34.667 -12.166 65.667 -32.499 93s-51.166 41 -92.499 41c-39.333 0 -70.666 -13.333 -93.999 -40s-37.333 -58 -42 -94z" />
    <glyph glyph-name="Ecaron" unicode="&#x11a;" horiz-adv-x="548" 
d="M335 676h-96l-80 126h60l68 -74l68 74h60zM510 72v-72h-449v630h440v-72h-356v-198h283v-71h-283v-217h365z" />
    <glyph glyph-name="ecaron" unicode="&#x11b;" horiz-adv-x="489" 
d="M299 504h-96l-80 126h60l68 -75l68 75h60zM389 155l69.0029 -8.00098c-10.667 -49.333 -33.834 -88.166 -69.501 -116.499s-80.5 -42.5 -134.5 -42.5c-64.667 0 -118.334 20.5 -161.001 61.5s-64 95.167 -64 162.5c0 68.667 21.167 125.334 63.5 170.001
s94.833 67 157.5 67c69.333 0 121.666 -21.5 156.999 -64.5s53 -94.167 53 -153.5v-33h-348c2 -42 16.667 -76.667 44 -104s60.333 -41 99 -41c36 0 65.167 8.66699 87.5 26s37.833 42.666 46.5 75.999zM114.003 251.999h260.997c-1.33301 34.667 -12.166 65.667 -32.499 93
s-51.166 41 -92.499 41c-39.333 0 -70.666 -13.333 -93.999 -40s-37.333 -58 -42 -94z" />
    <glyph glyph-name="Gcircumflex" unicode="&#x11c;" horiz-adv-x="688" 
d="M339 -12c-88.667 0 -161.997 30.167 -219.997 90.5s-87 139.166 -87 236.499c0 96.667 29.667 175.334 89 236.001s132.333 91 219 91c88.667 0 158.167 -23.333 208.5 -70s78.166 -110 83.499 -190l-83 -5c-3.33301 57.333 -23 103.5 -59 138.5s-85.667 52.5 -149 52.5
c-64 0 -116.667 -23 -158 -69s-62 -107.667 -62 -185s21.167 -138.833 63.5 -184.5s97.166 -68.5 164.499 -68.5c58.667 0 106.167 16.833 142.5 50.5s57.166 77.5 62.499 131.5h-192v68h271v-311h-79v112c-14 -40 -41.167 -70.667 -81.5 -92s-84.833 -32 -133.5 -32z
M302.003 802h96l80 -126h-60l-68 74l-68 -74h-60z" />
    <glyph glyph-name="gcircumflex" unicode="&#x11d;" horiz-adv-x="480" 
d="M196 630h96l80 -126h-60l-68 74l-68 -74h-60zM333 299c0 30.667 -9 54.334 -27 71.001s-42.333 25 -73 25s-54.834 -8.33301 -72.501 -25s-26.5 -40.334 -26.5 -71.001c0 -30 8.83301 -53.167 26.5 -69.5s41.834 -24.5 72.501 -24.5s55 8.16699 73 24.5s27 39.5 27 69.5z
M476 -29c0 -54 -25.833 -92.665 -77.5 -115.998s-109.834 -35 -174.501 -35c-58.667 0 -109.334 9.66699 -152.001 29s-64 49 -64 89c0 24.667 8.33301 45 25 61s38.334 26.333 65.001 31c-20 6.66699 -34.667 16.667 -44 30s-14 28.333 -14 45c0 18.667 6.16699 35 18.5 49
s28.166 25.333 47.499 34c-18 12.667 -32 28.5 -42 47.5s-15 40.5 -15 64.5c0 46 17.167 82.333 51.5 109s78.166 40 131.499 40c28 0 53.833 -3.83301 77.5 -11.5s43.834 -18.834 60.501 -33.501c11.333 18 26.833 32.5 46.5 43.5s40.834 16.5 63.501 16.5v-72
c-14.667 0 -29.667 -1.66699 -45 -5s-28.333 -7.33301 -39 -12c6.66699 -10.667 11.834 -22.334 15.501 -35.001s5.5 -26 5.5 -40c0 -45.333 -17.333 -81.333 -52 -108s-79 -40 -133 -40c-18 0 -35 1.5 -51 4.5s-30.667 7.5 -44 13.5c-8 -4.66699 -15 -10.5 -21 -17.5
s-9 -15.5 -9 -25.5c0 -12 4.16699 -21.333 12.5 -28s21.833 -10 40.5 -10h171c47.333 0 83.333 -11.167 108 -33.5s37 -50.5 37 -84.5zM87 -45.998c0 -27.333 12.833 -47.332 38.5 -59.999s58.5 -19 98.5 -19c50 0 91.167 6.66699 123.5 20s48.5 35.666 48.5 66.999
c0 20 -7.66699 34 -23 42s-35.666 12 -60.999 12h-141c-22.667 0 -42.334 -4.5 -59.001 -13.5s-25 -25.167 -25 -48.5z" />
    <glyph glyph-name="Gbreve" unicode="&#x11e;" horiz-adv-x="688" 
d="M350 673c-36 0 -64.333 10.833 -85 32.5s-31 53.834 -31 96.501h58c0 -22 4.5 -39.167 13.5 -51.5s23.833 -18.5 44.5 -18.5s35.5 6.16699 44.5 18.5s13.5 29.5 13.5 51.5h58c0 -42.667 -10.333 -74.834 -31 -96.501s-49 -32.5 -85 -32.5zM339 -12
c-88.667 0 -161.997 30.167 -219.997 90.5s-87 139.166 -87 236.499c0 96.667 29.667 175.334 89 236.001s132.333 91 219 91c88.667 0 158.167 -23.333 208.5 -70s78.166 -110 83.499 -190l-83 -5c-3.33301 57.333 -23 103.5 -59 138.5s-85.667 52.5 -149 52.5
c-64 0 -116.667 -23 -158 -69s-62 -107.667 -62 -185s21.167 -138.833 63.5 -184.5s97.166 -68.5 164.499 -68.5c58.667 0 106.167 16.833 142.5 50.5s57.166 77.5 62.499 131.5h-192v68h271v-311h-79v112c-14 -40 -41.167 -70.667 -81.5 -92s-84.833 -32 -133.5 -32z" />
    <glyph glyph-name="gbreve" unicode="&#x11f;" horiz-adv-x="480" 
d="M333 299c0 30.667 -9 54.334 -27 71.001s-42.333 25 -73 25s-54.834 -8.33301 -72.501 -25s-26.5 -40.334 -26.5 -71.001c0 -30 8.83301 -53.167 26.5 -69.5s41.834 -24.5 72.501 -24.5s55 8.16699 73 24.5s27 39.5 27 69.5zM476 -29
c0 -54 -25.833 -92.665 -77.5 -115.998s-109.834 -35 -174.501 -35c-58.667 0 -109.334 9.66699 -152.001 29s-64 49 -64 89c0 24.667 8.33301 45 25 61s38.334 26.333 65.001 31c-20 6.66699 -34.667 16.667 -44 30s-14 28.333 -14 45c0 18.667 6.16699 35 18.5 49
s28.166 25.333 47.499 34c-18 12.667 -32 28.5 -42 47.5s-15 40.5 -15 64.5c0 46 17.167 82.333 51.5 109s78.166 40 131.499 40c28 0 53.833 -3.83301 77.5 -11.5s43.834 -18.834 60.501 -33.501c11.333 18 26.833 32.5 46.5 43.5s40.834 16.5 63.501 16.5v-72
c-14.667 0 -29.667 -1.66699 -45 -5s-28.333 -7.33301 -39 -12c6.66699 -10.667 11.834 -22.334 15.501 -35.001s5.5 -26 5.5 -40c0 -45.333 -17.333 -81.333 -52 -108s-79 -40 -133 -40c-18 0 -35 1.5 -51 4.5s-30.667 7.5 -44 13.5c-8 -4.66699 -15 -10.5 -21 -17.5
s-9 -15.5 -9 -25.5c0 -12 4.16699 -21.333 12.5 -28s21.833 -10 40.5 -10h171c47.333 0 83.333 -11.167 108 -33.5s37 -50.5 37 -84.5zM87 -45.998c0 -27.333 12.833 -47.332 38.5 -59.999s58.5 -19 98.5 -19c50 0 91.167 6.66699 123.5 20s48.5 35.666 48.5 66.999
c0 20 -7.66699 34 -23 42s-35.666 12 -60.999 12h-141c-22.667 0 -42.334 -4.5 -59.001 -13.5s-25 -25.167 -25 -48.5zM244 501.003c-36 0 -64.333 10.833 -85 32.5s-31 53.834 -31 96.501h58c0 -22 4.5 -39.167 13.5 -51.5s23.833 -18.5 44.5 -18.5s35.5 6.16699 44.5 18.5
s13.5 29.5 13.5 51.5h58c0 -42.667 -10.333 -74.834 -31 -96.501s-49 -32.5 -85 -32.5z" />
    <glyph glyph-name="Gdotaccent" unicode="&#x120;" horiz-adv-x="688" 
d="M307 681v94h87v-94h-87zM339 -12c-88.667 0 -161.997 30.167 -219.997 90.5s-87 139.166 -87 236.499c0 96.667 29.667 175.334 89 236.001s132.333 91 219 91c88.667 0 158.167 -23.333 208.5 -70s78.166 -110 83.499 -190l-83 -5c-3.33301 57.333 -23 103.5 -59 138.5
s-85.667 52.5 -149 52.5c-64 0 -116.667 -23 -158 -69s-62 -107.667 -62 -185s21.167 -138.833 63.5 -184.5s97.166 -68.5 164.499 -68.5c58.667 0 106.167 16.833 142.5 50.5s57.166 77.5 62.499 131.5h-192v68h271v-311h-79v112c-14 -40 -41.167 -70.667 -81.5 -92
s-84.833 -32 -133.5 -32z" />
    <glyph glyph-name="gdotaccent" unicode="&#x121;" horiz-adv-x="480" 
d="M333 299c0 30.667 -9 54.334 -27 71.001s-42.333 25 -73 25s-54.834 -8.33301 -72.501 -25s-26.5 -40.334 -26.5 -71.001c0 -30 8.83301 -53.167 26.5 -69.5s41.834 -24.5 72.501 -24.5s55 8.16699 73 24.5s27 39.5 27 69.5zM476 -29
c0 -54 -25.833 -92.665 -77.5 -115.998s-109.834 -35 -174.501 -35c-58.667 0 -109.334 9.66699 -152.001 29s-64 49 -64 89c0 24.667 8.33301 45 25 61s38.334 26.333 65.001 31c-20 6.66699 -34.667 16.667 -44 30s-14 28.333 -14 45c0 18.667 6.16699 35 18.5 49
s28.166 25.333 47.499 34c-18 12.667 -32 28.5 -42 47.5s-15 40.5 -15 64.5c0 46 17.167 82.333 51.5 109s78.166 40 131.499 40c28 0 53.833 -3.83301 77.5 -11.5s43.834 -18.834 60.501 -33.501c11.333 18 26.833 32.5 46.5 43.5s40.834 16.5 63.501 16.5v-72
c-14.667 0 -29.667 -1.66699 -45 -5s-28.333 -7.33301 -39 -12c6.66699 -10.667 11.834 -22.334 15.501 -35.001s5.5 -26 5.5 -40c0 -45.333 -17.333 -81.333 -52 -108s-79 -40 -133 -40c-18 0 -35 1.5 -51 4.5s-30.667 7.5 -44 13.5c-8 -4.66699 -15 -10.5 -21 -17.5
s-9 -15.5 -9 -25.5c0 -12 4.16699 -21.333 12.5 -28s21.833 -10 40.5 -10h171c47.333 0 83.333 -11.167 108 -33.5s37 -50.5 37 -84.5zM87 -45.998c0 -27.333 12.833 -47.332 38.5 -59.999s58.5 -19 98.5 -19c50 0 91.167 6.66699 123.5 20s48.5 35.666 48.5 66.999
c0 20 -7.66699 34 -23 42s-35.666 12 -60.999 12h-141c-22.667 0 -42.334 -4.5 -59.001 -13.5s-25 -25.167 -25 -48.5zM201 536.003v94h87v-94h-87z" />
    <glyph glyph-name="Gcommaaccent" unicode="&#x122;" horiz-adv-x="688" 
d="M306 -120l-0.000976562 69h90v-54c0 -25.333 -6.5 -46.333 -19.5 -63s-36.5 -25 -70.5 -25v35c14 0 23.833 3 29.5 9s8.83398 15.667 9.50098 29h-39zM338.999 -12c-88.667 0 -161.997 30.167 -219.997 90.5s-87 139.166 -87 236.499c0 96.667 29.667 175.334 89 236.001
s132.333 91 219 91c88.667 0 158.167 -23.333 208.5 -70s78.166 -110 83.499 -190l-83 -5c-3.33301 57.333 -23 103.5 -59 138.5s-85.667 52.5 -149 52.5c-64 0 -116.667 -23 -158 -69s-62 -107.667 -62 -185s21.167 -138.833 63.5 -184.5s97.166 -68.5 164.499 -68.5
c58.667 0 106.167 16.833 142.5 50.5s57.166 77.5 62.499 131.5h-192v68h271v-311h-79v112c-14 -40 -41.167 -70.667 -81.5 -92s-84.833 -32 -133.5 -32z" />
    <glyph glyph-name="gcommaaccent" unicode="&#x123;" horiz-adv-x="480" 
d="M289 589l0.000976562 -69h-90v54c0 25.333 6.5 46.333 19.5 63s36.5 25 70.5 25v-35c-14 0 -23.833 -3 -29.5 -9s-8.83398 -15.667 -9.50098 -29h39zM333.001 299c0 30.667 -9 54.334 -27 71.001s-42.333 25 -73 25s-54.834 -8.33301 -72.501 -25
s-26.5 -40.334 -26.5 -71.001c0 -30 8.83301 -53.167 26.5 -69.5s41.834 -24.5 72.501 -24.5s55 8.16699 73 24.5s27 39.5 27 69.5zM476.001 -29c0 -54 -25.833 -92.665 -77.5 -115.998s-109.834 -35 -174.501 -35c-58.667 0 -109.334 9.66699 -152.001 29s-64 49 -64 89
c0 24.667 8.33301 45 25 61s38.334 26.333 65.001 31c-20 6.66699 -34.667 16.667 -44 30s-14 28.333 -14 45c0 18.667 6.16699 35 18.5 49s28.166 25.333 47.499 34c-18 12.667 -32 28.5 -42 47.5s-15 40.5 -15 64.5c0 46 17.167 82.333 51.5 109s78.166 40 131.499 40
c28 0 53.833 -3.83301 77.5 -11.5s43.834 -18.834 60.501 -33.501c11.333 18 26.833 32.5 46.5 43.5s40.834 16.5 63.501 16.5v-72c-14.667 0 -29.667 -1.66699 -45 -5s-28.333 -7.33301 -39 -12c6.66699 -10.667 11.834 -22.334 15.501 -35.001s5.5 -26 5.5 -40
c0 -45.333 -17.333 -81.333 -52 -108s-79 -40 -133 -40c-18 0 -35 1.5 -51 4.5s-30.667 7.5 -44 13.5c-8 -4.66699 -15 -10.5 -21 -17.5s-9 -15.5 -9 -25.5c0 -12 4.16699 -21.333 12.5 -28s21.833 -10 40.5 -10h171c47.333 0 83.333 -11.167 108 -33.5s37 -50.5 37 -84.5z
M87.001 -45.998c0 -27.333 12.833 -47.332 38.5 -59.999s58.5 -19 98.5 -19c50 0 91.167 6.66699 123.5 20s48.5 35.666 48.5 66.999c0 20 -7.66699 34 -23 42s-35.666 12 -60.999 12h-141c-22.667 0 -42.334 -4.5 -59.001 -13.5s-25 -25.167 -25 -48.5z" />
    <glyph glyph-name="Hcircumflex" unicode="&#x124;" horiz-adv-x="658" 
d="M148 0h-87v630h87v-270h362v270h87v-630h-87v289h-362v-289zM281 802h96l80 -126h-60l-68 74l-68 -74h-60z" />
    <glyph glyph-name="hcircumflex" unicode="&#x125;" horiz-adv-x="496" 
d="M140 251l-0.00195312 -251.001h-83v630h83v-271c10.667 26.667 29.334 48.334 56.001 65.001s56.334 25 89.001 25c56.667 0 97.5 -17 122.5 -51s37.5 -76.333 37.5 -127v-271h-83v264c0 36 -8.83301 64.833 -26.5 86.5s-43.5 32.5 -77.5 32.5
c-32.667 0 -60.5 -12 -83.5 -36s-34.5 -56 -34.5 -96zM201.998 801.999h96l80 -126h-60l-68 74l-68 -74h-60z" />
    <glyph glyph-name="Hbar" unicode="&#x126;" horiz-adv-x="695" 
d="M166 334h363v103h-363v-103zM166 262v-262h-86v437h-72v71h72v122h86v-122h363v122h86v-122h72v-71h-72v-437h-86v262h-363z" />
    <glyph glyph-name="hbar" unicode="&#x127;" horiz-adv-x="496" 
d="M140 247l-0.00195312 -247h-83v493h-59v56h59v81h83v-81h143v-56h-143v-137c10.667 26 29.334 47.333 56.001 64s56.334 25 89.001 25c56.667 0 97.5 -17 122.5 -51s37.5 -76 37.5 -126v-268h-83v260c0 36 -8.83301 64.833 -26.5 86.5s-43.5 32.5 -77.5 32.5
c-32.667 0 -60.5 -12 -83.5 -36s-34.5 -56 -34.5 -96z" />
    <glyph glyph-name="Itilde" unicode="&#x128;" horiz-adv-x="209" 
d="M21 674h-50.001c0 36 6.33301 65.167 19 87.5s32 33.5 58 33.5c24.667 0 45 -9.83301 61 -29.5s33 -29.5 51 -29.5c12 0 19.833 4.83301 23.5 14.5s5.83398 23.5 6.50098 41.5h50c0 -36 -6.33301 -65.167 -19 -87.5s-31.667 -33.5 -57 -33.5
c-24.667 0 -45.167 9.66699 -61.5 29s-33.5 29 -51.5 29c-12.667 0 -20.667 -4.66699 -24 -14s-5.33301 -23 -6 -41zM60.999 630h87v-630h-87v630z" />
    <glyph glyph-name="itilde" unicode="&#x129;" horiz-adv-x="196" 
d="M17 512h-48c0 36.667 6.16699 66 18.5 88s30.833 33 55.5 33c24 0 43.5 -9.66699 58.5 -29s30.833 -29 47.5 -29c12.667 0 20.667 4.83301 24 14.5s5.33301 23.167 6 40.5h48c0 -36 -6.16699 -65.167 -18.5 -87.5s-30.833 -33.5 -55.5 -33.5
c-24 0 -43.333 9.83301 -58 29.5s-30.667 29.5 -48 29.5c-12.667 0 -20.667 -4.83301 -24 -14.5s-5.33301 -23.5 -6 -41.5zM57 437h83v-437h-83v437z" />
    <glyph glyph-name="Imacron" unicode="&#x12a;" horiz-adv-x="209" 
d="M-16 683v63h241v-63h-241zM61 630h87v-630h-87v630z" />
    <glyph glyph-name="imacron" unicode="&#x12b;" horiz-adv-x="196" 
d="M-10 515v64h216v-64h-216zM57 437h83v-437h-83v437z" />
    <glyph glyph-name="Ibreve" unicode="&#x12c;" horiz-adv-x="209" 
d="M61 630h87v-630h-87v630zM104 673c-36 0 -64.333 10.833 -85 32.5s-31 53.834 -31 96.501h58c0 -22 4.5 -39.167 13.5 -51.5s23.833 -18.5 44.5 -18.5s35.5 6.16699 44.5 18.5s13.5 29.5 13.5 51.5h58c0 -42.667 -10.333 -74.834 -31 -96.501s-49 -32.5 -85 -32.5z" />
    <glyph glyph-name="ibreve" unicode="&#x12d;" horiz-adv-x="196" 
d="M57 437h83v-437h-83v437zM98 501c-36 0 -64.333 10.833 -85 32.5s-31 53.834 -31 96.501h58c0 -22 4.5 -39.167 13.5 -51.5s23.833 -18.5 44.5 -18.5s35.5 6.16699 44.5 18.5s13.5 29.5 13.5 51.5h58c0 -42.667 -10.333 -74.834 -31 -96.501s-49 -32.5 -85 -32.5z" />
    <glyph glyph-name="Iogonek" unicode="&#x12e;" horiz-adv-x="209" 
d="M61 630l87.001 0.00195312v-630c-34 -20.667 -57.333 -37.834 -70 -51.501s-19 -27.5 -19 -41.5c0 -8.66699 3 -15.834 9 -21.501s15.333 -8.5 28 -8.5c9.33301 0 18.5 1.66699 27.5 5s17.167 7 24.5 11v-46c-8.66699 -5.33301 -18.834 -10.333 -30.501 -15
s-26.167 -7 -43.5 -7c-22.667 0 -41.167 5.66699 -55.5 17s-21.5 28 -21.5 50c0 21.333 7.5 40.833 22.5 58.5s32.833 34.167 53.5 49.5l-12 2v628z" />
    <glyph glyph-name="iogonek" unicode="&#x12f;" horiz-adv-x="196" 
d="M55 536v94h86v-94h-86zM57 437l83 0.00195312v-437c-32.667 -20.667 -55.334 -37.834 -68.001 -51.501s-19 -27.5 -19 -41.5c0 -8.66699 2.83301 -15.834 8.5 -21.501s14.834 -8.5 27.501 -8.5c9.33301 0 18.5 1.66699 27.5 5s17.5 7 25.5 11v-46
c-8.66699 -5.33301 -18.834 -10.333 -30.501 -15s-26.5 -7 -44.5 -7c-22 0 -40.167 5.66699 -54.5 17s-21.5 28 -21.5 50c0 21.333 7.33301 40.833 22 58.5s32.334 34.167 53.001 49.5l-9 2v435z" />
    <glyph glyph-name="Idotaccent" unicode="&#x130;" horiz-adv-x="209" 
d="M61 630h87v-630h-87v630zM61 681v94h87v-94h-87z" />
    <glyph glyph-name="dotlessi" unicode="&#x131;" horiz-adv-x="196" 
d="M57 437h83v-437h-83v437z" />
    <glyph glyph-name="IJ" unicode="&#x132;" horiz-adv-x="717" 
d="M61 630h87v-630h-87v630zM579 630h86.002v-415c0 -75.333 -20 -132 -60 -170s-93.333 -57 -160 -57c-66 0 -119.5 19.5 -160.5 58.5s-62.833 95.833 -65.5 170.5l82 5c3.33301 -50.667 17.166 -90.5 41.499 -119.5s59.166 -43.5 104.499 -43.5c44 0 77 13.167 99 39.5
s33 65.833 33 118.5v413z" />
    <glyph glyph-name="ij" unicode="&#x133;" horiz-adv-x="392" 
d="M55 536v94h86v-94h-86zM57 437h83v-437h-83v437zM251 536v94h86v-94h-86zM336 437l-0.000976562 -496.999c0 -38 -9.83301 -67.5 -29.5 -88.5s-48.834 -31.5 -87.501 -31.5c-18.667 0 -36.667 3.16699 -54 9.5s-31.666 13.833 -42.999 22.5l20 53
c11.333 -7.33301 22.333 -12.833 33 -16.5s22.334 -5.5 35.001 -5.5c14 0 24.667 4.16699 32 12.5s11 21.166 11 38.499v503h83z" />
    <glyph glyph-name="Jcircumflex" unicode="&#x134;" horiz-adv-x="510" 
d="M372 630h86.002v-415c0 -75.333 -20 -132 -60 -170s-93.333 -57 -160 -57c-66 0 -119.5 19.5 -160.5 58.5s-62.833 95.833 -65.5 170.5l82 5c3.33301 -50.667 17.166 -90.5 41.499 -119.5s59.166 -43.5 104.499 -43.5c44 0 77 13.167 99 39.5s33 65.833 33 118.5v413z
M368.002 802h96l80 -126h-60l-68 74l-68 -74h-60z" />
    <glyph glyph-name="jcircumflex" unicode="&#x135;" horiz-adv-x="196" 
d="M140 437l-0.000976562 -496.999c0 -38 -9.83301 -67.5 -29.5 -88.5s-48.834 -31.5 -87.501 -31.5c-18.667 0 -36.667 3.16699 -54 9.5s-31.666 13.833 -42.999 22.5l20 53c11.333 -7.33301 22.333 -12.833 33 -16.5s22.334 -5.5 35.001 -5.5c14 0 24.667 4.16699 32 12.5
s11 21.166 11 38.499v503h83zM48.999 630.001h96l80 -126h-60l-68 74l-68 -74h-60z" />
    <glyph glyph-name="Kcommaaccent" unicode="&#x136;" horiz-adv-x="584" 
d="M252 -120l-0.000976562 69h90v-54c0 -25.333 -6.5 -46.333 -19.5 -63s-36.5 -25 -70.5 -25v35c14 0 23.833 3 29.5 9s8.83398 15.667 9.50098 29h-39zM585.999 0h-105l-260 299l-73 -74v-225h-87v630h87v-311l305 311h103l-271 -277z" />
    <glyph glyph-name="kcommaaccent" unicode="&#x137;" horiz-adv-x="479" 
d="M202 -120l-0.000976562 69h90v-54c0 -25.333 -6.5 -46.333 -19.5 -63s-36.5 -25 -70.5 -25v35c14 0 23.833 3 29.5 9s8.83398 15.667 9.50098 29h-39zM139.999 158v-158h-83v630h83v-391l220 198h104l-201 -179l210 -258h-98l-174 212z" />
    <glyph glyph-name="kgreenlandic" unicode="&#x138;" horiz-adv-x="479" 
d="M140 158v-158h-83v437h83v-198l220 198h104l-201 -179l210 -258h-98l-174 212z" />
    <glyph glyph-name="Lacute" unicode="&#x139;" horiz-adv-x="524" 
d="M135 676h-58l54 126h101zM61 630h87v-558h351v-72h-438v630z" />
    <glyph glyph-name="lacute" unicode="&#x13a;" horiz-adv-x="196" 
d="M126 676h-58l54 126h101zM57 630h83v-630h-83v630z" />
    <glyph glyph-name="Lcommaaccent" unicode="&#x13b;" horiz-adv-x="524" 
d="M235 -120l-0.000976562 69h90v-54c0 -25.333 -6.5 -46.333 -19.5 -63s-36.5 -25 -70.5 -25v35c14 0 23.833 3 29.5 9s8.83398 15.667 9.50098 29h-39zM60.999 630h87v-558h351v-72h-438v630z" />
    <glyph glyph-name="lcommaaccent" unicode="&#x13c;" horiz-adv-x="196" 
d="M53 -120l-0.000976562 69h90v-54c0 -25.333 -6.5 -46.333 -19.5 -63s-36.5 -25 -70.5 -25v35c14 0 23.833 3 29.5 9s8.83398 15.667 9.50098 29h-39zM56.999 630h83v-630h-83v630z" />
    <glyph glyph-name="Lcaron" unicode="&#x13d;" horiz-adv-x="524" 
d="M324 498h-47l15 132h92zM61 630h87v-558h351v-72h-438v630z" />
    <glyph glyph-name="lcaron" unicode="&#x13e;" horiz-adv-x="196" 
d="M225 498h-47l15 132h92zM57 630h83v-630h-83v630z" />
    <glyph glyph-name="Ldot" unicode="&#x13f;" horiz-adv-x="524" 
d="M61 630h87v-558h351v-72h-438v630zM354 286v94h87v-94h-87z" />
    <glyph glyph-name="ldot" unicode="&#x140;" horiz-adv-x="308" 
d="M57 630h83v-630h-83v630zM205 269v94h87v-94h-87z" />
    <glyph glyph-name="Lslash" unicode="&#x141;" horiz-adv-x="528" 
d="M513 0h-438v229l-72 -32v73l72 32v328h87v-293l182 81v-72l-182 -82v-192h351v-72z" />
    <glyph glyph-name="lslash" unicode="&#x142;" horiz-adv-x="236" 
d="M160 0h-83v289l-68 -41v68l68 41v273h83v-231l67 40v-68l-67 -41v-330z" />
    <glyph glyph-name="Nacute" unicode="&#x143;" horiz-adv-x="638" 
d="M356 676h-58l54 126h101zM151 630l345 -482v482h81v-630h-69l-366 506v-506h-81v630h90z" />
    <glyph glyph-name="nacute" unicode="&#x144;" horiz-adv-x="496" 
d="M282 504h-58l54 126h101zM140 251l-0.00195312 -251.001h-83v437h83v-78c10.667 26.667 29.334 48.334 56.001 65.001s56.334 25 89.001 25c56.667 0 97.5 -17 122.5 -51s37.5 -76.333 37.5 -127v-271h-83v264c0 36 -8.83301 64.833 -26.5 86.5s-43.5 32.5 -77.5 32.5
c-32.667 0 -60.5 -12 -83.5 -36s-34.5 -56 -34.5 -96z" />
    <glyph glyph-name="Ncommaaccent" unicode="&#x145;" horiz-adv-x="638" 
d="M282 -120l-0.000976562 69h90v-54c0 -25.333 -6.5 -46.333 -19.5 -63s-36.5 -25 -70.5 -25v35c14 0 23.833 3 29.5 9s8.83398 15.667 9.50098 29h-39zM150.999 630l345 -482v482h81v-630h-69l-366 506v-506h-81v630h90z" />
    <glyph glyph-name="ncommaaccent" unicode="&#x146;" horiz-adv-x="496" 
d="M215 -120l-0.000976562 69h90v-54c0 -25.333 -6.5 -46.333 -19.5 -63s-36.5 -25 -70.5 -25v35c14 0 23.833 3 29.5 9s8.83398 15.667 9.50098 29h-39zM139.999 251l-0.00195312 -251.001h-83v437h83v-78c10.667 26.667 29.334 48.334 56.001 65.001s56.334 25 89.001 25
c56.667 0 97.5 -17 122.5 -51s37.5 -76.333 37.5 -127v-271h-83v264c0 36 -8.83301 64.833 -26.5 86.5s-43.5 32.5 -77.5 32.5c-32.667 0 -60.5 -12 -83.5 -36s-34.5 -56 -34.5 -96z" />
    <glyph glyph-name="Ncaron" unicode="&#x147;" horiz-adv-x="638" 
d="M375 676h-96l-80 126h60l68 -74l68 74h60zM151 630l345 -482v482h81v-630h-69l-366 506v-506h-81v630h90z" />
    <glyph glyph-name="ncaron" unicode="&#x148;" horiz-adv-x="496" 
d="M302 504h-96l-80 126h60l68 -75l68 75h60zM140 251l-0.00195312 -251.001h-83v437h83v-78c10.667 26.667 29.334 48.334 56.001 65.001s56.334 25 89.001 25c56.667 0 97.5 -17 122.5 -51s37.5 -76.333 37.5 -127v-271h-83v264c0 36 -8.83301 64.833 -26.5 86.5
s-43.5 32.5 -77.5 32.5c-32.667 0 -60.5 -12 -83.5 -36s-34.5 -56 -34.5 -96z" />
    <glyph glyph-name="Eng" unicode="&#x14a;" horiz-adv-x="638" 
d="M272 -101l48 47c11.333 -16 24.666 -29.333 39.999 -40s35 -16 59 -16c29.333 0 49.5 9 60.5 27s16.5 48.667 16.5 92l-354 497v-506h-81v630h90l345 -490v490h81v-640c0 -60.667 -14.167 -104.167 -42.5 -130.5s-65.166 -39.5 -110.499 -39.5c-36 0 -67 7.5 -93 22.5
s-45.667 33.833 -59 56.5z" />
    <glyph glyph-name="eng" unicode="&#x14b;" horiz-adv-x="496" 
d="M362 -66l-0.00292969 330c0 36 -8.83301 64.833 -26.5 86.5s-43.5 32.5 -77.5 32.5c-32.667 0 -60.5 -12 -83.5 -36s-34.5 -56 -34.5 -96v-251h-83v437h83v-78c10.667 26.667 29.334 48.334 56.001 65.001s56.334 25 89.001 25c56.667 0 97.5 -17 122.5 -51
s37.5 -76.333 37.5 -127v-331c0 -38 -9.83301 -67.5 -29.5 -88.5s-48.834 -31.5 -87.501 -31.5c-18.667 0 -36.667 3.16699 -54 9.5s-31.666 13.833 -42.999 22.5l20 53c11.333 -7.33301 22.333 -12.833 33 -16.5s22.334 -5.5 35.001 -5.5c14 0 24.667 4.16699 32 12.5
s11 21.166 11 38.499z" />
    <glyph glyph-name="Omacron" unicode="&#x14c;" horiz-adv-x="689" 
d="M216 683v63h259v-63h-259zM658 315c0 -96.667 -29.333 -175.334 -88 -236.001s-133.667 -91 -225 -91s-166.333 30.333 -225 91s-88 139.334 -88 236.001s29.333 175.334 88 236.001s133.667 91 225 91s166.333 -30.333 225 -91s88 -139.334 88 -236.001zM568 315
c0 76.667 -20.333 138 -61 184s-94.667 69 -162 69s-121.5 -23 -162.5 -69s-61.5 -107.333 -61.5 -184s20.5 -138 61.5 -184s95.167 -69 162.5 -69s121.333 23 162 69s61 107.333 61 184z" />
    <glyph glyph-name="omacron" unicode="&#x14d;" horiz-adv-x="504" 
d="M123 515v64h257v-64h-257zM475 218c0 -67.333 -21.333 -122.5 -64 -165.5s-96 -64.5 -160 -64.5s-117 21.5 -159 64.5s-63 98.167 -63 165.5s21 122.666 63 165.999s95 65 159 65s117.333 -21.667 160 -65s64 -98.666 64 -165.999zM114 218
c0 -48 11.833 -87.667 35.5 -119s57.5 -47 101.5 -47s78.167 15.667 102.5 47s36.5 71 36.5 119c0 48.667 -12.167 88.5 -36.5 119.5s-58.5 46.5 -102.5 46.5s-77.833 -15.5 -101.5 -46.5s-35.5 -70.833 -35.5 -119.5z" />
    <glyph glyph-name="Obreve" unicode="&#x14e;" horiz-adv-x="689" 
d="M345 673c-36 0 -64.333 10.833 -85 32.5s-31 53.834 -31 96.501h58c0 -22 4.5 -39.167 13.5 -51.5s23.833 -18.5 44.5 -18.5s35.5 6.16699 44.5 18.5s13.5 29.5 13.5 51.5h58c0 -42.667 -10.333 -74.834 -31 -96.501s-49 -32.5 -85 -32.5zM658 315
c0 -96.667 -29.333 -175.334 -88 -236.001s-133.667 -91 -225 -91s-166.333 30.333 -225 91s-88 139.334 -88 236.001s29.333 175.334 88 236.001s133.667 91 225 91s166.333 -30.333 225 -91s88 -139.334 88 -236.001zM568 315c0 76.667 -20.333 138 -61 184
s-94.667 69 -162 69s-121.5 -23 -162.5 -69s-61.5 -107.333 -61.5 -184s20.5 -138 61.5 -184s95.167 -69 162.5 -69s121.333 23 162 69s61 107.333 61 184z" />
    <glyph glyph-name="obreve" unicode="&#x14f;" horiz-adv-x="504" 
d="M475 218c0 -67.333 -21.333 -122.5 -64 -165.5s-96 -64.5 -160 -64.5s-117 21.5 -159 64.5s-63 98.167 -63 165.5s21 122.666 63 165.999s95 65 159 65s117.333 -21.667 160 -65s64 -98.666 64 -165.999zM114 218c0 -48 11.833 -87.667 35.5 -119s57.5 -47 101.5 -47
s78.167 15.667 102.5 47s36.5 71 36.5 119c0 48.667 -12.167 88.5 -36.5 119.5s-58.5 46.5 -102.5 46.5s-77.833 -15.5 -101.5 -46.5s-35.5 -70.833 -35.5 -119.5zM251 501c-36 0 -64.333 10.833 -85 32.5s-31 53.834 -31 96.501h58c0 -22 4.5 -39.167 13.5 -51.5
s23.833 -18.5 44.5 -18.5s35.5 6.16699 44.5 18.5s13.5 29.5 13.5 51.5h58c0 -42.667 -10.333 -74.834 -31 -96.501s-49 -32.5 -85 -32.5z" />
    <glyph glyph-name="Ohungarumlaut" unicode="&#x150;" horiz-adv-x="689" 
d="M658 315c0 -96.667 -29.333 -175.334 -88 -236.001s-133.667 -91 -225 -91s-166.333 30.333 -225 91s-88 139.334 -88 236.001s29.333 175.334 88 236.001s133.667 91 225 91s166.333 -30.333 225 -91s88 -139.334 88 -236.001zM568 315c0 76.667 -20.333 138 -61 184
s-94.667 69 -162 69s-121.5 -23 -162.5 -69s-61.5 -107.333 -61.5 -184s20.5 -138 61.5 -184s95.167 -69 162.5 -69s121.333 23 162 69s61 107.333 61 184zM440 676h-52l51 126h95zM308 676h-52l51 126h95z" />
    <glyph glyph-name="ohungarumlaut" unicode="&#x151;" horiz-adv-x="504" 
d="M342 504h-52l51 126h95zM210 504h-52l51 126h95zM475 218c0 -67.333 -21.333 -122.5 -64 -165.5s-96 -64.5 -160 -64.5s-117 21.5 -159 64.5s-63 98.167 -63 165.5s21 122.666 63 165.999s95 65 159 65s117.333 -21.667 160 -65s64 -98.666 64 -165.999zM114 218
c0 -48 11.833 -87.667 35.5 -119s57.5 -47 101.5 -47s78.167 15.667 102.5 47s36.5 71 36.5 119c0 48.667 -12.167 88.5 -36.5 119.5s-58.5 46.5 -102.5 46.5s-77.833 -15.5 -101.5 -46.5s-35.5 -70.833 -35.5 -119.5z" />
    <glyph glyph-name="OE" unicode="&#x152;" horiz-adv-x="951" 
d="M913 72v-72h-559c-98.667 0 -177 28 -235 84s-87 133 -87 231s29 175 87 231s136.333 84 235 84h550v-72h-356v-198h283v-71h-283v-217h365zM464 559h-105c-76.667 0 -135.5 -21.667 -176.5 -65s-61.5 -103 -61.5 -179s20.5 -135.667 61.5 -179s99.833 -65 176.5 -65h105
v488z" />
    <glyph glyph-name="oe" unicode="&#x153;" horiz-adv-x="844" 
d="M609 -12c-39.333 0 -74.4971 7.99902 -105.497 23.999s-56.167 38 -75.5 66c-19.333 -27.333 -44 -49.166 -74 -65.499s-64.333 -24.5 -103 -24.5c-64 0 -117 21.5 -159 64.5s-63 98.167 -63 165.5s21 122.666 63 165.999s95 65 159 65c38 0 72.667 -8.33301 104 -25
s56.666 -39.334 75.999 -68.001c18.667 28.667 43.167 51.334 73.5 68.001s63.833 25 100.5 25c69.333 0 121.666 -21.5 156.999 -64.5s53 -94.167 53 -153.5v-31h-348c2 -43.333 16.667 -78.666 44 -105.999s60.333 -41 99 -41c36 0 65.167 8.66699 87.5 26
s37.833 43 46.5 77l69 -8c-10.667 -50 -33.834 -89.167 -69.501 -117.5s-80.5 -42.5 -134.5 -42.5zM468.003 249.999h262.001c-0.666992 35.333 -11.5 66.833 -32.5 94.5s-51.833 41.5 -92.5 41.5c-39.333 0 -70.833 -13.667 -94.5 -41s-37.834 -59 -42.501 -95z
M114.004 217.999c0 -48 11.833 -87.667 35.5 -119s57.5 -47 101.5 -47s78.167 15.667 102.5 47s36.5 71 36.5 119c0 48.667 -12.167 88.5 -36.5 119.5s-58.5 46.5 -102.5 46.5s-77.833 -15.5 -101.5 -46.5s-35.5 -70.833 -35.5 -119.5z" />
    <glyph glyph-name="Racute" unicode="&#x154;" horiz-adv-x="599" 
d="M146 323h166c53.333 0 92.5 10 117.5 30s37.5 49.333 37.5 88c0 36 -12.5 64.667 -37.5 86s-64.167 32 -117.5 32h-166v-236zM563 0l-89.999 -0.00195312c-6 8.66699 -11.167 24.5 -15.5 47.5s-7.83301 52.833 -10.5 89.5c-2 34.667 -12.333 62.834 -31 84.501
s-49.334 32.5 -92.001 32.5h-178v-254h-85v630h256c79.333 0 138.666 -17 177.999 -51s59 -79 59 -135c0 -48 -14.333 -85 -43 -111s-62 -41.333 -100 -46c38 -7.33301 66.833 -22.666 86.5 -45.999s30.834 -53.333 33.501 -90c4 -46 7.66699 -79.833 11 -101.5
s10.333 -38.167 21 -49.5zM328.001 675.998h-58l54 126h101z" />
    <glyph glyph-name="racute" unicode="&#x155;" horiz-adv-x="331" 
d="M218 504h-58l54 126h101zM326 429l-7.99805 -75.001c-12 6.66699 -23 11.334 -33 14.001s-21.667 4 -35 4c-31.333 0 -57.5 -13 -78.5 -39s-31.5 -60 -31.5 -102v-231h-83v437h83v-89c8 24.667 22.833 47.667 44.5 69s48.167 32 79.5 32
c13.333 0 25.166 -1.66699 35.499 -5s19.166 -8.33301 26.499 -15z" />
    <glyph glyph-name="Rcommaaccent" unicode="&#x156;" horiz-adv-x="599" 
d="M255 -120l-0.000976562 69h90v-54c0 -25.333 -6.5 -46.333 -19.5 -63s-36.5 -25 -70.5 -25v35c14 0 23.833 3 29.5 9s8.83398 15.667 9.50098 29h-39zM145.999 323h166c53.333 0 92.5 10 117.5 30s37.5 49.333 37.5 88c0 36 -12.5 64.667 -37.5 86s-64.167 32 -117.5 32
h-166v-236zM562.999 0l-89.999 -0.00195312c-6 8.66699 -11.167 24.5 -15.5 47.5s-7.83301 52.833 -10.5 89.5c-2 34.667 -12.333 62.834 -31 84.501s-49.334 32.5 -92.001 32.5h-178v-254h-85v630h256c79.333 0 138.666 -17 177.999 -51s59 -79 59 -135
c0 -48 -14.333 -85 -43 -111s-62 -41.333 -100 -46c38 -7.33301 66.833 -22.666 86.5 -45.999s30.834 -53.333 33.501 -90c4 -46 7.66699 -79.833 11 -101.5s10.333 -38.167 21 -49.5z" />
    <glyph glyph-name="rcommaaccent" unicode="&#x157;" horiz-adv-x="331" 
d="M53 -120l-0.000976562 69h90v-54c0 -25.333 -6.5 -46.333 -19.5 -63s-36.5 -25 -70.5 -25v35c14 0 23.833 3 29.5 9s8.83398 15.667 9.50098 29h-39zM325.999 429l-7.99805 -75.001c-12 6.66699 -23 11.334 -33 14.001s-21.667 4 -35 4c-31.333 0 -57.5 -13 -78.5 -39
s-31.5 -60 -31.5 -102v-231h-83v437h83v-89c8 24.667 22.833 47.667 44.5 69s48.167 32 79.5 32c13.333 0 25.166 -1.66699 35.499 -5s19.166 -8.33301 26.499 -15z" />
    <glyph glyph-name="Rcaron" unicode="&#x158;" horiz-adv-x="599" 
d="M348 676h-96l-80 126h60l68 -74l68 74h60zM146 323h166c53.333 0 92.5 10 117.5 30s37.5 49.333 37.5 88c0 36 -12.5 64.667 -37.5 86s-64.167 32 -117.5 32h-166v-236zM563 0l-89.999 -0.00195312c-6 8.66699 -11.167 24.5 -15.5 47.5s-7.83301 52.833 -10.5 89.5
c-2 34.667 -12.333 62.834 -31 84.501s-49.334 32.5 -92.001 32.5h-178v-254h-85v630h256c79.333 0 138.666 -17 177.999 -51s59 -79 59 -135c0 -48 -14.333 -85 -43 -111s-62 -41.333 -100 -46c38 -7.33301 66.833 -22.666 86.5 -45.999s30.834 -53.333 33.501 -90
c4 -46 7.66699 -79.833 11 -101.5s10.333 -38.167 21 -49.5z" />
    <glyph glyph-name="rcaron" unicode="&#x159;" horiz-adv-x="331" 
d="M236 504h-96l-80 126h60l68 -75l68 75h60zM326 429l-7.99805 -75.001c-12 6.66699 -23 11.334 -33 14.001s-21.667 4 -35 4c-31.333 0 -57.5 -13 -78.5 -39s-31.5 -60 -31.5 -102v-231h-83v437h83v-89c8 24.667 22.833 47.667 44.5 69s48.167 32 79.5 32
c13.333 0 25.166 -1.66699 35.499 -5s19.166 -8.33301 26.499 -15z" />
    <glyph glyph-name="Sacute" unicode="&#x15a;" horiz-adv-x="561" 
d="M22 225l77.9951 4.99707c2.66699 -57.333 21.834 -100.666 57.501 -129.999s79.834 -44 132.501 -44c46.667 0 83.834 9.66699 111.501 29s41.5 46 41.5 80c0 28.667 -9.83301 50.834 -29.5 66.501s-49.834 27.5 -90.501 35.5l-125 24
c-46 8.66699 -83.667 26.334 -113 53.001s-44 64.334 -44 113.001c0 54.667 20.333 99.167 61 133.5s95.334 51.5 164.001 51.5c78.667 0 139.834 -20 183.501 -60s65.834 -95.333 66.501 -166l-79 -4c-1.33301 52 -17 92.167 -47 120.5s-71 42.5 -123 42.5
c-45.333 0 -80.333 -10.167 -105 -30.5s-37 -47.833 -37 -82.5c0 -30.667 10 -52.667 30 -66s48 -23.333 84 -30l114 -22c57.333 -10.667 100.5 -29.667 129.5 -57s43.5 -66 43.5 -116c0 -58 -22.5 -103 -67.5 -135s-101.167 -48 -168.5 -48
c-77.333 0 -141.333 20.667 -192 62s-76 99.666 -76 174.999zM307.995 675.997h-58l54 126h101z" />
    <glyph glyph-name="sacute" unicode="&#x15b;" horiz-adv-x="433" 
d="M243 504h-58l54 126h101zM25 147l70 5c4 -33.333 17.333 -58.833 40 -76.5s52.667 -26.5 90 -26.5c28.667 0 52.667 5.33301 72 16s29 27 29 49c0 20.667 -7.16699 35.5 -21.5 44.5s-34.833 15.833 -61.5 20.5l-74 13c-40.667 6.66699 -72.667 19.5 -96 38.5
s-35 47.167 -35 84.5c0 40 15.5 72.333 46.5 97s71.5 37 121.5 37c58 0 103.5 -13.333 136.5 -40s51.5 -65 55.5 -115l-67 -4c-4.66699 33.333 -17.5 58 -38.5 74s-49.833 24 -86.5 24c-27.333 0 -49.333 -5.83301 -66 -17.5s-25 -27.5 -25 -47.5
c0 -17.333 5.5 -30.833 16.5 -40.5s27.833 -16.5 50.5 -20.5l82 -13c44 -7.33301 78.333 -20.5 103 -39.5s37 -48.167 37 -87.5c0 -43.333 -17.167 -76.5 -51.5 -99.5s-76.833 -34.5 -127.5 -34.5c-54 0 -99.833 13 -137.5 39s-58.5 66 -62.5 120z" />
    <glyph glyph-name="Scircumflex" unicode="&#x15c;" horiz-adv-x="561" 
d="M22 225l77.9951 4.99707c2.66699 -57.333 21.834 -100.666 57.501 -129.999s79.834 -44 132.501 -44c46.667 0 83.834 9.66699 111.501 29s41.5 46 41.5 80c0 28.667 -9.83301 50.834 -29.5 66.501s-49.834 27.5 -90.501 35.5l-125 24
c-46 8.66699 -83.667 26.334 -113 53.001s-44 64.334 -44 113.001c0 54.667 20.333 99.167 61 133.5s95.334 51.5 164.001 51.5c78.667 0 139.834 -20 183.501 -60s65.834 -95.333 66.501 -166l-79 -4c-1.33301 52 -17 92.167 -47 120.5s-71 42.5 -123 42.5
c-45.333 0 -80.333 -10.167 -105 -30.5s-37 -47.833 -37 -82.5c0 -30.667 10 -52.667 30 -66s48 -23.333 84 -30l114 -22c57.333 -10.667 100.5 -29.667 129.5 -57s43.5 -66 43.5 -116c0 -58 -22.5 -103 -67.5 -135s-101.167 -48 -168.5 -48
c-77.333 0 -141.333 20.667 -192 62s-76 99.666 -76 174.999zM231.995 801.997h96l80 -126h-60l-68 74l-68 -74h-60z" />
    <glyph glyph-name="scircumflex" unicode="&#x15d;" horiz-adv-x="433" 
d="M172 630h96l80 -126h-60l-68 74l-68 -74h-60zM25 147l70 5c4 -33.333 17.333 -58.833 40 -76.5s52.667 -26.5 90 -26.5c28.667 0 52.667 5.33301 72 16s29 27 29 49c0 20.667 -7.16699 35.5 -21.5 44.5s-34.833 15.833 -61.5 20.5l-74 13
c-40.667 6.66699 -72.667 19.5 -96 38.5s-35 47.167 -35 84.5c0 40 15.5 72.333 46.5 97s71.5 37 121.5 37c58 0 103.5 -13.333 136.5 -40s51.5 -65 55.5 -115l-67 -4c-4.66699 33.333 -17.5 58 -38.5 74s-49.833 24 -86.5 24c-27.333 0 -49.333 -5.83301 -66 -17.5
s-25 -27.5 -25 -47.5c0 -17.333 5.5 -30.833 16.5 -40.5s27.833 -16.5 50.5 -20.5l82 -13c44 -7.33301 78.333 -20.5 103 -39.5s37 -48.167 37 -87.5c0 -43.333 -17.167 -76.5 -51.5 -99.5s-76.833 -34.5 -127.5 -34.5c-54 0 -99.833 13 -137.5 39s-58.5 66 -62.5 120z" />
    <glyph glyph-name="Scedilla" unicode="&#x15e;" horiz-adv-x="561" 
d="M391 -102c0 -26.667 -11.5059 -45.5039 -34.5059 -56.5039s-48.833 -16.5 -77.5 -16.5c-24 0 -45.667 4.16699 -65 12.5s-34.333 16.833 -45 25.5l17 32c10.667 -8 23.834 -15.333 39.501 -22s32.5 -10 50.5 -10c14.667 0 26.667 2.33301 36 7s14 12.334 14 23.001
c0 19.333 -10 29.5 -30 30.5s-38.333 -2.16699 -55 -9.5l-20 11l43 64c-66 4 -121.333 24.333 -166 61c-50.667 41.333 -76 99.666 -76 174.999l78 5c2.66699 -57.333 21.834 -100.666 57.501 -129.999s79.834 -44 132.501 -44c46.667 0 83.834 9.66699 111.501 29
s41.5 46 41.5 80c0 28.667 -9.83301 50.834 -29.5 66.501s-49.834 27.5 -90.501 35.5l-125 24c-46 8.66699 -83.667 26.334 -113 53.001s-44 64.334 -44 113.001c0 54.667 20.333 99.167 61 133.5s95.334 51.5 164.001 51.5c78.667 0 139.834 -20 183.501 -60
s65.834 -95.333 66.501 -166l-79 -4c-1.33301 52 -17 92.167 -47 120.5s-71 42.5 -123 42.5c-45.333 0 -80.333 -10.167 -105 -30.5s-37 -47.833 -37 -82.5c0 -30.667 10 -52.667 30 -66s48 -23.333 84 -30l114 -22c57.333 -10.667 100.5 -29.667 129.5 -57
s43.5 -66 43.5 -116c0 -58 -22.667 -103 -68 -135c-42 -30 -94 -46 -156 -48l-25 -33c28 7.33301 54 6.5 78 -2.5s36 -27.167 36 -54.5z" />
    <glyph glyph-name="scedilla" unicode="&#x15f;" horiz-adv-x="433" 
d="M332 -102c0 -26.667 -11.502 -45.5029 -34.502 -56.5029s-48.833 -16.5 -77.5 -16.5c-24 0 -45.667 4.16699 -65 12.5s-34.333 16.833 -45 25.5l17 32c10.667 -8 23.834 -15.333 39.501 -22s32.5 -10 50.5 -10c14.667 0 26.667 2.33301 36 7s14 12.334 14 23.001
c0 19.333 -10 29.5 -30 30.5s-38.333 -2.16699 -55 -9.5l-20 11l43 64c-45.333 2.66699 -84.666 15.334 -117.999 38.001c-37.333 26 -58 66 -62 120l70 5c4 -33.333 17.333 -58.833 40 -76.5s52.667 -26.5 90 -26.5c28.667 0 52.667 5.33301 72 16s29 27 29 49
c0 20.667 -7.16699 35.5 -21.5 44.5s-34.833 15.833 -61.5 20.5l-74 13c-40.667 6.66699 -72.667 19.5 -96 38.5s-35 47.167 -35 84.5c0 40 15.5 72.333 46.5 97s71.5 37 121.5 37c58 0 103.5 -13.333 136.5 -40s51.5 -65 55.5 -115l-67 -4
c-4.66699 33.333 -17.5 58 -38.5 74s-49.833 24 -86.5 24c-27.333 0 -49.333 -5.83301 -66 -17.5s-25 -27.5 -25 -47.5c0 -17.333 5.5 -30.833 16.5 -40.5s27.833 -16.5 50.5 -20.5l82 -13c44 -7.33301 78.333 -20.5 103 -39.5s37 -48.167 37 -87.5
c0 -43.333 -17.333 -76.666 -52 -99.999c-30 -20 -66.333 -31 -109 -33l-25 -34c28 7.33301 54 6.5 78 -2.5s36 -27.167 36 -54.5z" />
    <glyph glyph-name="Scaron" unicode="&#x160;" horiz-adv-x="561" 
d="M22 225l77.9951 4.99707c2.66699 -57.333 21.834 -100.666 57.501 -129.999s79.834 -44 132.501 -44c46.667 0 83.834 9.66699 111.501 29s41.5 46 41.5 80c0 28.667 -9.83301 50.834 -29.5 66.501s-49.834 27.5 -90.501 35.5l-125 24
c-46 8.66699 -83.667 26.334 -113 53.001s-44 64.334 -44 113.001c0 54.667 20.333 99.167 61 133.5s95.334 51.5 164.001 51.5c78.667 0 139.834 -20 183.501 -60s65.834 -95.333 66.501 -166l-79 -4c-1.33301 52 -17 92.167 -47 120.5s-71 42.5 -123 42.5
c-45.333 0 -80.333 -10.167 -105 -30.5s-37 -47.833 -37 -82.5c0 -30.667 10 -52.667 30 -66s48 -23.333 84 -30l114 -22c57.333 -10.667 100.5 -29.667 129.5 -57s43.5 -66 43.5 -116c0 -58 -22.5 -103 -67.5 -135s-101.167 -48 -168.5 -48
c-77.333 0 -141.333 20.667 -192 62s-76 99.666 -76 174.999zM327.995 675.997h-96l-80 126h60l68 -74l68 74h60z" />
    <glyph glyph-name="scaron" unicode="&#x161;" horiz-adv-x="433" 
d="M265 504h-96l-80 126h60l68 -75l68 75h60zM25 147l70 5c4 -33.333 17.333 -58.833 40 -76.5s52.667 -26.5 90 -26.5c28.667 0 52.667 5.33301 72 16s29 27 29 49c0 20.667 -7.16699 35.5 -21.5 44.5s-34.833 15.833 -61.5 20.5l-74 13
c-40.667 6.66699 -72.667 19.5 -96 38.5s-35 47.167 -35 84.5c0 40 15.5 72.333 46.5 97s71.5 37 121.5 37c58 0 103.5 -13.333 136.5 -40s51.5 -65 55.5 -115l-67 -4c-4.66699 33.333 -17.5 58 -38.5 74s-49.833 24 -86.5 24c-27.333 0 -49.333 -5.83301 -66 -17.5
s-25 -27.5 -25 -47.5c0 -17.333 5.5 -30.833 16.5 -40.5s27.833 -16.5 50.5 -20.5l82 -13c44 -7.33301 78.333 -20.5 103 -39.5s37 -48.167 37 -87.5c0 -43.333 -17.167 -76.5 -51.5 -99.5s-76.833 -34.5 -127.5 -34.5c-54 0 -99.833 13 -137.5 39s-58.5 66 -62.5 120z" />
    <glyph glyph-name="Tcommaaccent" unicode="&#x162;" horiz-adv-x="590" 
d="M250 -120l-0.000976562 69h90v-54c0 -25.333 -6.5 -46.333 -19.5 -63s-36.5 -25 -70.5 -25v35c14 0 23.833 3 29.5 9s8.83398 15.667 9.50098 29h-39zM335.999 0h-86v558h-229v72h548v-72h-233v-558z" />
    <glyph glyph-name="tcommaaccent" unicode="&#x163;" horiz-adv-x="306" 
d="M136 -120l-0.000976562 69h90v-54c0 -25.333 -6.5 -46.333 -19.5 -63s-36.5 -25 -70.5 -25v35c14 0 23.833 3 29.5 9s8.83398 15.667 9.50098 29h-39zM71.999 102l-0.000976562 274.999h-66v45l28 5c20.667 4 34.667 11.5 42 22.5s13.333 26.833 18 47.5l13 61h47v-121
h123v-60h-123v-265c0 -19.333 4.33301 -33.666 13 -42.999s22.334 -14 41.001 -14c14 0 28 2.66699 42 8s27.333 11.333 40 18v-56c-16 -12 -32.667 -21.167 -50 -27.5s-38 -9.5 -62 -9.5c-30.667 0 -56 8.5 -76 25.5s-30 46.5 -30 88.5z" />
    <glyph glyph-name="Tcaron" unicode="&#x164;" horiz-adv-x="590" 
d="M343 676h-96l-80 126h60l68 -74l68 74h60zM336 0h-86v558h-229v72h548v-72h-233v-558z" />
    <glyph glyph-name="tcaron" unicode="&#x165;" horiz-adv-x="306" 
d="M265 498h-47l15 132h92zM72 102l-0.000976562 274.999h-66v45l28 5c20.667 4 34.667 11.5 42 22.5s13.333 26.833 18 47.5l13 61h47v-121h123v-60h-123v-265c0 -19.333 4.33301 -33.666 13 -42.999s22.334 -14 41.001 -14c14 0 28 2.66699 42 8s27.333 11.333 40 18v-56
c-16 -12 -32.667 -21.167 -50 -27.5s-38 -9.5 -62 -9.5c-30.667 0 -56 8.5 -76 25.5s-30 46.5 -30 88.5z" />
    <glyph glyph-name="Tbar" unicode="&#x166;" horiz-adv-x="590" 
d="M473 286h-137v-286h-86v286h-136v70h136v202h-229v72h548v-72h-233v-202h137v-70z" />
    <glyph glyph-name="tbar" unicode="&#x167;" horiz-adv-x="319" 
d="M299 25c-16 -12 -32.668 -21.168 -50.001 -27.501s-38 -9.5 -62 -9.5c-30.667 0 -56 8.5 -76 25.5s-30 46.5 -30 88.5v110h-66v56h66v109h-66v45l28 5c20.667 4 34.667 11.5 42 22.5s13.333 26.833 18 47.5l13 61h47v-121h123v-60h-123v-109h115v-56h-115v-100
c0 -19.333 4.33301 -33.666 13 -42.999s22.334 -14 41.001 -14c14 0 28 2.66699 42 8s27.333 11.333 40 18v-56z" />
    <glyph glyph-name="Utilde" unicode="&#x168;" horiz-adv-x="616" 
d="M212 675h-50.001c0 36 7 65 21 87s34.667 33 62 33c26.667 0 49 -9.66699 67 -29s36.667 -29 56 -29c14 0 23.5 4.83301 28.5 14.5s7.83301 23.167 8.5 40.5h50c0 -36 -6.83301 -65 -20.5 -87s-34.5 -33 -62.5 -33c-26.667 0 -49 9.66699 -67 29s-36.667 29 -56 29
c-13.333 0 -22.666 -4.83301 -27.999 -14.5s-8.33301 -23.167 -9 -40.5zM307.999 -12c-70.667 0 -130.834 19.333 -180.501 58s-74.5 103.667 -74.5 195v389h86v-390c0 -60 14.5 -104.833 43.5 -134.5s70.833 -44.5 125.5 -44.5s96.834 14.833 126.501 44.5
s44.5 74.167 44.5 133.5v391h85v-389c0 -91.333 -25 -156.333 -75 -195s-110.333 -58 -181 -58z" />
    <glyph glyph-name="utilde" unicode="&#x169;" horiz-adv-x="491" 
d="M351 186l0.000976562 250.999h83v-437h-83v77c-10.667 -26 -29 -47.333 -55 -64s-55.333 -25 -88 -25c-56.667 0 -96.834 16.833 -120.501 50.5s-35.5 75.834 -35.5 126.501v272h83v-264c0 -36 8.33301 -65 25 -87s42 -33 76 -33c32.667 0 60 12.167 82 36.5
s33 56.5 33 96.5zM150.001 505.999h-50.001c0 36 7 65 21 87s34.667 33 62 33c26.667 0 49 -9.66699 67 -29s36.667 -29 56 -29c14 0 23.5 4.83301 28.5 14.5s7.83301 23.167 8.5 40.5h50c0 -36 -6.83301 -65 -20.5 -87s-34.5 -33 -62.5 -33c-26.667 0 -49 9.66699 -67 29
s-36.667 29 -56 29c-13.333 0 -22.666 -4.83301 -27.999 -14.5s-8.33301 -23.167 -9 -40.5z" />
    <glyph glyph-name="Umacron" unicode="&#x16a;" horiz-adv-x="616" 
d="M179 683v63h259v-63h-259zM308 -12c-70.667 0 -130.834 19.333 -180.501 58s-74.5 103.667 -74.5 195v389h86v-390c0 -60 14.5 -104.833 43.5 -134.5s70.833 -44.5 125.5 -44.5s96.834 14.833 126.501 44.5s44.5 74.167 44.5 133.5v391h85v-389
c0 -91.333 -25 -156.333 -75 -195s-110.333 -58 -181 -58z" />
    <glyph glyph-name="umacron" unicode="&#x16b;" horiz-adv-x="491" 
d="M351 186l0.000976562 250.999h83v-437h-83v77c-10.667 -26 -29 -47.333 -55 -64s-55.333 -25 -88 -25c-56.667 0 -96.834 16.833 -120.501 50.5s-35.5 75.834 -35.5 126.501v272h83v-264c0 -36 8.33301 -65 25 -87s42 -33 76 -33c32.667 0 60 12.167 82 36.5
s33 56.5 33 96.5zM118.001 514.999v64h257v-64h-257z" />
    <glyph glyph-name="Ubreve" unicode="&#x16c;" horiz-adv-x="616" 
d="M308 673c-36 0 -64.333 10.833 -85 32.5s-31 53.834 -31 96.501h58c0 -22 4.5 -39.167 13.5 -51.5s23.833 -18.5 44.5 -18.5s35.5 6.16699 44.5 18.5s13.5 29.5 13.5 51.5h58c0 -42.667 -10.333 -74.834 -31 -96.501s-49 -32.5 -85 -32.5zM308 -12
c-70.667 0 -130.834 19.333 -180.501 58s-74.5 103.667 -74.5 195v389h86v-390c0 -60 14.5 -104.833 43.5 -134.5s70.833 -44.5 125.5 -44.5s96.834 14.833 126.501 44.5s44.5 74.167 44.5 133.5v391h85v-389c0 -91.333 -25 -156.333 -75 -195s-110.333 -58 -181 -58z" />
    <glyph glyph-name="ubreve" unicode="&#x16d;" horiz-adv-x="491" 
d="M351 186l0.000976562 250.999h83v-437h-83v77c-10.667 -26 -29 -47.333 -55 -64s-55.333 -25 -88 -25c-56.667 0 -96.834 16.833 -120.501 50.5s-35.5 75.834 -35.5 126.501v272h83v-264c0 -36 8.33301 -65 25 -87s42 -33 76 -33c32.667 0 60 12.167 82 36.5
s33 56.5 33 96.5zM246.001 500.999c-36 0 -64.333 10.833 -85 32.5s-31 53.834 -31 96.501h58c0 -22 4.5 -39.167 13.5 -51.5s23.833 -18.5 44.5 -18.5s35.5 6.16699 44.5 18.5s13.5 29.5 13.5 51.5h58c0 -42.667 -10.333 -74.834 -31 -96.501s-49 -32.5 -85 -32.5z" />
    <glyph glyph-name="Uring" unicode="&#x16e;" horiz-adv-x="616" 
d="M308 -12c-70.667 0 -130.834 19.333 -180.501 58s-74.5 103.667 -74.5 195v389h86v-390c0 -60 14.5 -104.833 43.5 -134.5s70.833 -44.5 125.5 -44.5s96.834 14.833 126.501 44.5s44.5 74.167 44.5 133.5v391h85v-389c0 -91.333 -25 -156.333 -75 -195
s-110.333 -58 -181 -58zM220 744c0 23.333 8 43.166 24 59.499s37.333 24.5 64 24.5s48 -8.16699 64 -24.5s24 -36.166 24 -59.499c0 -24 -8 -44.167 -24 -60.5s-37.333 -24.5 -64 -24.5s-48 8.16699 -64 24.5s-24 36.5 -24 60.5zM265 744
c0 -12.667 3.66699 -23.167 11 -31.5s18 -12.5 32 -12.5s24.667 4.16699 32 12.5s11 18.833 11 31.5s-3.66699 23 -11 31s-18 12 -32 12s-24.667 -4 -32 -12s-11 -18.333 -11 -31z" />
    <glyph glyph-name="uring" unicode="&#x16f;" horiz-adv-x="491" 
d="M158 572c0 23.333 8 43.166 24 59.499s37.333 24.5 64 24.5s48 -8.16699 64 -24.5s24 -36.166 24 -59.499c0 -24 -8 -44.167 -24 -60.5s-37.333 -24.5 -64 -24.5s-48 8.16699 -64 24.5s-24 36.5 -24 60.5zM203 572c0 -12.667 3.66699 -23.167 11 -31.5s18 -12.5 32 -12.5
s24.667 4.16699 32 12.5s11 18.833 11 31.5s-3.66699 23 -11 31s-18 12 -32 12s-24.667 -4 -32 -12s-11 -18.333 -11 -31zM351 186l0.000976562 250.999h83v-437h-83v77c-10.667 -26 -29 -47.333 -55 -64s-55.333 -25 -88 -25c-56.667 0 -96.834 16.833 -120.501 50.5
s-35.5 75.834 -35.5 126.501v272h83v-264c0 -36 8.33301 -65 25 -87s42 -33 76 -33c32.667 0 60 12.167 82 36.5s33 56.5 33 96.5z" />
    <glyph glyph-name="Uhungarumlaut" unicode="&#x170;" horiz-adv-x="616" 
d="M308 -12c-70.667 0 -130.834 19.333 -180.501 58s-74.5 103.667 -74.5 195v389h86v-390c0 -60 14.5 -104.833 43.5 -134.5s70.833 -44.5 125.5 -44.5s96.834 14.833 126.501 44.5s44.5 74.167 44.5 133.5v391h85v-389c0 -91.333 -25 -156.333 -75 -195
s-110.333 -58 -181 -58zM404 676h-52l51 126h95zM272 676h-52l51 126h95z" />
    <glyph glyph-name="uhungarumlaut" unicode="&#x171;" horiz-adv-x="491" 
d="M351 186l0.000976562 250.999h83v-437h-83v77c-10.667 -26 -29 -47.333 -55 -64s-55.333 -25 -88 -25c-56.667 0 -96.834 16.833 -120.501 50.5s-35.5 75.834 -35.5 126.501v272h83v-264c0 -36 8.33301 -65 25 -87s42 -33 76 -33c32.667 0 60 12.167 82 36.5
s33 56.5 33 96.5zM336.001 503.999h-52l51 126h95zM204.001 503.999h-52l51 126h95z" />
    <glyph glyph-name="Uogonek" unicode="&#x172;" horiz-adv-x="616" 
d="M308 -12c-70.667 0 -130.833 19.334 -180.5 58.001s-74.5 103.667 -74.5 195v389h86v-390c0 -60 14.5 -104.833 43.5 -134.5s70.833 -44.5 125.5 -44.5s96.834 14.833 126.501 44.5s44.5 74.167 44.5 133.5v391h85v-389c0 -91.333 -25 -156.333 -75 -195
c-18 -14 -37.333 -25.333 -58 -34h3c-28.667 -24.667 -49.334 -44.667 -62.001 -60s-19 -30.333 -19 -45c0 -8.66699 2.83301 -15.834 8.5 -21.501s14.834 -8.5 27.501 -8.5c9.33301 0 18.5 1.66699 27.5 5s17.5 7 25.5 11v-46
c-8.66699 -5.33301 -18.834 -10.333 -30.501 -15s-26.5 -7 -44.5 -7c-22 0 -40.167 5.66699 -54.5 17s-21.5 28 -21.5 50c0 24 9.33301 45.667 28 65c11.333 12 23.333 23.333 36 34c-15.333 -2 -31 -3 -47 -3z" />
    <glyph glyph-name="uogonek" unicode="&#x173;" horiz-adv-x="491" 
d="M351 186v251.001h83v-437c-32.667 -20.667 -55.167 -37.834 -67.5 -51.501s-18.5 -27.5 -18.5 -41.5c0 -8.66699 2.83301 -15.834 8.5 -21.501s14.834 -8.5 27.501 -8.5c9.33301 0 18.5 1.66699 27.5 5s17.5 7 25.5 11v-46
c-8.66699 -5.33301 -18.834 -10.333 -30.501 -15s-26.5 -7 -44.5 -7c-22 0 -40.167 5.66699 -54.5 17s-21.5 28 -21.5 50c0 21.333 7.33301 40.833 22 58.5s32.334 34.167 53.001 49.5l-10 2v75c-10.667 -26 -29 -47.333 -55 -64s-55.333 -25 -88 -25
c-56.667 0 -96.834 16.833 -120.501 50.5s-35.5 75.834 -35.5 126.501v272h83v-264c0 -36 8.33301 -65 25 -87s42 -33 76 -33c32.667 0 60 12.167 82 36.5s33 56.5 33 96.5z" />
    <glyph glyph-name="Wcircumflex" unicode="&#x174;" horiz-adv-x="816" 
d="M450 630l140 -524h4l129 524h81l-161 -630h-101l-131 503h-4l-134 -503h-100l-161 630h84l132 -522h4l137 522h81zM360 802h96l80 -126h-60l-68 74l-68 -74h-60z" />
    <glyph glyph-name="wcircumflex" unicode="&#x175;" horiz-adv-x="642" 
d="M273 630h96l80 -126h-60l-68 74l-68 -74h-60zM359 437l94 -331h4l101 331h77l-139 -437h-80l-93 326h-4l-92 -326h-80l-140 437h83l103 -331h4l92 331h70z" />
    <glyph glyph-name="Ycircumflex" unicode="&#x176;" horiz-adv-x="598" 
d="M304 328l190 302h92l-245 -383v-247h-83v247l-246 383h95zM251 802h96l80 -126h-60l-68 74l-68 -74h-60z" />
    <glyph glyph-name="ycircumflex" unicode="&#x177;" horiz-adv-x="460" 
d="M201 -168h-81l71 169l-184 436h87l139 -336h4l134 336h82zM182 630h96l80 -126h-60l-68 74l-68 -74h-60z" />
    <glyph glyph-name="Ydieresis" unicode="&#x178;" horiz-adv-x="598" 
d="M304 328l190 302h92l-245 -383v-247h-83v247l-246 383h95zM328 681v94h81v-94h-81zM190 681v94h82v-94h-82z" />
    <glyph glyph-name="Zacute" unicode="&#x179;" horiz-adv-x="560" 
d="M140 72h390v-72h-500v61l380 497h-375v72h485v-64zM318 676h-58l54 126h101z" />
    <glyph glyph-name="zacute" unicode="&#x17a;" horiz-adv-x="428" 
d="M249 504h-58l54 126h101zM287 373h-249v64h355v-57l-262 -316h268v-64h-369v57z" />
    <glyph glyph-name="Zdotaccent" unicode="&#x17b;" horiz-adv-x="560" 
d="M246 681v94h87v-94h-87zM140 72h390v-72h-500v61l380 497h-375v72h485v-64z" />
    <glyph glyph-name="zdotaccent" unicode="&#x17c;" horiz-adv-x="428" 
d="M287 373h-249v64h355v-57l-262 -316h268v-64h-369v57zM176 536v94h87v-94h-87z" />
    <glyph glyph-name="Zcaron" unicode="&#x17d;" horiz-adv-x="560" 
d="M337 676h-96l-80 126h60l68 -74l68 74h60zM140 72h390v-72h-500v61l380 497h-375v72h485v-64z" />
    <glyph glyph-name="zcaron" unicode="&#x17e;" horiz-adv-x="428" 
d="M267 504h-96l-80 126h60l68 -75l68 75h60zM287 373h-249v64h355v-57l-262 -316h268v-64h-369v57z" />
    <glyph glyph-name="florin" unicode="&#x192;" horiz-adv-x="413" 
d="M41 -103c-6 0 -12.665 0.5 -19.998 1.5s-14.333 1.83301 -21 2.5v63l14 -2c4.66699 -0.666992 8.66699 -1 12 -1c24.667 0 43.167 8 55.5 24s21.5 38.333 27.5 67l54 263h-78v61h91l26 126c8.66699 40 25.5 73 50.5 99s57.5 39 97.5 39c8 0 16 -0.666992 24 -2
s16.333 -3 25 -5v-61c-6 0.666992 -11.833 1.5 -17.5 2.5s-10.834 1.5 -15.501 1.5c-24.667 0 -43.5 -8 -56.5 -24s-22.5 -38 -28.5 -66l-23 -110h101v-61h-114l-58 -279c-8.66699 -42 -24.334 -75.667 -47.001 -101s-55.667 -38 -99 -38z" />
    <glyph glyph-name="Aringacute" unicode="&#x1fa;" horiz-adv-x="638" 
d="M347 834h-58l41 97h101zM229 733c0 22.667 8 41.667 24 57s37.333 23 64 23s48.167 -7.66699 64.5 -23s24.5 -34.333 24.5 -57s-8.16699 -41.5 -24.5 -56.5s-37.833 -22.5 -64.5 -22.5s-48 7.5 -64 22.5s-24 33.833 -24 56.5zM274 733c0 -12 3.5 -21.667 10.5 -29
s17.833 -11 32.5 -11s25.667 3.66699 33 11s11 17 11 29s-3.66699 21.667 -11 29s-18.333 11 -33 11s-25.5 -3.66699 -32.5 -11s-10.5 -17 -10.5 -29zM311 534l-112 -280h231l-115 280h-4zM534 0l-76 185h-287l-74 -185h-85l257 630h95l262 -630h-92z" />
    <glyph glyph-name="aringacute" unicode="&#x1fb;" horiz-adv-x="489" 
d="M270 657h-58l41 98h101zM152 551c0 22.667 8 41.667 24 57s37 23 63 23c26.667 0 48.167 -7.66699 64.5 -23s24.5 -34.333 24.5 -57s-8.16699 -41.5 -24.5 -56.5s-37.833 -22.5 -64.5 -22.5c-26 0 -47 7.5 -63 22.5s-24 33.833 -24 56.5zM196 551
c0 -12 3.66699 -21.667 11 -29s18 -11 32 -11c14.667 0 25.834 3.66699 33.501 11s11.5 17 11.5 29s-3.83301 21.667 -11.5 29s-18.834 11 -33.501 11c-14 0 -24.667 -3.66699 -32 -11s-11 -17 -11 -29zM329 195l-0.000976562 21l-98 -21c-34 -7.33301 -61.333 -16 -82 -26
s-31 -28.333 -31 -55c0 -18.667 6.33301 -34.167 19 -46.5s31.334 -18.5 56.001 -18.5c38 0 70.167 13.333 96.5 40s39.5 62 39.5 106zM408.999 282l0.00195312 -196c0 -11.333 3 -19.833 9 -25.5s14.333 -8.5 25 -8.5c4.66699 0 10.667 0.833008 18 2.5s14 4.16699 20 7.5
v-45c-7.33301 -7.33301 -16.166 -13.5 -26.499 -18.5s-23.833 -7.5 -40.5 -7.5c-22.667 0 -41.334 7.83301 -56.001 23.5s-23.334 36.5 -26.001 62.5c-12 -25.333 -32.333 -46.5 -61 -63.5s-60.667 -25.5 -96 -25.5c-42 0 -75.833 10.833 -101.5 32.5
s-38.5 51.167 -38.5 88.5c0 41.333 16.333 72 49 92s75 35.333 127 46l118 24v17c0 30 -8.33301 53.667 -25 71s-40.334 26 -71.001 26c-31.333 0 -55.833 -8.33301 -73.5 -25s-29.834 -37.667 -36.501 -63l-74 10c8.66699 40.667 28.834 74.5 60.501 101.5
s73.167 40.5 124.5 40.5c54.667 0 97.5 -14 128.5 -42s46.5 -69.667 46.5 -125z" />
    <glyph glyph-name="AEacute" unicode="&#x1fc;" horiz-adv-x="979" 
d="M694 676h-58l54 126h101zM488 564l-208 -305h212v305h-4zM492 0v190h-259l-129 -190h-92l430 630h490v-72h-356v-198h283v-71h-283v-217h365v-72h-449z" />
    <glyph glyph-name="aeacute" unicode="&#x1fd;" horiz-adv-x="776" 
d="M420 504h-58l54 126h101zM231 449c36 0 66.334 -6.66699 91.001 -20s43 -32.666 55 -57.999c18 23.333 41 42.166 69 56.499s58.333 21.5 91 21.5c69.333 0 121.5 -21.5 156.5 -64.5s52.5 -94.167 52.5 -153.5v-33h-348c2.66699 -46 18.167 -81.667 46.5 -107
s60.833 -38 97.5 -38c36 0 65.167 8.66699 87.5 26s37.833 43 46.5 77l69 -8c-10.667 -50 -33.834 -89.167 -69.501 -117.5s-80.5 -42.5 -134.5 -42.5c-42 0 -78.333 9 -109 27s-55 42.667 -73 74c-12.667 -26 -33.667 -49.333 -63 -70s-66 -31 -110 -31
c-48 0 -85.167 11.167 -111.5 33.5s-39.5 52.166 -39.5 89.499c0 42.667 17.5 76.834 52.5 102.501s92.5 38.5 172.5 38.5h72v29c0 33.333 -8.83301 59 -26.5 77s-41.834 27 -72.501 27c-31.333 0 -56.166 -8.33301 -74.499 -25s-30.833 -37.334 -37.5 -62.001l-71 10
c8 40.667 28.167 74.334 60.5 101.001s72.5 40 120.5 40zM537.001 386c-35.333 0 -65.5 -12.333 -90.5 -37s-40.5 -57 -46.5 -97h262c-2 34.667 -13.167 65.667 -33.5 93s-50.833 41 -91.5 41zM195.001 48c35.333 0 67 11.667 95 35s42 57 42 101v14h-69
c-56 0 -94.167 -7 -114.5 -21s-30.5 -34.333 -30.5 -61c0 -18.667 6.33301 -34.667 19 -48s32 -20 58 -20z" />
    <glyph glyph-name="Oslashacute" unicode="&#x1fe;" horiz-adv-x="689" 
d="M121 315c0 -34.667 4.33105 -66.499 12.998 -95.499s21.334 -54.167 38.001 -75.5l306 382c-17.333 13.333 -37.166 23.666 -59.499 30.999s-46.833 11 -73.5 11c-67.333 0 -121.5 -23 -162.5 -69s-61.5 -107.333 -61.5 -184zM344.998 62.001
c67.333 0 121.334 23 162.001 69s61 107.333 61 184c0 34 -4.16699 65.5 -12.5 94.5s-20.5 54.167 -36.5 75.5l-306 -382c17.333 -13.333 37.166 -23.5 59.499 -30.5s46.5 -10.5 72.5 -10.5zM344.999 -11.999c-34.667 0 -67.3311 4.66699 -97.998 14
s-58.334 22.333 -83.001 39l-60 -74l-46 35l62 77c-28 28.667 -49.667 63.167 -65 103.5s-23 84.5 -23 132.5c0 96.667 29.333 175.334 88 236.001s133.667 91 225 91c34.667 0 67.5 -4.83301 98.5 -14.5s59.167 -23.167 84.5 -40.5l53 67l46 -35l-56 -69
c27.333 -28.667 48.666 -63 63.999 -103s23 -84 23 -132c0 -96.667 -29.333 -175.334 -88 -236.001s-133.667 -91 -225 -91zM373.002 676.001h-58l54 126h101z" />
    <glyph glyph-name="oslashacute" unicode="&#x1ff;" horiz-adv-x="504" 
d="M112 218c0 -19.333 2.00098 -37.5 6.00098 -54.5s9.66699 -32.167 17 -45.5l202 238c-11.333 8.66699 -24.333 15.5 -39 20.5s-30.334 7.5 -47.001 7.5c-44 0 -78.167 -15.5 -102.5 -46.5s-36.5 -70.833 -36.5 -119.5zM251.001 52c44.667 0 79.333 15.668 104 47.001
s37 71 37 119c0 19.333 -2 37.333 -6 54s-9.66699 31.667 -17 45l-201 -238c10.667 -8.66699 23 -15.334 37 -20.001s29.333 -7 46 -7zM251 -11.999c-24.667 0 -47.833 3.33496 -69.5 10.002s-41.167 16 -58.5 28l-50 -59l-39 32l51 60c-17.333 20 -31 43.5 -41 70.5
s-15 56.5 -15 88.5c0 67.333 21 122.666 63 165.999s95 65 159 65c24.667 0 48.167 -3.33301 70.5 -10s42.5 -16.334 60.5 -29.001l50 59l39 -31l-52 -62c17.333 -20 31 -43.333 41 -70s15 -56 15 -88c0 -67.333 -21.333 -122.5 -64 -165.5s-96 -64.5 -160 -64.5z
M282.001 504.003h-58l54 126h101z" />
    <glyph glyph-name="Scommaaccent" unicode="&#x218;" horiz-adv-x="561" 
d="M235 -120l-0.000976562 69h90v-54c0 -25.333 -6.5 -46.333 -19.5 -63s-36.5 -25 -70.5 -25v35c14 0 23.833 3 29.5 9s8.83398 15.667 9.50098 29h-39zM21.999 225l77.9951 4.99707c2.66699 -57.333 21.834 -100.666 57.501 -129.999s79.834 -44 132.501 -44
c46.667 0 83.834 9.66699 111.501 29s41.5 46 41.5 80c0 28.667 -9.83301 50.834 -29.5 66.501s-49.834 27.5 -90.501 35.5l-125 24c-46 8.66699 -83.667 26.334 -113 53.001s-44 64.334 -44 113.001c0 54.667 20.333 99.167 61 133.5s95.334 51.5 164.001 51.5
c78.667 0 139.834 -20 183.501 -60s65.834 -95.333 66.501 -166l-79 -4c-1.33301 52 -17 92.167 -47 120.5s-71 42.5 -123 42.5c-45.333 0 -80.333 -10.167 -105 -30.5s-37 -47.833 -37 -82.5c0 -30.667 10 -52.667 30 -66s48 -23.333 84 -30l114 -22
c57.333 -10.667 100.5 -29.667 129.5 -57s43.5 -66 43.5 -116c0 -58 -22.5 -103 -67.5 -135s-101.167 -48 -168.5 -48c-77.333 0 -141.333 20.667 -192 62s-76 99.666 -76 174.999z" />
    <glyph glyph-name="scommaaccent" unicode="&#x219;" horiz-adv-x="433" 
d="M180 -120l-0.000976562 69h90v-54c0 -25.333 -6.5 -46.333 -19.5 -63s-36.5 -25 -70.5 -25v35c14 0 23.833 3 29.5 9s8.83398 15.667 9.50098 29h-39zM24.999 147l70 5c4 -33.333 17.333 -58.833 40 -76.5s52.667 -26.5 90 -26.5c28.667 0 52.667 5.33301 72 16
s29 27 29 49c0 20.667 -7.16699 35.5 -21.5 44.5s-34.833 15.833 -61.5 20.5l-74 13c-40.667 6.66699 -72.667 19.5 -96 38.5s-35 47.167 -35 84.5c0 40 15.5 72.333 46.5 97s71.5 37 121.5 37c58 0 103.5 -13.333 136.5 -40s51.5 -65 55.5 -115l-67 -4
c-4.66699 33.333 -17.5 58 -38.5 74s-49.833 24 -86.5 24c-27.333 0 -49.333 -5.83301 -66 -17.5s-25 -27.5 -25 -47.5c0 -17.333 5.5 -30.833 16.5 -40.5s27.833 -16.5 50.5 -20.5l82 -13c44 -7.33301 78.333 -20.5 103 -39.5s37 -48.167 37 -87.5
c0 -43.333 -17.167 -76.5 -51.5 -99.5s-76.833 -34.5 -127.5 -34.5c-54 0 -99.833 13 -137.5 39s-58.5 66 -62.5 120z" />
    <glyph glyph-name="dotlessj" unicode="&#x237;" horiz-adv-x="196" 
d="M140 437l-0.000976562 -496.999c0 -38 -9.83301 -67.5 -29.5 -88.5s-48.834 -31.5 -87.501 -31.5c-18.667 0 -36.667 3.16699 -54 9.5s-31.666 13.833 -42.999 22.5l20 53c11.333 -7.33301 22.333 -12.833 33 -16.5s22.334 -5.5 35.001 -5.5c14 0 24.667 4.16699 32 12.5
s11 21.166 11 38.499v503h83z" />
    <glyph glyph-name="circumflex" unicode="&#x2c6;" 
d="M202 630h96l80 -126h-60l-68 74l-68 -74h-60z" />
    <glyph glyph-name="caron" unicode="&#x2c7;" 
d="M298 504h-96l-80 126h60l68 -75l68 75h60z" />
    <glyph glyph-name="breve" unicode="&#x2d8;" 
d="M250 501c-36 0 -64.333 10.833 -85 32.5s-31 53.834 -31 96.501h58c0 -22 4.5 -39.167 13.5 -51.5s23.833 -18.5 44.5 -18.5s35.5 6.16699 44.5 18.5s13.5 29.5 13.5 51.5h58c0 -42.667 -10.333 -74.834 -31 -96.501s-49 -32.5 -85 -32.5z" />
    <glyph glyph-name="dotaccent" unicode="&#x2d9;" 
d="M206 536v94h87v-94h-87z" />
    <glyph glyph-name="ring" unicode="&#x2da;" 
d="M162 572c0 23.333 8 43.166 24 59.499s37.333 24.5 64 24.5s48 -8.16699 64 -24.5s24 -36.166 24 -59.499c0 -24 -8 -44.167 -24 -60.5s-37.333 -24.5 -64 -24.5s-48 8.16699 -64 24.5s-24 36.5 -24 60.5zM207 572c0 -12.667 3.66699 -23.167 11 -31.5s18 -12.5 32 -12.5
s24.667 4.16699 32 12.5s11 18.833 11 31.5s-3.66699 23 -11 31s-18 12 -32 12s-24.667 -4 -32 -12s-11 -18.333 -11 -31z" />
    <glyph glyph-name="ogonek" unicode="&#x2db;" 
d="M265 12l52.001 0.00195312c-28.667 -24.667 -49.334 -44.667 -62.001 -60s-19 -30.333 -19 -45c0 -8.66699 2.83301 -15.834 8.5 -21.501s14.834 -8.5 27.501 -8.5c9.33301 0 18.5 1.66699 27.5 5s17.5 7 25.5 11v-46c-8.66699 -5.33301 -18.834 -10.333 -30.501 -15
s-26.5 -7 -44.5 -7c-22 0 -40.167 5.66699 -54.5 17s-21.5 28 -21.5 50c0 24 9.33301 45.667 28 65s39.667 37.666 63 54.999z" />
    <glyph glyph-name="tilde" unicode="&#x2dc;" 
d="M153 506h-50.001c0 36 7 65 21 87s34.667 33 62 33c26.667 0 49 -9.66699 67 -29s36.667 -29 56 -29c14 0 23.5 4.83301 28.5 14.5s7.83301 23.167 8.5 40.5h50c0 -36 -6.83301 -65 -20.5 -87s-34.5 -33 -62.5 -33c-26.667 0 -49 9.66699 -67 29s-36.667 29 -56 29
c-13.333 0 -22.666 -4.83301 -27.999 -14.5s-8.33301 -23.167 -9 -40.5z" />
    <glyph glyph-name="hungarumlaut" unicode="&#x2dd;" 
d="M295 504h-52l51 126h95zM163 504h-52l51 126h95z" />
    <glyph glyph-name="Wgrave" unicode="&#x1e80;" horiz-adv-x="816" 
d="M446 676h-58l-97 126h101zM450 630l140 -524h4l129 524h81l-161 -630h-101l-131 503h-4l-134 -503h-100l-161 630h84l132 -522h4l137 522h81z" />
    <glyph glyph-name="wgrave" unicode="&#x1e81;" horiz-adv-x="642" 
d="M359 437l94 -331h4l101 331h77l-139 -437h-80l-93 326h-4l-92 -326h-80l-140 437h83l103 -331h4l92 331h70zM357 504h-58l-97 126h101z" />
    <glyph glyph-name="Wacute" unicode="&#x1e82;" horiz-adv-x="816" 
d="M437 676h-58l54 126h101zM450 630l140 -524h4l129 524h81l-161 -630h-101l-131 503h-4l-134 -503h-100l-161 630h84l132 -522h4l137 522h81z" />
    <glyph glyph-name="wacute" unicode="&#x1e83;" horiz-adv-x="642" 
d="M351 504h-58l54 126h101zM359 437l94 -331h4l101 331h77l-139 -437h-80l-93 326h-4l-92 -326h-80l-140 437h83l103 -331h4l92 331h70z" />
    <glyph glyph-name="Wdieresis" unicode="&#x1e84;" horiz-adv-x="816" 
d="M437 681v94h81v-94h-81zM299 681v94h82v-94h-82zM450 630l140 -524h4l129 524h81l-161 -630h-101l-131 503h-4l-134 -503h-100l-161 630h84l132 -522h4l137 522h81z" />
    <glyph glyph-name="wdieresis" unicode="&#x1e85;" horiz-adv-x="642" 
d="M350 528v94h81v-94h-81zM212 528v94h82v-94h-82zM359 437l94 -331h4l101 331h77l-139 -437h-80l-93 326h-4l-92 -326h-80l-140 437h83l103 -331h4l92 331h70z" />
    <glyph glyph-name="Ygrave" unicode="&#x1ef2;" horiz-adv-x="598" 
d="M304 328l190 302h92l-245 -383v-247h-83v247l-246 383h95zM337 676h-58l-97 126h101z" />
    <glyph glyph-name="ygrave" unicode="&#x1ef3;" horiz-adv-x="460" 
d="M201 -168h-81l71 169l-184 436h87l139 -336h4l134 336h82zM266 504h-58l-97 126h101z" />
    <glyph glyph-name="endash" unicode="&#x2013;" 
d="M57 224v61h386v-61h-386z" />
    <glyph glyph-name="emdash" unicode="&#x2014;" horiz-adv-x="1000" 
d="M57 224v61h886v-61h-886z" />
    <glyph glyph-name="quoteleft" unicode="&#x2018;" horiz-adv-x="175" 
d="M137 531v-95.001h-99v93c0 34.667 6.5 61.667 19.5 81s39.5 29 79.5 29v-48c-18.667 -1.33301 -31.167 -6.16602 -37.5 -14.499s-9.5 -23.5 -9.5 -45.5h47z" />
    <glyph glyph-name="quoteright" unicode="&#x2019;" horiz-adv-x="175" 
d="M38 535v95.001h99v-94c0 -34.667 -6.5 -61.5 -19.5 -80.5s-39.5 -28.833 -79.5 -29.5v49c18.667 1.33301 31.167 6.16602 37.5 14.499s9.5 23.5 9.5 45.5h-47z" />
    <glyph glyph-name="quotesinglbase" unicode="&#x201a;" horiz-adv-x="175" 
d="M38 0v95.001h99v-94c0 -34 -6.5 -60.667 -19.5 -80s-39.5 -29.333 -79.5 -30v49c18.667 1.33301 31.167 6.16602 37.5 14.499s9.5 23.5 9.5 45.5h-47z" />
    <glyph glyph-name="quotedblleft" unicode="&#x201c;" horiz-adv-x="323" 
d="M285 531v-95.001h-99v93c0 34.667 6.5 61.667 19.5 81s39.5 29 79.5 29v-48c-18.667 -1.33301 -31.167 -6.16602 -37.5 -14.499s-9.5 -23.5 -9.5 -45.5h47zM137 530.999v-95.001h-99v93c0 34.667 6.5 61.667 19.5 81s39.5 29 79.5 29v-48
c-18.667 -1.33301 -31.167 -6.16602 -37.5 -14.499s-9.5 -23.5 -9.5 -45.5h47z" />
    <glyph glyph-name="quotedblright" unicode="&#x201d;" horiz-adv-x="323" 
d="M38 535v95.001h99v-94c0 -34.667 -6.5 -61.5 -19.5 -80.5s-39.5 -28.833 -79.5 -29.5v49c18.667 1.33301 31.167 6.16602 37.5 14.499s9.5 23.5 9.5 45.5h-47zM186 535.001v95.001h99v-94c0 -34.667 -6.5 -61.5 -19.5 -80.5s-39.5 -28.833 -79.5 -29.5v49
c18.667 1.33301 31.167 6.16602 37.5 14.499s9.5 23.5 9.5 45.5h-47z" />
    <glyph glyph-name="quotedblbase" unicode="&#x201e;" horiz-adv-x="323" 
d="M38 0v95.001h99v-94c0 -34 -6.5 -60.667 -19.5 -80s-39.5 -29.333 -79.5 -30v49c18.667 1.33301 31.167 6.16602 37.5 14.499s9.5 23.5 9.5 45.5h-47zM186 0.000976562v95.001h99v-94c0 -34 -6.5 -60.667 -19.5 -80s-39.5 -29.333 -79.5 -30v49
c18.667 1.33301 31.167 6.16602 37.5 14.499s9.5 23.5 9.5 45.5h-47z" />
    <glyph glyph-name="dagger" unicode="&#x2020;" horiz-adv-x="313" 
d="M291 483h-104v-228h-60v228h-105v58h105v98h60v-98h104v-58z" />
    <glyph glyph-name="daggerdbl" unicode="&#x2021;" horiz-adv-x="323" 
d="M132 255v94h-105v56h105v85h-105v55h105v94h59v-94h105v-55h-105v-85h105v-56h-105v-94h-59z" />
    <glyph glyph-name="bullet" unicode="&#x2022;" horiz-adv-x="334" 
d="M288 256c0 -35.333 -11.833 -64.333 -35.5 -87s-52.5 -34 -86.5 -34c-33.333 0 -61.666 11.333 -84.999 34s-35 51.667 -35 87c0 34.667 11.667 63.5 35 86.5s51.666 34.5 84.999 34.5c34 0 62.833 -11.5 86.5 -34.5s35.5 -51.833 35.5 -86.5z" />
    <glyph glyph-name="ellipsis" unicode="&#x2026;" horiz-adv-x="527" 
d="M389 0v100h100v-100h-100zM214 0v100h100v-100h-100zM38 0v100h100v-100h-100z" />
    <glyph glyph-name="perthousand" unicode="&#x2030;" horiz-adv-x="1062" 
d="M28 476c0 52 14.333 92.667 43 122s63.334 44 104.001 44c41.333 0 76.333 -14.667 105 -44s43 -70 43 -122s-14.333 -92.667 -43 -122s-63.667 -44 -105 -44c-40.667 0 -75.334 14.667 -104.001 44s-43 70 -43 122zM561 630l-322 -630h-68l323 630h67zM99 476
c0 -39.333 7 -67.666 21 -84.999s32.333 -26 55 -26c23.333 0 42 8.66699 56 26s21 45.666 21 84.999s-7 67.666 -21 84.999s-32.667 26 -56 26c-22.667 0 -41 -8.66699 -55 -26s-21 -45.666 -21 -84.999zM1038 154c0 -52 -14.333 -92.667 -43 -122s-63.667 -44 -105 -44
c-40.667 0 -75.334 14.667 -104.001 44s-43 70 -43 122s14.333 92.667 43 122s63.334 44 104.001 44c41.333 0 76.333 -14.667 105 -44s43 -70 43 -122zM705 154c0 -52 -14.5 -92.667 -43.5 -122s-63.833 -44 -104.5 -44s-75.5 14.667 -104.5 44s-43.5 70 -43.5 122
s14.5 92.667 43.5 122s63.833 44 104.5 44s75.5 -14.667 104.5 -44s43.5 -70 43.5 -122zM966 154c0 39.333 -6.83301 67.666 -20.5 84.999s-32.167 26 -55.5 26c-22.667 0 -41 -8.66699 -55 -26s-21 -45.666 -21 -84.999s7 -67.666 21 -84.999s32.333 -26 55 -26
c23.333 0 41.833 8.66699 55.5 26s20.5 45.666 20.5 84.999zM633 154c0 39.333 -7 67.666 -21 84.999s-32.333 26 -55 26s-41 -8.66699 -55 -26s-21 -45.666 -21 -84.999s7 -67.666 21 -84.999s32.333 -26 55 -26s41 8.66699 55 26s21 45.666 21 84.999z" />
    <glyph glyph-name="guilsinglleft" unicode="&#x2039;" horiz-adv-x="242" 
d="M46 185v66l150 129v-81l-93 -81l93 -80v-82z" />
    <glyph glyph-name="guilsinglright" unicode="&#x203a;" horiz-adv-x="242" 
d="M196 251v-66l-150 -129v82l93 80l-93 81v81z" />
    <glyph glyph-name="fraction" unicode="&#x2044;" horiz-adv-x="490" 
d="M484 630l-406 -630h-68l406 630h68z" />
    <glyph glyph-name="Euro" unicode="&#x20ac;" horiz-adv-x="613" 
d="M580 251c-4.66699 -76.667 -28.167 -139.667 -70.5 -189s-100.833 -74 -175.5 -74c-66.667 0 -122.167 21.333 -166.5 64s-72.833 100 -85.5 172h-67v54h60c-0.666992 6 -1 12 -1 18v19v17.5c0 5.66699 0.333008 11.167 1 16.5h-60v54h66
c12.667 72.667 41.167 130.667 85.5 174s100.166 65 167.499 65c75.333 0 134 -25 176 -75s65.333 -112.667 70 -188l-81 -4c-3.33301 54 -18.666 99.833 -45.999 137.5s-67 56.5 -119 56.5c-46 0 -83 -14.833 -111 -44.5s-46.667 -70.167 -56 -121.5h193l-10 -54h-189
c-0.666992 -5.33301 -1 -10.833 -1 -16.5v-17.5v-19c0 -6 0.333008 -12 1 -18h180l-10 -54h-163c9.33301 -50 27.833 -89.667 55.5 -119s64.5 -44 110.5 -44c52 0 91.5 17.833 118.5 53.5s42.5 82.5 46.5 140.5z" />
    <glyph glyph-name="trademark" unicode="&#x2122;" horiz-adv-x="631" 
d="M166 370h-56v212h-90v48h238v-48h-92v-212zM450 370h-44l-63 205h-2v-205h-51v260h84l56 -191h2l56 191h81v-260h-55v205h-2z" />
    <glyph glyph-name="uni2153" unicode="&#x2153;" horiz-adv-x="735" 
d="M27 527v46c26.667 0 47 4.66699 61 14s24.333 24.333 31 45h51v-390h-70v285h-73zM558 630l-406 -630h-68l406 630h68zM632 109c0 19.333 -7 34.168 -21 44.501s-31.333 15.5 -52 15.5c-6.66699 0 -12.834 -0.166992 -18.501 -0.5s-10.834 -0.833008 -15.501 -1.5v54
c3.33301 -0.666992 8 -1 14 -1h20c17.333 0 32.666 4.33301 45.999 13s20 23.667 20 45c0 18 -5.66699 32.667 -17 44s-28.333 17 -51 17c-23.333 0 -41.833 -7.66699 -55.5 -23s-20.5 -36.333 -20.5 -63l-68 2c0 40 13 73.5 39 100.5s61.667 40.5 107 40.5
c43.333 0 77 -10.333 101 -31s36 -47.667 36 -81c0 -24 -7.5 -44 -22.5 -60s-31.833 -25.333 -50.5 -28c24 -3.33301 43.667 -13.333 59 -30s23 -37.334 23 -62.001c0 -34 -13.167 -61 -39.5 -81s-61.166 -30 -104.499 -30c-48 0 -85.667 12.5 -113 37.5
s-41 58.833 -41 101.5l69 -2c0.666992 -26.667 8.83398 -46.667 24.501 -60s35.834 -20 60.501 -20c20.667 0 37.667 5.16699 51 15.5s20 24.833 20 43.5z" />
    <glyph glyph-name="uni2154" unicode="&#x2154;" horiz-adv-x="850" 
d="M135 300l184 -0.000976562v-60h-290v46l109 91c30.667 25.333 54.5 47.833 71.5 67.5s25.5 41.834 25.5 66.501c0 19.333 -5.16699 35.166 -15.5 47.499s-26.833 18.5 -49.5 18.5s-40 -7 -52 -21s-18 -33.333 -18 -58c0 -6.66699 0.5 -12.667 1.5 -18
s2.16699 -10.666 3.5 -15.999l-71 3c-0.666992 6 -1.5 12 -2.5 18s-1.5 12 -1.5 18c0 40 13.167 72.167 39.5 96.5s60.5 36.5 102.5 36.5c46 0 80.333 -11.667 103 -35s34 -52 34 -86s-11 -63.833 -33 -89.5s-47.333 -50.167 -76 -73.5zM674 629.999l-406 -630h-69l406 630
h69zM748 108.999c0 19.333 -7.00293 34.168 -21.0029 44.501s-31.667 15.5 -53 15.5c-6 0 -12 -0.166992 -18 -0.5s-11.333 -0.833008 -16 -1.5v54c4 -0.666992 9 -1 15 -1h20c16.667 0 31.834 4.33301 45.501 13s20.5 23.667 20.5 45c0 18 -5.66699 32.667 -17 44
s-28.333 17 -51 17c-23.333 0 -41.833 -7.66699 -55.5 -23s-20.5 -36.333 -20.5 -63l-68 2c0 40 13 73.5 39 100.5s61.333 40.5 106 40.5c44 0 78 -10.333 102 -31s36 -47.667 36 -81c0 -24 -7.5 -44 -22.5 -60s-31.833 -25.333 -50.5 -28
c24 -3.33301 43.5 -13.333 58.5 -30s22.5 -37.334 22.5 -62.001c0 -34 -13 -61 -39 -81s-61 -30 -105 -30c-47.333 0 -84.666 12.5 -111.999 37.5s-41 58.833 -41 101.5l69 -2c0.666992 -26.667 8.66699 -46.667 24 -60s35.333 -20 60 -20
c20.667 0 37.834 5.16699 51.501 15.5s20.5 24.833 20.5 43.5z" />
    <glyph glyph-name="uni215B" unicode="&#x215b;" horiz-adv-x="747" 
d="M27 527v46c26.667 0 47 4.66699 61 14s24.333 24.333 31 45h51v-390h-70v285h-73zM558 630l-406 -630h-68l406 630h68zM566 -7c-47.333 0 -84.333 10 -111 30s-40 47 -40 81c0 24.667 7.5 45.334 22.5 62.001s33.167 27 54.5 31c-20.667 8 -36.5 19.5 -47.5 34.5
s-16.5 33.833 -16.5 56.5c0 33.333 13 59.666 39 78.999s59 29 99 29s73.167 -9.66699 99.5 -29s39.5 -45.666 39.5 -78.999c0 -22.667 -5.83301 -41.5 -17.5 -56.5s-27.167 -26.5 -46.5 -34.5c20.667 -4 38.5 -14.333 53.5 -31s22.5 -37.334 22.5 -62.001
c0 -34 -13.167 -61 -39.5 -81s-63.5 -30 -111.5 -30zM566 344c-20.667 0 -37.167 -5.16699 -49.5 -15.5s-18.5 -25.833 -18.5 -46.5c0 -19.333 6.16699 -34.166 18.5 -44.499s28.833 -15.5 49.5 -15.5s37.5 5.16699 50.5 15.5s19.5 25.166 19.5 44.499
c0 20.667 -6.5 36.167 -19.5 46.5s-29.833 15.5 -50.5 15.5zM566 172c-24.667 0 -44 -5.16699 -58 -15.5s-21 -25.833 -21 -46.5s7 -36.5 21 -47.5s33.333 -16.5 58 -16.5c25.333 0 45 5.5 59 16.5s21 26.833 21 47.5s-7 36.167 -21 46.5s-33.667 15.5 -59 15.5z" />
    <glyph glyph-name="uni215C" unicode="&#x215c;" horiz-adv-x="856" 
d="M667 630l-406 -630h-69l406 630h69zM675 -7c-47.333 0 -84.499 10 -111.499 30s-40.5 47 -40.5 81c0 24.667 7.66699 45.334 23 62.001s33.666 27 54.999 31c-20.667 8 -36.5 19.5 -47.5 34.5s-16.5 33.833 -16.5 56.5c0 33.333 13 59.666 39 78.999s59 29 99 29
s73 -9.66699 99 -29s39 -45.666 39 -78.999c0 -22.667 -5.66699 -41.5 -17 -56.5s-27 -26.5 -47 -34.5c21.333 -4 39.5 -14.333 54.5 -31s22.5 -37.334 22.5 -62.001c0 -34 -13.333 -61 -40 -81s-63.667 -30 -111 -30zM253.001 350c0 19.333 -6.99805 34.002 -20.998 44.002
s-31.333 15 -52 15h-18.5c-5.66699 0 -10.834 -0.333008 -15.501 -1v54c3.33301 -0.666992 8 -1 14 -1h20c17.333 0 32.666 4.33301 45.999 13s20 23.334 20 44.001c0 18.667 -5.66699 33.667 -17 45s-28.333 17 -51 17c-23.333 0 -41.833 -7.66699 -55.5 -23
s-20.5 -36.333 -20.5 -63l-68 2c0 40 13 73.5 39 100.5s61.667 40.5 107 40.5c43.333 0 77 -10.333 101 -31s36 -47.667 36 -81c0 -24.667 -7.5 -44.834 -22.5 -60.501s-31.833 -24.834 -50.5 -27.501c24 -3.33301 43.667 -13.333 59 -30s23 -37.334 23 -62.001
c0 -34 -13.167 -61 -39.5 -81s-61.166 -30 -104.499 -30c-48 0 -85.667 12.5 -113 37.5s-41 58.833 -41 101.5l69 -2c0.666992 -26.667 8.66699 -46.667 24 -60s35.666 -20 60.999 -20c20.667 0 37.667 5.16699 51 15.5s20 24.833 20 43.5zM675.003 344.002
c-20.667 0 -37.334 -5.16699 -50.001 -15.5s-19 -25.833 -19 -46.5c0 -19.333 6.33301 -34.166 19 -44.499s29.334 -15.5 50.001 -15.5s37.334 5.16699 50.001 15.5s19 25.166 19 44.499c0 20.667 -6.33301 36.167 -19 46.5s-29.334 15.5 -50.001 15.5zM675.003 172.002
c-24.667 0 -44 -5.16699 -58 -15.5s-21 -25.833 -21 -46.5s7 -36.5 21 -47.5s33.333 -16.5 58 -16.5s44 5.5 58 16.5s21 26.833 21 47.5s-7 36.167 -21 46.5s-33.333 15.5 -58 15.5z" />
    <glyph glyph-name="uni215D" unicode="&#x215d;" horiz-adv-x="842" 
d="M656 630l-407 -630h-68l406 630h69zM664 -7c-47.333 0 -84.499 10 -111.499 30s-40.5 47 -40.5 81c0 24.667 7.66699 45.334 23 62.001s33.666 27 54.999 31c-20.667 8 -36.5 19.5 -47.5 34.5s-16.5 33.833 -16.5 56.5c0 33.333 13 59.666 39 78.999s59 29 99 29
s73 -9.66699 99 -29s39 -45.666 39 -78.999c0 -22.667 -5.66699 -41.5 -17 -56.5s-27 -26.5 -47 -34.5c21.333 -4 39.5 -14.333 54.5 -31s22.5 -37.334 22.5 -62.001c0 -34 -13.333 -61 -40 -81s-63.667 -30 -111 -30zM296.001 630l0.000976562 -60.001h-179
c-0.666992 -10 -2.33398 -26.833 -5.00098 -50.5s-5 -40.167 -7 -49.5c8 8.66699 19 16.334 33 23.001s31 10 51 10c44 0 77.333 -13 100 -39s34 -57 34 -93c0 -41.333 -13.333 -74.5 -40 -99.5s-61.334 -37.5 -104.001 -37.5c-48 0 -84.833 13.167 -110.5 39.5
s-37.5 61.5 -35.5 105.5l68 -5c0 -24.667 6.83301 -44.667 20.5 -60s33.167 -23 58.5 -23c23.333 0 42 7.16699 56 21.5s21 33.833 21 58.5c0 22 -6.83301 40.333 -20.5 55s-32.5 22 -56.5 22c-18 0 -32.833 -4 -44.5 -12s-20.834 -17.333 -27.501 -28l-69 4
c4.66699 26.667 9.83398 61.667 15.501 105s8.83398 81 9.50098 113h232zM664.002 343.999c-20.667 0 -37.334 -5.16699 -50.001 -15.5s-19 -25.833 -19 -46.5c0 -19.333 6.33301 -34.166 19 -44.499s29.334 -15.5 50.001 -15.5s37.334 5.16699 50.001 15.5
s19 25.166 19 44.499c0 20.667 -6.33301 36.167 -19 46.5s-29.334 15.5 -50.001 15.5zM664.002 171.999c-24.667 0 -44 -5.16699 -58 -15.5s-21 -25.833 -21 -46.5s7 -36.5 21 -47.5s33.333 -16.5 58 -16.5s44 5.5 58 16.5s21 26.833 21 47.5s-7 36.167 -21 46.5
s-33.333 15.5 -58 15.5z" />
    <glyph glyph-name="uni215E" unicode="&#x215e;" horiz-adv-x="759" 
d="M570 630l-407 -630h-68l406 630h69zM222 567h-204.002v63h282v-49c-48.667 -50 -81 -103 -97 -159s-24.333 -116 -25 -180h-77c0.666992 66 11.334 126.333 32.001 181s50.334 102.667 89.001 144zM577.998 -7c-48 0 -85.332 10 -111.999 30s-40 47 -40 81
c0 24.667 7.66699 45.334 23 62.001s33.666 27 54.999 31c-20.667 8 -36.667 19.5 -48 34.5s-17 33.833 -17 56.5c0 33.333 13.167 59.666 39.5 78.999s59.5 29 99.5 29s73 -9.66699 99 -29s39 -45.666 39 -78.999c0 -22.667 -5.66699 -41.5 -17 -56.5s-27 -26.5 -47 -34.5
c20.667 -4 38.667 -14.333 54 -31s23 -37.334 23 -62.001c0 -34 -13.333 -61 -40 -81s-63.667 -30 -111 -30zM577.999 344c-20.667 0 -37.334 -5.16699 -50.001 -15.5s-19 -25.833 -19 -46.5c0 -19.333 6.33301 -34.166 19 -44.499s29.334 -15.5 50.001 -15.5
s37.334 5.16699 50.001 15.5s19 25.166 19 44.499c0 20.667 -6.33301 36.167 -19 46.5s-29.334 15.5 -50.001 15.5zM577.999 172c-25.333 0 -45 -5.16699 -59 -15.5s-21 -25.833 -21 -46.5s7 -36.5 21 -47.5s33.667 -16.5 59 -16.5c24.667 0 44 5.5 58 16.5
s21 26.833 21 47.5s-7 36.167 -21 46.5s-33.333 15.5 -58 15.5z" />
    <glyph glyph-name="minus" unicode="&#x2212;" horiz-adv-x="618" 
d="M54 277v70h511v-70h-511z" />
    <glyph glyph-name="approxequal" unicode="&#x2248;" horiz-adv-x="632" 
d="M60 329v68.999c24.667 16 48.667 27.667 72 35s45.333 11 66 11c44 0 83 -7.33301 117 -22s72.667 -22 116 -22c20.667 0 42.834 3.33301 66.501 10s48.5 18.334 74.5 35.001v-69c-26 -16.667 -50.833 -28.5 -74.5 -35.5s-45.834 -10.5 -66.501 -10.5
c-43.333 0 -82 7.33301 -116 22s-73 22 -117 22c-20.667 0 -42.667 -3.5 -66 -10.5s-47.333 -18.5 -72 -34.5zM60 178.999v69c24.667 16.667 48.667 28.5 72 35.5s45.333 10.5 66 10.5c44 0 83 -7.5 117 -22.5s72.667 -22.5 116 -22.5c20.667 0 42.834 3.5 66.501 10.5
s48.5 18.833 74.5 35.5v-69c-26 -16.667 -50.833 -28.5 -74.5 -35.5s-45.834 -10.5 -66.501 -10.5c-43.333 0 -82 7.5 -116 22.5s-73 22.5 -117 22.5c-20.667 0 -42.667 -3.66699 -66 -11s-47.333 -19 -72 -35z" />
    <glyph glyph-name="notequal" unicode="&#x2260;" horiz-adv-x="632" 
d="M572 197h-307l-92 -122h-72l92 122h-133v67h184l70 93h-254v67h305l94 125h72l-94 -125h135v-67h-186l-70 -93h256v-67z" />
    <glyph glyph-name="lessequal" unicode="&#x2264;" horiz-adv-x="469" 
d="M39 337v82l391 177v-76l-316 -142l316 -143v-76zM39 39v70h391v-70h-391z" />
    <glyph glyph-name="greaterequal" unicode="&#x2265;" horiz-adv-x="469" 
d="M430 419v-82l-391 -178v76l316 143l-316 142v76zM430 109v-70h-391v70h391z" />
    <glyph glyph-name="commaaccent" unicode="&#xf6c3;" 
d="M205 -120l-0.000976562 69h90v-54c0 -25.333 -6.5 -46.333 -19.5 -63s-36.5 -25 -70.5 -25v35c14 0 23.833 3 29.5 9s8.83398 15.667 9.50098 29h-39z" />
    <glyph glyph-name=".null" horiz-adv-x="0" 
 />
    <glyph glyph-name="florin.lt" horiz-adv-x="600" 
d="M141 -103c-6.66699 0 -13.4961 0.5 -20.4961 1.5s-13.833 1.83301 -20.5 2.5v63l13.5 -2c4.33301 -0.666992 8.5 -1 12.5 -1c24.667 0 43.167 8 55.5 24s21.166 38.333 26.499 67l55 263h-78v61h91l26 126c8.66699 40 25.5 73 50.5 99s57.5 39 97.5 39
c7.33301 0 15.166 -0.666992 23.499 -2s16.833 -3 25.5 -5v-61c-6 0.666992 -11.833 1.5 -17.5 2.5s-10.834 1.5 -15.501 1.5c-24.667 0 -43.5 -8 -56.5 -24s-22.5 -38 -28.5 -66l-23 -110h101v-61h-114l-58 -279c-8.66699 -42 -24.334 -75.667 -47.001 -101
s-55.667 -38 -99 -38z" />
    <glyph glyph-name="caron.Slovak" 
d="M243 498h-47l15 132h92z" />
    <glyph glyph-name="circumflex.cap" 
d="M202 802h96l80 -126h-60l-68 74l-68 -74h-60z" />
    <glyph glyph-name="caron.cap" 
d="M298 676h-96l-80 126h60l68 -74l68 74h60z" />
    <glyph glyph-name="zero.lt" horiz-adv-x="600" 
d="M559 315c0 -104 -22.667 -184.5 -68 -241.5s-109 -85.5 -191 -85.5s-145.667 28.5 -191 85.5s-68 137.5 -68 241.5s22.667 184.5 68 241.5s109 85.5 191 85.5s145.667 -28.5 191 -85.5s68 -137.5 68 -241.5zM469 315c0 85.333 -13.833 149.5 -41.5 192.5
s-70.167 64.5 -127.5 64.5s-99.833 -21.5 -127.5 -64.5s-41.5 -107.167 -41.5 -192.5s13.833 -149.5 41.5 -192.5s70.167 -64.5 127.5 -64.5s99.833 21.5 127.5 64.5s41.5 107.167 41.5 192.5z" />
    <glyph glyph-name="one.lt" horiz-adv-x="600" 
d="M510 0h-398v72h159v409h-148v59h25c52.667 0 89.167 6.5 109.5 19.5s34.833 37.833 43.5 74.5h57v-562h152v-72z" />
    <glyph glyph-name="two.lt" horiz-adv-x="600" 
d="M203 75l329 -0.000976562v-75h-463v50l178 153c49.333 42.667 90.333 82.167 123 118.5s49 77.5 49 123.5c0 36.667 -10.333 66.834 -31 90.501s-52 35.5 -94 35.5s-74.667 -13 -98 -39s-35 -62 -35 -108c0 -9.33301 0.5 -18.833 1.5 -28.5s2.83301 -19.167 5.5 -28.5
l-87 4c-2 10 -3.5 20 -4.5 30s-1.5 19.667 -1.5 29c0 64 20.167 115.333 60.5 154s93.833 58 160.5 58c72.667 0 126.5 -18.833 161.5 -56.5s52.5 -83.167 52.5 -136.5c0 -56.667 -20.167 -107.5 -60.5 -152.5s-82.833 -86.167 -127.5 -123.5z" />
    <glyph glyph-name="three.lt" horiz-adv-x="600" 
d="M442 173c0 36 -13.3311 63.501 -39.998 82.501s-59.667 28.5 -99 28.5c-12.667 0 -24 -0.333008 -34 -1s-18.667 -1.33398 -26 -2.00098v71c6.66699 -0.666992 14.834 -1.33398 24.501 -2.00098s21.5 -1 35.5 -1c32.667 0 62 8 88 24s39 44 39 84c0 34 -11 61.667 -33 83
s-54.667 32 -98 32c-44 0 -79 -13.833 -105 -41.5s-39 -66.5 -39 -116.5l-84 3c0 64.667 20.667 118.334 62 161.001s97 64 167 64c69.333 0 122.666 -16.5 159.999 -49.5s56 -75.833 56 -128.5c0 -40 -12.667 -73.167 -38 -99.5s-53.333 -41.833 -84 -46.5
c38 -5.33301 70 -21.666 96 -48.999s39 -61.333 39 -102c0 -52 -20.5 -94.833 -61.5 -128.5s-96.167 -50.5 -165.5 -50.5c-74.667 0 -133.667 20.167 -177 60.5s-65 95.166 -65 164.499l85 -4c1.33301 -50 16.166 -87.667 44.499 -113s66.166 -38 113.499 -38
c40.667 0 74 9.83301 100 29.5s39 48.167 39 85.5z" />
    <glyph glyph-name="four.lt" horiz-adv-x="600" 
d="M454 630v-391h115v-71h-115v-168h-85v168h-334v82l314 380h105zM369 552l-256 -313h256v313z" />
    <glyph glyph-name="five.lt" horiz-adv-x="600" 
d="M494 630l0.000976562 -77.999h-302c-0.666992 -16.667 -3.83398 -49.334 -9.50098 -98.001s-10.167 -81 -13.5 -97c14.667 17.333 34.667 32.333 60 45s55.333 19 90 19c71.333 0 125.333 -20.833 162 -62.5s55 -91.5 55 -149.5c0 -65.333 -21.167 -118.5 -63.5 -159.5
s-97.5 -61.5 -165.5 -61.5c-75.333 0 -133.666 21.833 -174.999 65.5s-60.333 100.167 -57 169.5l84 -7c0 -47.333 12.667 -85.666 38 -114.999s62.666 -44 111.999 -44c44 0 78.833 13.667 104.5 41s38.5 64 38.5 110c0 41.333 -12.833 75.666 -38.5 102.999
s-60.5 41 -104.5 41c-34.667 0 -63.5 -8 -86.5 -24s-40.167 -34.667 -51.5 -56l-86 6c8 43.333 16.333 99.833 25 169.5s13.667 130.5 15 182.5h369z" />
    <glyph glyph-name="six.lt" horiz-adv-x="600" 
d="M322 573c-64 0 -110.502 -26.499 -139.502 -79.499s-43.167 -120.5 -42.5 -202.5c10.667 36 32 66.5 64 91.5s73 37.5 123 37.5c68 0 122 -20 162 -60s60 -91 60 -153c0 -64.667 -20.833 -117.334 -62.5 -158.001s-97.5 -61 -167.5 -61c-83.333 0 -147 28.5 -191 85.5
s-66 133.5 -66 229.5c0 98 21.5 179 64.5 243s108.5 96 196.5 96c62 0 112.833 -17 152.5 -51s61.834 -80.333 66.501 -139l-82 -3c-5.33301 36.667 -19.166 66.5 -41.499 89.5s-54.5 34.5 -96.5 34.5zM164.998 204.001c0 -43.333 13.668 -78.5 41.001 -105.5
s64.666 -40.5 111.999 -40.5c46 0 82 13.333 108 40s39 62 39 106s-13 79.5 -39 106.5s-63 40.5 -111 40.5s-85 -13.5 -111 -40.5s-39 -62.5 -39 -106.5z" />
    <glyph glyph-name="seven.lt" horiz-adv-x="600" 
d="M428 552l-363.999 -0.00195312v78h462v-53c-78 -81.333 -132.667 -171.166 -164 -269.499s-47.333 -200.833 -48 -307.5h-94c1.33301 110.667 20.666 213.834 57.999 309.501s87.333 176.5 150 242.5z" />
    <glyph glyph-name="eight.lt" horiz-adv-x="600" 
d="M300 -12c-74 0 -132.167 16.167 -174.5 48.5s-63.5 75.833 -63.5 130.5c0 40.667 13 74.334 39 101.001s56 43.334 90 50.001c-32.667 12 -58.667 30.667 -78 56s-29 56.333 -29 93c0 54 20.5 96.667 61.5 128s92.5 47 154.5 47s113.5 -15.667 154.5 -47
s61.5 -74 61.5 -128c0 -36.667 -9.66699 -67.667 -29 -93s-45.333 -44 -78 -56c34 -6.66699 64 -23.334 90 -50.001s39 -60.334 39 -101.001c0 -54.667 -21.167 -98.167 -63.5 -130.5s-100.5 -48.5 -174.5 -48.5zM300 578c-38 0 -69.333 -9.83301 -94 -29.5
s-37 -48.834 -37 -87.501c0 -36 12.333 -63.667 37 -83s56 -29 94 -29c38.667 0 70.167 9.66699 94.5 29s36.5 47 36.5 83c0 38.667 -12.167 67.834 -36.5 87.501s-55.833 29.5 -94.5 29.5zM300 284c-47.333 0 -84 -9.66699 -110 -29s-39 -47.333 -39 -84s13 -65.5 39 -86.5
s62.667 -31.5 110 -31.5s83.833 10.5 109.5 31.5s38.5 49.833 38.5 86.5s-12.833 64.667 -38.5 84s-62.167 29 -109.5 29z" />
    <glyph glyph-name="nine.lt" horiz-adv-x="600" 
d="M435 426c0 43.333 -13.668 78.5 -41.001 105.5s-64.666 40.5 -111.999 40.5c-46 0 -82 -13.333 -108 -40s-39 -62 -39 -106s13 -79.5 39 -106.5s63 -40.5 111 -40.5s85 13.5 111 40.5s39 62.5 39 106.5zM277.999 57c64 0 110.502 26.499 139.502 79.499
s43.167 120.5 42.5 202.5c-10.667 -36 -32 -66.5 -64 -91.5s-73 -37.5 -123 -37.5c-68 0 -122 20 -162 60s-60 91 -60 153c0 64.667 20.833 117.334 62.5 158.001s97.5 61 167.5 61c83.333 0 147 -28.5 191 -85.5s66 -133.5 66 -229.5c0 -98 -21.5 -179 -64.5 -243
s-108.5 -96 -196.5 -96c-62 0 -112.833 17 -152.5 51s-61.834 80.333 -66.501 139l82 3c5.33301 -36.667 19.166 -66.5 41.499 -89.5s54.5 -34.5 96.5 -34.5z" />
    <glyph glyph-name="hyphen.cap" horiz-adv-x="344" 
d="M57 278v74h230v-74h-230z" />
    <glyph glyph-name="endash.cap" 
d="M57 284v61h386v-61h-386z" />
    <glyph glyph-name="emdash.cap" horiz-adv-x="1000" 
d="M57 284v61h886v-61h-886z" />
    <glyph glyph-name="parenleft.cap" horiz-adv-x="289" 
d="M41 304c0 67.333 12.167 134.168 36.5 200.501s58.5 123.5 102.5 171.5h83c-52 -59.333 -87.5 -120.333 -106.5 -183s-28.5 -125.667 -28.5 -189s9.5 -126.333 28.5 -189s54.5 -123.667 106.5 -183h-83c-44 48 -78.167 105.167 -102.5 171.5s-36.5 133.166 -36.5 200.499
z" />
    <glyph glyph-name="bracketleft.cap" horiz-adv-x="278" 
d="M144 613v-618h90v-63h-168v744h168v-63h-90z" />
    <glyph glyph-name="braceleft.cap" horiz-adv-x="293" 
d="M27 273v63.002h25c20.667 0 33.667 5.33301 39 16s8 29.667 8 57v166c0 32.667 7.16699 57.667 21.5 75s37.5 26 69.5 26h59v-63h-40c-11.333 0 -19.333 -3.33301 -24 -10s-7 -15.667 -7 -27v-170c0 -28 -5 -50.833 -15 -68.5s-28.333 -28.834 -55 -33.501
c26.667 -4.66699 45 -15.834 55 -33.501s15 -40.5 15 -68.5v-170c0 -11.333 2.33301 -20.333 7 -27s12.667 -10 24 -10h40v-63h-59c-32 0 -55.167 8.66699 -69.5 26s-21.5 42.333 -21.5 75v167c0 27.333 -2.66699 46.333 -8 57s-18.333 16 -39 16h-25z" />
    <glyph glyph-name="parenright.cap" horiz-adv-x="289" 
d="M109 676c44 -48 78.167 -105.169 102.5 -171.502s36.5 -133.166 36.5 -200.499s-12.167 -134.166 -36.5 -200.499s-58.5 -123.5 -102.5 -171.5h-83c52 59.333 87.5 120.333 106.5 183s28.5 125.667 28.5 189s-9.5 126.333 -28.5 189s-54.5 123.667 -106.5 183h83z" />
    <glyph glyph-name="bracketright.cap" horiz-adv-x="278" 
d="M133 -5v618h-90v63h169v-744h-169v63h90z" />
    <glyph glyph-name="braceright.cap" horiz-adv-x="293" 
d="M266 336v-63.002h-25c-20.667 0 -33.667 -5.33301 -39 -16s-8 -29.667 -8 -57v-167c0 -32.667 -7.16699 -57.667 -21.5 -75s-37.5 -26 -69.5 -26h-60v63h40c12 0 20.167 3.33301 24.5 10s6.5 15.667 6.5 27v170c0 28 5.16699 50.833 15.5 68.5s28.833 28.834 55.5 33.501
c-26.667 4.66699 -45.167 15.834 -55.5 33.501s-15.5 40.5 -15.5 68.5v170c0 11.333 -2.16699 20.333 -6.5 27s-12.5 10 -24.5 10h-40v63h60c32 0 55.167 -8.66699 69.5 -26s21.5 -42.333 21.5 -75v-166c0 -27.333 2.66699 -46.333 8 -57s18.333 -16 39 -16h25z" />
    <glyph glyph-name="guillemotleft.cap" horiz-adv-x="406" 
d="M46 273v66l150 129v-81l-93 -81l93 -81v-81zM210 273v66l150 129v-81l-93 -81l93 -81v-81z" />
    <glyph glyph-name="guilsinglleft.cap" horiz-adv-x="242" 
d="M46 273v66l150 129v-81l-93 -81l93 -81v-81z" />
    <glyph glyph-name="guillemotright.cap" horiz-adv-x="406" 
d="M360 339v-66l-150 -129v81l93 81l-93 81v81zM196 339v-66l-150 -129v81l93 81l-93 81v81z" />
    <glyph glyph-name="guilsinglright.cap" horiz-adv-x="242" 
d="M196 339v-66l-150 -129v81l93 81l-93 81v81z" />
    <glyph glyph-name="slash.cap" horiz-adv-x="326" 
d="M0 0l247 630h79l-247 -630h-79z" />
    <glyph glyph-name="at.cap" horiz-adv-x="760" 
d="M555 191c32 0 59 14.8301 81 44.4971s33 76.5 33 140.5c0 69.333 -22.333 126.333 -67 171s-107.334 67 -188.001 67c-95.333 0 -172.166 -30.333 -230.499 -91s-87.5 -138.667 -87.5 -234c0 -85.333 27.833 -152.166 83.5 -200.499s123.5 -72.5 203.5 -72.5
c38 0 73.333 3.33301 106 10s66 18.334 100 35.001l22 -43c-33.333 -20 -69.166 -34.5 -107.499 -43.5s-78.833 -13.5 -121.5 -13.5c-97.333 0 -179.833 28.667 -247.5 86s-101.5 138.666 -101.5 243.999c0 106.667 34.833 196.334 104.5 269.001s161.834 109 276.501 109
c99.333 0 177.166 -27.833 233.499 -83.5s84.5 -125.5 84.5 -209.5c0 -81.333 -19.333 -141.666 -58 -180.999s-82 -59 -130 -59c-28 0 -50.167 6.83301 -66.5 20.5s-26.833 30.5 -31.5 50.5c-12 -21.333 -28.5 -38.5 -49.5 -51.5s-45.5 -19.5 -73.5 -19.5
c-38 0 -68.833 12.333 -92.5 37s-35.5 59 -35.5 103c0 53.333 16.5 103 49.5 149s78.5 69 136.5 69c27.333 0 50.666 -6 69.999 -18s32.333 -27 39 -45l15 55h74l-60 -237c-5.33301 -22 -4.5 -37.167 2.5 -45.5s18.167 -12.5 33.5 -12.5zM457 303.997l6 24.001
c7.33301 32.667 4.33301 59.334 -9 80.001s-34.333 31 -63 31c-36 0 -64.5 -17.333 -85.5 -52s-31.5 -71.334 -31.5 -110.001c0 -26.667 5.5 -46.834 16.5 -60.501s27.833 -20.5 50.5 -20.5c24 0 47 9 69 27s37.667 45 47 81z" />
    <glyph glyph-name="backslash.cap" horiz-adv-x="326" 
d="M79 630l247 -630h-79l-247 630h79z" />
    <glyph glyph-name="exclamdown.cap" horiz-adv-x="191" 
d="M46 530v100h100v-100h-100zM140 0h-89v176l25 289h40l24 -289v-176z" />
    <glyph glyph-name="periodcentered.cap" horiz-adv-x="183" 
d="M41 265v100h100v-100h-100z" />
    <glyph glyph-name="questiondown.cap" horiz-adv-x="488" 
d="M304 630v-100h-100v100h100zM212 462l77.999 -0.000976562c0 -28.667 -5.5 -53.5 -16.5 -74.5s-29.833 -42.167 -56.5 -63.5c-23.333 -18.667 -45.666 -38.667 -66.999 -60s-32 -50.333 -32 -87c0 -32.667 10.167 -60.5 30.5 -83.5s50.833 -34.5 91.5 -34.5
c43.333 0 76.666 13 99.999 39s35 62 35 108c0 9.33301 -0.5 18.833 -1.5 28.5s-2.83301 19.167 -5.5 28.5l86 -4c2 -10 3.5 -20 4.5 -30s1.5 -19.667 1.5 -29c0 -64 -20 -115.333 -60 -154s-93.333 -58 -160 -58c-73.333 0 -127 18.667 -161 56s-51 81 -51 131
c0 43.333 13.167 79.833 39.5 109.5s57.166 58.834 92.499 87.501c18.667 14.667 31.834 28.5 39.501 41.5s11.834 29.167 12.501 48.5z" />
    <glyph glyph-name="bullet.cap" horiz-adv-x="334" 
d="M288 316c0 -35.333 -11.833 -64.333 -35.5 -87s-52.5 -34 -86.5 -34c-33.333 0 -61.666 11.333 -84.999 34s-35 51.667 -35 87c0 34.667 11.667 63.5 35 86.5s51.666 34.5 84.999 34.5c34 0 62.833 -11.5 86.5 -34.5s35.5 -51.833 35.5 -86.5z" />
    <glyph glyph-name="percent.lt" horiz-adv-x="800" 
d="M62 476c0 52 14.333 92.667 43 122s63.334 44 104.001 44c41.333 0 76.333 -14.667 105 -44s43 -70 43 -122s-14.333 -92.667 -43 -122s-63.667 -44 -105 -44c-40.667 0 -75.334 14.667 -104.001 44s-43 70 -43 122zM595 630l-322 -630h-68l323 630h67zM133 476
c0 -39.333 7 -67.666 21 -84.999s32.333 -26 55 -26c23.333 0 42 8.66699 56 26s21 45.666 21 84.999s-7 67.666 -21 84.999s-32.667 26 -56 26c-22.667 0 -41 -8.66699 -55 -26s-21 -45.666 -21 -84.999zM739 154c0 -52 -14.5 -92.667 -43.5 -122s-63.833 -44 -104.5 -44
s-75.334 14.667 -104.001 44s-43 70 -43 122s14.333 92.667 43 122s63.334 44 104.001 44s75.5 -14.667 104.5 -44s43.5 -70 43.5 -122zM667 154c0 39.333 -7 67.666 -21 84.999s-32.333 26 -55 26s-41 -8.66699 -55 -26s-21 -45.666 -21 -84.999s7 -67.666 21 -84.999
s32.333 -26 55 -26s41 8.66699 55 26s21 45.666 21 84.999z" />
    <glyph glyph-name="perthousand.lt" horiz-adv-x="1200" 
d="M95 476c0 52 14.333 92.667 43 122s63.334 44 104.001 44c41.333 0 76.333 -14.667 105 -44s43 -70 43 -122s-14.333 -92.667 -43 -122s-63.667 -44 -105 -44c-40.667 0 -75.334 14.667 -104.001 44s-43 70 -43 122zM628 630l-322 -630h-68l323 630h67zM166 476
c0 -39.333 7 -67.666 21 -84.999s32.333 -26 55 -26c23.333 0 42 8.66699 56 26s21 45.666 21 84.999s-7 67.666 -21 84.999s-32.667 26 -56 26c-22.667 0 -41 -8.66699 -55 -26s-21 -45.666 -21 -84.999zM1105 154c0 -52 -14.333 -92.667 -43 -122s-63.667 -44 -105 -44
c-40.667 0 -75.334 14.667 -104.001 44s-43 70 -43 122s14.333 92.667 43 122s63.334 44 104.001 44c41.333 0 76.333 -14.667 105 -44s43 -70 43 -122zM772 154c0 -52 -14.5 -92.667 -43.5 -122s-63.833 -44 -104.5 -44s-75.5 14.667 -104.5 44s-43.5 70 -43.5 122
s14.5 92.667 43.5 122s63.833 44 104.5 44s75.5 -14.667 104.5 -44s43.5 -70 43.5 -122zM1033 154c0 39.333 -6.83301 67.666 -20.5 84.999s-32.167 26 -55.5 26c-22.667 0 -41 -8.66699 -55 -26s-21 -45.666 -21 -84.999s7 -67.666 21 -84.999s32.333 -26 55 -26
c23.333 0 41.833 8.66699 55.5 26s20.5 45.666 20.5 84.999zM700 154c0 39.333 -7 67.666 -21 84.999s-32.333 26 -55 26s-41 -8.66699 -55 -26s-21 -45.666 -21 -84.999s7 -67.666 21 -84.999s32.333 -26 55 -26s41 8.66699 55 26s21 45.666 21 84.999z" />
    <glyph glyph-name="comma.tab" horiz-adv-x="300" 
d="M100 0v100.002h100v-98c0 -34.667 -6.66699 -61.834 -20 -81.501s-40 -29.834 -80 -30.501v49c18.667 1.33301 31.167 6.33301 37.5 15s9.5 24 9.5 46h-47z" />
    <glyph glyph-name="period.tab" horiz-adv-x="300" 
d="M100 0v100h100v-100h-100z" />
    <glyph glyph-name="colon.tab" horiz-adv-x="300" 
d="M100 0v100h100v-100h-100zM100 317v100h100v-100h-100z" />
    <glyph glyph-name="semicolon.tab" horiz-adv-x="300" 
d="M100 0v100.002h100v-98c0 -34.667 -6.66699 -61.834 -20 -81.501s-40 -29.834 -80 -30.501v49c18.667 1.33301 31.167 6.33301 37.5 15s9.5 24 9.5 46h-47zM100 317.002v100h100v-100h-100z" />
    <glyph glyph-name="bar.cap" horiz-adv-x="197" 
d="M61 0v630h75v-630h-75z" />
    <glyph glyph-name="plus.lt" horiz-adv-x="600" 
d="M555 277h-220v-221h-70v221h-220v70h220v221h70v-221h220v-70z" />
    <glyph glyph-name="less.lt" horiz-adv-x="600" 
d="M105 265v90l390 208v-81l-326 -172l326 -172v-82z" />
    <glyph glyph-name="equal.lt" horiz-adv-x="600" 
d="M44 357v68h511v-68h-511zM44 196v68h511v-68h-511z" />
    <glyph glyph-name="greater.lt" horiz-adv-x="600" 
d="M495 355v-90l-390 -209v82l325 172l-325 172v81z" />
    <glyph glyph-name="plusminus.lt" horiz-adv-x="600" 
d="M556 350h-222v-187h-69v187h-222v69h222v187h69v-187h222v-69zM43 39v70h513v-70h-513z" />
    <glyph glyph-name="multiply.lt" horiz-adv-x="600" 
d="M253 308l-162 162l49 49l160 -164l160 164l49 -49l-162 -162l162 -161l-49 -49l-160 163l-160 -163l-49 49z" />
    <glyph glyph-name="divide.lt" horiz-adv-x="600" 
d="M249 469v102h104v-102h-104zM45 277v70h510v-70h-510zM249 53v101h104v-101h-104z" />
    <glyph glyph-name="minus.lt" horiz-adv-x="600" 
d="M45 277v70h510v-70h-510z" />
    <glyph glyph-name="approxequal.lt" horiz-adv-x="600" 
d="M44 329v68.999c24.667 16 48.667 27.667 72 35s45.333 11 66 11c44 0 82.833 -7.33301 116.5 -22s72.5 -22 116.5 -22c20.667 0 42.834 3.33301 66.501 10s48.167 18.334 73.5 35.001v-69c-25.333 -16.667 -49.833 -28.5 -73.5 -35.5s-45.834 -10.5 -66.501 -10.5
c-44 0 -82.833 7.33301 -116.5 22s-72.5 22 -116.5 22c-20.667 0 -42.667 -3.5 -66 -10.5s-47.333 -18.5 -72 -34.5zM44 178.999v69c24.667 16.667 48.667 28.5 72 35.5s45.333 10.5 66 10.5c44 0 82.833 -7.5 116.5 -22.5s72.5 -22.5 116.5 -22.5
c20.667 0 42.834 3.5 66.501 10.5s48.167 18.833 73.5 35.5v-69c-25.333 -16.667 -49.833 -28.5 -73.5 -35.5s-45.834 -10.5 -66.501 -10.5c-44 0 -82.833 7.5 -116.5 22.5s-72.5 22.5 -116.5 22.5c-20.667 0 -42.667 -3.66699 -66 -11s-47.333 -19 -72 -35z" />
    <glyph glyph-name="notequal.lt" horiz-adv-x="600" 
d="M555 197h-306l-92 -122h-72l92 122h-133v67h184l70 93h-254v67h305l94 125h71l-94 -125h135v-67h-186l-70 -93h256v-67z" />
    <glyph glyph-name="lessequal.lt" horiz-adv-x="600" 
d="M104 337v82l391 177v-76l-316 -142l316 -143v-76zM104 39v70h391v-70h-391z" />
    <glyph glyph-name="greaterequal.lt" horiz-adv-x="600" 
d="M495 419v-82l-391 -178v76l316 143l-316 142v76zM495 109v-70h-391v70h391z" />
    <glyph glyph-name="dollar.lt" horiz-adv-x="600" 
d="M265 364l13 -3v215c-41.333 -1.33301 -73 -11.666 -95 -30.999s-33 -46 -33 -80c0 -31.333 10.167 -54.333 30.5 -69s48.5 -25.334 84.5 -32.001zM349 268l-15 3v-216c40 2.66699 72 13.5 96 32.5s36 44.833 36 77.5c0 28.667 -9.5 51 -28.5 67s-48.5 28 -88.5 36z
M334 -102l-55.999 0.00195312v92c-66 6.66699 -120.333 30.167 -163 70.5s-64 95.166 -64 164.499l77 5c2 -50 17 -89.667 45 -119s63 -47.333 105 -54v225l-53 10c-46 8.66699 -83.5 26.667 -112.5 54s-43.5 65.333 -43.5 114c0 53.333 18.667 96.5 56 129.5
s88.333 50.5 153 52.5v87h56v-90c63.333 -7.33301 112.666 -30.333 147.999 -69s53.333 -90 54 -154l-77 -4c-1.33301 44 -13 79.667 -35 107s-52 45 -90 53v-222l43 -8c56.667 -10.667 99.5 -29.334 128.5 -56.001s43.5 -65 43.5 -115c0 -55.333 -20.333 -99 -61 -131
s-92 -49.333 -154 -52v-90z" />
    <glyph glyph-name="cent.lt" horiz-adv-x="600" 
d="M521 179c-3.33301 -48.667 -20.665 -91.001 -51.998 -127.001s-75.333 -57 -132 -63v-87h-57v87c-58 6.66699 -106 30.5 -144 71.5s-57 93.5 -57 157.5s19.167 116.667 57.5 158s86.166 65.333 143.499 72v94h57v-94c56.667 -6 100.667 -27.167 132 -63.5
s48.666 -78.5 51.999 -126.5l-71 -5c-3.33301 34 -14.833 62.667 -34.5 86s-45.834 37.666 -78.501 42.999v-327c32.667 4.66699 58.834 18.334 78.501 41.001s31.5 52.334 35.5 89.001zM161.001 217.999c0 -44.667 10.833 -81.3311 32.5 -109.998
s50.5 -46.334 86.5 -53.001v327c-36 -6.66699 -64.833 -24.334 -86.5 -53.001s-32.5 -65.667 -32.5 -111z" />
    <glyph glyph-name="sterling.lt" horiz-adv-x="600" 
d="M428 -12c-36 0 -67.4971 7.83398 -94.4971 23.501s-51.167 32.834 -72.5 51.501c-11.333 -22.667 -26.833 -40.834 -46.5 -54.501s-43.834 -20.5 -72.501 -20.5c-29.333 0 -54.5 8.5 -75.5 25.5s-31.5 41.5 -31.5 73.5c0 28.667 10.167 52.5 30.5 71.5
s46.833 28.5 79.5 28.5c12.667 0 24.5 -1.5 35.5 -4.5s21.5 -6.83301 31.5 -11.5c-0.666992 22.667 -3.83398 43.334 -9.50098 62.001s-12.5 36.667 -20.5 54h-102v57h76c-6.66699 15.333 -12.167 31.666 -16.5 48.999s-6.5 36.333 -6.5 57
c0 56.667 17.5 102.834 52.5 138.501s82.833 53.5 143.5 53.5c64 0 114.167 -18.5 150.5 -55.5s54.5 -88.167 54.5 -153.5l-76 -4c-0.666992 47.333 -12 83.166 -34 107.499s-52.667 36.5 -92 36.5c-40 0 -69.167 -12 -87.5 -36s-27.5 -53.333 -27.5 -88
c0 -18.667 2.16699 -36.667 6.5 -54s9.5 -34.333 15.5 -51h155v-57h-133c6 -17.333 11.333 -35.333 16 -54s7 -38.334 7 -59.001c0 -8.66699 -0.333008 -17 -1 -25s-1.66699 -15.667 -3 -23c21.333 -16 43.166 -30.833 65.499 -44.5s47.833 -20.5 76.5 -20.5
s49 10.333 61 31s18 48.667 18 84l67 -3c2 -58 -9.5 -103.333 -34.5 -136s-60.167 -49 -105.5 -49zM143.003 42.001c18 0 32 5.83203 42 17.499s17.333 27.834 22 48.501c-10.667 7.33301 -21 13.333 -31 18s-20.333 7 -31 7c-16 0 -28.5 -4 -37.5 -12
s-13.5 -19.333 -13.5 -34c0 -14 4.83301 -25 14.5 -33s21.167 -12 34.5 -12z" />
    <glyph glyph-name="yen.lt" horiz-adv-x="600" 
d="M510 137h-168v-137h-83v137h-169v59h169v71h-169v59h132l-193 304h94l182 -291l175 291h91l-192 -304h131v-59h-168v-71h168v-59z" />
    <glyph glyph-name="Euro.lt" horiz-adv-x="600" 
d="M580 251c-4.66699 -76.667 -27.8301 -139.667 -69.4971 -189s-99.834 -74 -174.501 -74c-66.667 0 -121.834 21.333 -165.501 64s-71.834 100 -84.501 172h-66v54h59c-0.666992 6 -1 12 -1 18v19v17.5c0 5.66699 0.333008 11.167 1 16.5h-59v54h65
c12.667 72.667 40.834 130.667 84.501 174s99.167 65 166.5 65c75.333 0 133.666 -25 174.999 -75s64.333 -112.667 69 -188l-81 -4c-3.33301 54 -18.333 99.833 -45 137.5s-66 56.5 -118 56.5c-46 0 -82.667 -14.833 -110 -44.5s-45.333 -70.167 -54 -121.5h190l-10 -54
h-186c-0.666992 -5.33301 -1 -10.833 -1 -16.5v-17.5v-19c0 -6 0.333008 -12 1 -18h177l-10 -54h-160c8.66699 -50 26.5 -89.667 53.5 -119s63.5 -44 109.5 -44c52 0 91 17.833 117 53.5s41.333 82.5 46 140.5z" />
    <glyph glyph-name="cedilla.alt" horiz-adv-x="573" 
d="M397 -102c0 -26.667 -11.501 -45.501 -34.501 -56.501s-48.833 -16.5 -77.5 -16.5c-24 0 -45.667 4.16699 -65 12.5s-34.333 16.833 -45 25.5l17 32c10.667 -8 23.834 -15.333 39.501 -22s32.5 -10 50.5 -10c14.667 0 26.667 2.33301 36 7s14 12.334 14 23.001
c0 19.333 -10 29.5 -30 30.5s-38.333 -2.16699 -55 -9.5l-20 11l59 86h39l-42 -56c28 7.33301 54 6.5 78 -2.5s36 -27.167 36 -54.5z" />
    <glyph glyph-name="grave.cap" 
d="M327 676h-58l-97 126h101z" />
    <glyph glyph-name="dieresis.cap" 
d="M278 681v94h81v-94h-81zM140 681v94h82v-94h-82z" />
    <glyph glyph-name="macron.cap" 
d="M120 683v63h259v-63h-259z" />
    <glyph glyph-name="acute.cap" 
d="M230 676h-58l54 126h101z" />
    <glyph glyph-name="breve.cap" 
d="M250 673c-36 0 -64.333 10.833 -85 32.5s-31 53.834 -31 96.501h58c0 -22 4.5 -39.167 13.5 -51.5s23.833 -18.5 44.5 -18.5s35.5 6.16699 44.5 18.5s13.5 29.5 13.5 51.5h58c0 -42.667 -10.333 -74.834 -31 -96.501s-49 -32.5 -85 -32.5z" />
    <glyph glyph-name="dotaccent.cap" 
d="M206 681v94h87v-94h-87z" />
    <glyph glyph-name="ring.cap" 
d="M162 744c0 23.333 8 43.166 24 59.499s37.333 24.5 64 24.5s48 -8.16699 64 -24.5s24 -36.166 24 -59.499c0 -24 -8 -44.167 -24 -60.5s-37.333 -24.5 -64 -24.5s-48 8.16699 -64 24.5s-24 36.5 -24 60.5zM207 744c0 -12.667 3.66699 -23.167 11 -31.5s18 -12.5 32 -12.5
s24.667 4.16699 32 12.5s11 18.833 11 31.5s-3.66699 23 -11 31s-18 12 -32 12s-24.667 -4 -32 -12s-11 -18.333 -11 -31z" />
    <glyph glyph-name="tilde.cap" 
d="M153 675h-50.001c0 36 7 65 21 87s34.667 33 62 33c26.667 0 49 -9.66699 67 -29s36.667 -29 56 -29c14 0 23.5 4.83301 28.5 14.5s7.83301 23.167 8.5 40.5h50c0 -36 -6.83301 -65 -20.5 -87s-34.5 -33 -62.5 -33c-26.667 0 -49 9.66699 -67 29s-36.667 29 -56 29
c-13.333 0 -22.666 -4.83301 -27.999 -14.5s-8.33301 -23.167 -9 -40.5z" />
    <glyph glyph-name="hungarumlaut.cap" 
d="M295 676h-52l51 126h95zM163 676h-52l51 126h95z" />
    <glyph glyph-name="space.tab" horiz-adv-x="300" 
 />
    <glyph glyph-name="_452" horiz-adv-x="0" 
 />
    <glyph glyph-name="commaturn" 
d="M295 589l0.000976562 -69h-90v54c0 25.333 6.5 46.333 19.5 63s36.5 25 70.5 25v-35c-14 0 -23.833 -3 -29.5 -9s-8.83398 -15.667 -9.50098 -29h39z" />
    <glyph glyph-name="dotbelow" 
d="M206 -172v95h87v-95h-87z" />
    <glyph glyph-name="idotaccent" horiz-adv-x="196" 
d="M57 437h83v-437h-83v437zM54 536v94h87v-94h-87z" />
    <glyph glyph-name="published" horiz-adv-x="724" 
d="M35 315c0 94.667 32.167 172.834 96.5 234.501s141.166 92.5 230.499 92.5s166.166 -30.833 230.499 -92.5s96.5 -139.834 96.5 -234.501s-32.167 -172.834 -96.5 -234.501s-141.166 -92.5 -230.499 -92.5s-166.166 30.833 -230.499 92.5s-96.5 139.834 -96.5 234.501z
M82 315c0 -81.333 27.5 -148.5 82.5 -201.5s120.833 -79.5 197.5 -79.5s142.5 26.5 197.5 79.5s82.5 120.167 82.5 201.5s-27.5 148.5 -82.5 201.5s-120.833 79.5 -197.5 79.5s-142.5 -26.5 -197.5 -79.5s-82.5 -120.167 -82.5 -201.5zM303 259v-132h-65v374h150
c47.333 0 83.333 -11.333 108 -34s37 -51.667 37 -87s-12.333 -64.333 -37 -87s-60.667 -34 -108 -34h-85zM303 314l75 -0.00195312c30 0 52.333 5.83301 67 17.5s22 27.834 22 48.501s-7.33301 36.834 -22 48.501s-37 17.5 -67 17.5h-75v-132z" />
    </font>
</defs>
</svg>
