<?xml version="1.0" encoding="utf-8"?>
<!-- Generator: Adobe Illustrator 18.1.1, SVG Export Plug-In . SVG Version: 6.00 Build 0)  -->
<svg version="1.1" id="Layer_1" xmlns="http://www.w3.org/2000/svg" xmlns:xlink="http://www.w3.org/1999/xlink" x="0px" y="0px"
	 viewBox="0 0 484.6 181.8" enable-background="new 0 0 484.6 181.8" xml:space="preserve">
<polygon fill="#FFFFFF" points="0,0 0,45.5 34,45.5 34,38 8.9,38 8.9,26 28.1,26 28.1,18.5 8.9,18.5 8.9,7.5 34,7.5 34,0 "/>
<polygon fill="#FFFFFF" points="297.3,0 297.3,45.5 331.3,45.5 331.3,38 306.2,38 306.2,26 325.4,26 325.4,18.5 306.2,18.5 
	306.2,7.5 331.3,7.5 331.3,0 "/>
<polygon fill="#FFFFFF" points="153.3,0 153.3,45.5 187.4,45.5 187.4,38 162.3,38 162.3,0 "/>
<polygon fill="#FFFFFF" points="322.4,136.3 322.4,162.1 307.2,136.3 297.3,136.3 297.3,181.8 306.7,181.8 306.7,153.7 323.5,181.8 
	331.8,181.8 331.8,136.3 "/>
<polygon fill="#FFFFFF" points="448.4,136.3 448.4,143.8 461.2,143.8 461.2,181.8 470.2,181.8 470.2,143.8 482.7,143.8 482.7,136.3 
	"/>
<path fill="#FFFFFF" d="M459.8,45.5h-8.9V0h15.5c11.6,0,18.3,5.4,18.3,14.9c0,9.5-6.6,14.9-18.3,14.9h-6.6V45.5z M466.1,22.4
	c6.8,0,9.7-2.6,9.7-7.5c0-4.9-3-7.6-9.7-7.6h-6.3v15.2H466.1z"/>
<polygon fill="#FFFFFF" points="0.1,181.8 0.1,136.3 9.1,136.3 9.1,154.9 25.1,154.9 25.1,136.3 34.1,136.3 34.1,181.8 25.1,181.8 
	25.1,162.3 9.1,162.3 9.1,181.8 "/>
<path fill="#FFFFFF" d="M171.4,136.3l19.2,45.5H181l-4.5-11.3h-19.3l-4.4,11.3h-9.1l18.4-45.5H171.4z M173.7,163.6l-6.9-17h-0.3
	l-6.7,17"/>
</svg>
